<?xml version="1.0" encoding="utf-8" standalone="no"?>
<!DOCTYPE svg PUBLIC "-//W3C//DTD SVG 1.1//EN"
  "http://www.w3.org/Graphics/SVG/1.1/DTD/svg11.dtd">
<svg xmlns:xlink="http://www.w3.org/1999/xlink" width="1025.28pt" height="565.2pt" viewBox="0 0 1025.28 565.2" xmlns="http://www.w3.org/2000/svg" version="1.1">
 <metadata>
  <rdf:RDF xmlns:dc="http://purl.org/dc/elements/1.1/" xmlns:cc="http://creativecommons.org/ns#" xmlns:rdf="http://www.w3.org/1999/02/22-rdf-syntax-ns#">
   <cc:Work>
    <dc:type rdf:resource="http://purl.org/dc/dcmitype/StillImage"/>
    <dc:date>1980-01-01T00:00:00+00:00</dc:date>
    <dc:format>image/svg+xml</dc:format>
    <dc:creator>
     <cc:Agent>
      <dc:title>Matplotlib v3.8.4, https://matplotlib.org/</dc:title>
     </cc:Agent>
    </dc:creator>
   </cc:Work>
  </rdf:RDF>
 </metadata>
 <defs>
  <style type="text/css">*{stroke-linejoin: round; stroke-linecap: butt}</style>
 </defs>
 <g id="figure_1">
  <g id="patch_1">
   <path d="M 0 565.2 
L 1025.28 565.2 
L 1025.28 0 
L 0 0 
z
" style="fill: #ffffff"/>
  </g>
  <g id="axes_1">
   <g id="patch_2">
    <path d="M 128.71625 507.829583 
L 1001.25 507.829583 
L 1001.25 54.5575 
L 128.71625 54.5575 
z
" style="fill: #ffffff"/>
   </g>
   <g id="matplotlib.axis_1">
    <g id="xtick_1">
     <g id="line2d_1">
      <path d="M 128.71625 507.829583 
L 128.71625 54.5575 
" clip-path="url(#p6ac8df7c89)" style="fill: none; stroke: #b0b0b0; stroke-width: 0.8; stroke-linecap: square"/>
     </g>
     <g id="line2d_2">
      <defs>
       <path id="macfe490f3f" d="M 0 0 
L 0 3.5 
" style="stroke: #000000; stroke-width: 0.8"/>
      </defs>
      <g>
       <use xlink:href="#macfe490f3f" x="128.71625" y="507.829583" style="stroke: #000000; stroke-width: 0.8"/>
      </g>
     </g>
    </g>
    <g id="xtick_2">
     <g id="line2d_3">
      <path d="M 132.072149 507.829583 
L 132.072149 54.5575 
" clip-path="url(#p6ac8df7c89)" style="fill: none; stroke: #b0b0b0; stroke-width: 0.8; stroke-linecap: square"/>
     </g>
     <g id="line2d_4">
      <g>
       <use xlink:href="#macfe490f3f" x="132.072149" y="507.829583" style="stroke: #000000; stroke-width: 0.8"/>
      </g>
     </g>
     <g id="text_1">
      <!-- 2007 -->
      <g transform="translate(109.167149 528.506771) scale(0.18 -0.18)">
       <defs>
        <path id="DejaVuSans-32" d="M 1228 531 
L 3431 531 
L 3431 0 
L 469 0 
L 469 531 
Q 828 903 1448 1529 
Q 2069 2156 2228 2338 
Q 2531 2678 2651 2914 
Q 2772 3150 2772 3378 
Q 2772 3750 2511 3984 
Q 2250 4219 1831 4219 
Q 1534 4219 1204 4116 
Q 875 4013 500 3803 
L 500 4441 
Q 881 4594 1212 4672 
Q 1544 4750 1819 4750 
Q 2544 4750 2975 4387 
Q 3406 4025 3406 3419 
Q 3406 3131 3298 2873 
Q 3191 2616 2906 2266 
Q 2828 2175 2409 1742 
Q 1991 1309 1228 531 
z
" transform="scale(0.015625)"/>
        <path id="DejaVuSans-30" d="M 2034 4250 
Q 1547 4250 1301 3770 
Q 1056 3291 1056 2328 
Q 1056 1369 1301 889 
Q 1547 409 2034 409 
Q 2525 409 2770 889 
Q 3016 1369 3016 2328 
Q 3016 3291 2770 3770 
Q 2525 4250 2034 4250 
z
M 2034 4750 
Q 2819 4750 3233 4129 
Q 3647 3509 3647 2328 
Q 3647 1150 3233 529 
Q 2819 -91 2034 -91 
Q 1250 -91 836 529 
Q 422 1150 422 2328 
Q 422 3509 836 4129 
Q 1250 4750 2034 4750 
z
" transform="scale(0.015625)"/>
        <path id="DejaVuSans-37" d="M 525 4666 
L 3525 4666 
L 3525 4397 
L 1831 0 
L 1172 0 
L 2766 4134 
L 525 4134 
L 525 4666 
z
" transform="scale(0.015625)"/>
       </defs>
       <use xlink:href="#DejaVuSans-32"/>
       <use xlink:href="#DejaVuSans-30" x="63.623047"/>
       <use xlink:href="#DejaVuSans-30" x="127.246094"/>
       <use xlink:href="#DejaVuSans-37" x="190.869141"/>
      </g>
     </g>
    </g>
    <g id="xtick_3">
     <g id="line2d_5">
      <path d="M 306.578899 507.829583 
L 306.578899 54.5575 
" clip-path="url(#p6ac8df7c89)" style="fill: none; stroke: #b0b0b0; stroke-width: 0.8; stroke-linecap: square"/>
     </g>
     <g id="line2d_6">
      <g>
       <use xlink:href="#macfe490f3f" x="306.578899" y="507.829583" style="stroke: #000000; stroke-width: 0.8"/>
      </g>
     </g>
     <g id="text_2">
      <!-- 2008 -->
      <g transform="translate(283.673899 528.506771) scale(0.18 -0.18)">
       <defs>
        <path id="DejaVuSans-38" d="M 2034 2216 
Q 1584 2216 1326 1975 
Q 1069 1734 1069 1313 
Q 1069 891 1326 650 
Q 1584 409 2034 409 
Q 2484 409 2743 651 
Q 3003 894 3003 1313 
Q 3003 1734 2745 1975 
Q 2488 2216 2034 2216 
z
M 1403 2484 
Q 997 2584 770 2862 
Q 544 3141 544 3541 
Q 544 4100 942 4425 
Q 1341 4750 2034 4750 
Q 2731 4750 3128 4425 
Q 3525 4100 3525 3541 
Q 3525 3141 3298 2862 
Q 3072 2584 2669 2484 
Q 3125 2378 3379 2068 
Q 3634 1759 3634 1313 
Q 3634 634 3220 271 
Q 2806 -91 2034 -91 
Q 1263 -91 848 271 
Q 434 634 434 1313 
Q 434 1759 690 2068 
Q 947 2378 1403 2484 
z
M 1172 3481 
Q 1172 3119 1398 2916 
Q 1625 2713 2034 2713 
Q 2441 2713 2670 2916 
Q 2900 3119 2900 3481 
Q 2900 3844 2670 4047 
Q 2441 4250 2034 4250 
Q 1625 4250 1398 4047 
Q 1172 3844 1172 3481 
z
" transform="scale(0.015625)"/>
       </defs>
       <use xlink:href="#DejaVuSans-32"/>
       <use xlink:href="#DejaVuSans-30" x="63.623047"/>
       <use xlink:href="#DejaVuSans-30" x="127.246094"/>
       <use xlink:href="#DejaVuSans-38" x="190.869141"/>
      </g>
     </g>
    </g>
    <g id="xtick_4">
     <g id="line2d_7">
      <path d="M 481.085649 507.829583 
L 481.085649 54.5575 
" clip-path="url(#p6ac8df7c89)" style="fill: none; stroke: #b0b0b0; stroke-width: 0.8; stroke-linecap: square"/>
     </g>
     <g id="line2d_8">
      <g>
       <use xlink:href="#macfe490f3f" x="481.085649" y="507.829583" style="stroke: #000000; stroke-width: 0.8"/>
      </g>
     </g>
     <g id="text_3">
      <!-- 2009 -->
      <g transform="translate(458.180649 528.506771) scale(0.18 -0.18)">
       <defs>
        <path id="DejaVuSans-39" d="M 703 97 
L 703 672 
Q 941 559 1184 500 
Q 1428 441 1663 441 
Q 2288 441 2617 861 
Q 2947 1281 2994 2138 
Q 2813 1869 2534 1725 
Q 2256 1581 1919 1581 
Q 1219 1581 811 2004 
Q 403 2428 403 3163 
Q 403 3881 828 4315 
Q 1253 4750 1959 4750 
Q 2769 4750 3195 4129 
Q 3622 3509 3622 2328 
Q 3622 1225 3098 567 
Q 2575 -91 1691 -91 
Q 1453 -91 1209 -44 
Q 966 3 703 97 
z
M 1959 2075 
Q 2384 2075 2632 2365 
Q 2881 2656 2881 3163 
Q 2881 3666 2632 3958 
Q 2384 4250 1959 4250 
Q 1534 4250 1286 3958 
Q 1038 3666 1038 3163 
Q 1038 2656 1286 2365 
Q 1534 2075 1959 2075 
z
" transform="scale(0.015625)"/>
       </defs>
       <use xlink:href="#DejaVuSans-32"/>
       <use xlink:href="#DejaVuSans-30" x="63.623047"/>
       <use xlink:href="#DejaVuSans-30" x="127.246094"/>
       <use xlink:href="#DejaVuSans-39" x="190.869141"/>
      </g>
     </g>
    </g>
    <g id="xtick_5">
     <g id="line2d_9">
      <path d="M 655.592399 507.829583 
L 655.592399 54.5575 
" clip-path="url(#p6ac8df7c89)" style="fill: none; stroke: #b0b0b0; stroke-width: 0.8; stroke-linecap: square"/>
     </g>
     <g id="line2d_10">
      <g>
       <use xlink:href="#macfe490f3f" x="655.592399" y="507.829583" style="stroke: #000000; stroke-width: 0.8"/>
      </g>
     </g>
     <g id="text_4">
      <!-- 2010 -->
      <g transform="translate(632.687399 528.506771) scale(0.18 -0.18)">
       <defs>
        <path id="DejaVuSans-31" d="M 794 531 
L 1825 531 
L 1825 4091 
L 703 3866 
L 703 4441 
L 1819 4666 
L 2450 4666 
L 2450 531 
L 3481 531 
L 3481 0 
L 794 0 
L 794 531 
z
" transform="scale(0.015625)"/>
       </defs>
       <use xlink:href="#DejaVuSans-32"/>
       <use xlink:href="#DejaVuSans-30" x="63.623047"/>
       <use xlink:href="#DejaVuSans-31" x="127.246094"/>
       <use xlink:href="#DejaVuSans-30" x="190.869141"/>
      </g>
     </g>
    </g>
    <g id="xtick_6">
     <g id="line2d_11">
      <path d="M 833.455048 507.829583 
L 833.455048 54.5575 
" clip-path="url(#p6ac8df7c89)" style="fill: none; stroke: #b0b0b0; stroke-width: 0.8; stroke-linecap: square"/>
     </g>
     <g id="line2d_12">
      <g>
       <use xlink:href="#macfe490f3f" x="833.455048" y="507.829583" style="stroke: #000000; stroke-width: 0.8"/>
      </g>
     </g>
     <g id="text_5">
      <!-- 2011 -->
      <g transform="translate(810.550048 528.506771) scale(0.18 -0.18)">
       <use xlink:href="#DejaVuSans-32"/>
       <use xlink:href="#DejaVuSans-30" x="63.623047"/>
       <use xlink:href="#DejaVuSans-31" x="127.246094"/>
       <use xlink:href="#DejaVuSans-31" x="190.869141"/>
      </g>
     </g>
    </g>
    <g id="xtick_7">
     <g id="line2d_13">
      <path d="M 1001.25 507.829583 
L 1001.25 54.5575 
" clip-path="url(#p6ac8df7c89)" style="fill: none; stroke: #b0b0b0; stroke-width: 0.8; stroke-linecap: square"/>
     </g>
     <g id="line2d_14">
      <g>
       <use xlink:href="#macfe490f3f" x="1001.25" y="507.829583" style="stroke: #000000; stroke-width: 0.8"/>
      </g>
     </g>
    </g>
    <g id="xtick_8">
     <g id="line2d_15">
      <defs>
       <path id="m0348623b38" d="M 0 0 
L 0 2 
" style="stroke: #000000; stroke-width: 0.6"/>
      </defs>
      <g>
       <use xlink:href="#m0348623b38" x="175.698837" y="507.829583" style="stroke: #000000; stroke-width: 0.6"/>
      </g>
     </g>
    </g>
    <g id="xtick_9">
     <g id="line2d_16">
      <g>
       <use xlink:href="#m0348623b38" x="219.325524" y="507.829583" style="stroke: #000000; stroke-width: 0.6"/>
      </g>
     </g>
    </g>
    <g id="xtick_10">
     <g id="line2d_17">
      <g>
       <use xlink:href="#m0348623b38" x="262.952212" y="507.829583" style="stroke: #000000; stroke-width: 0.6"/>
      </g>
     </g>
    </g>
    <g id="xtick_11">
     <g id="line2d_18">
      <g>
       <use xlink:href="#m0348623b38" x="350.205587" y="507.829583" style="stroke: #000000; stroke-width: 0.6"/>
      </g>
     </g>
    </g>
    <g id="xtick_12">
     <g id="line2d_19">
      <g>
       <use xlink:href="#m0348623b38" x="393.832274" y="507.829583" style="stroke: #000000; stroke-width: 0.6"/>
      </g>
     </g>
    </g>
    <g id="xtick_13">
     <g id="line2d_20">
      <g>
       <use xlink:href="#m0348623b38" x="437.458962" y="507.829583" style="stroke: #000000; stroke-width: 0.6"/>
      </g>
     </g>
    </g>
    <g id="xtick_14">
     <g id="line2d_21">
      <g>
       <use xlink:href="#m0348623b38" x="524.712337" y="507.829583" style="stroke: #000000; stroke-width: 0.6"/>
      </g>
     </g>
    </g>
    <g id="xtick_15">
     <g id="line2d_22">
      <g>
       <use xlink:href="#m0348623b38" x="568.339024" y="507.829583" style="stroke: #000000; stroke-width: 0.6"/>
      </g>
     </g>
    </g>
    <g id="xtick_16">
     <g id="line2d_23">
      <g>
       <use xlink:href="#m0348623b38" x="611.965712" y="507.829583" style="stroke: #000000; stroke-width: 0.6"/>
      </g>
     </g>
    </g>
    <g id="xtick_17">
     <g id="line2d_24">
      <g>
       <use xlink:href="#m0348623b38" x="699.219087" y="507.829583" style="stroke: #000000; stroke-width: 0.6"/>
      </g>
     </g>
    </g>
    <g id="xtick_18">
     <g id="line2d_25">
      <g>
       <use xlink:href="#m0348623b38" x="742.845774" y="507.829583" style="stroke: #000000; stroke-width: 0.6"/>
      </g>
     </g>
    </g>
    <g id="xtick_19">
     <g id="line2d_26">
      <g>
       <use xlink:href="#m0348623b38" x="786.472462" y="507.829583" style="stroke: #000000; stroke-width: 0.6"/>
      </g>
     </g>
    </g>
    <g id="xtick_20">
     <g id="line2d_27">
      <g>
       <use xlink:href="#m0348623b38" x="873.725837" y="507.829583" style="stroke: #000000; stroke-width: 0.6"/>
      </g>
     </g>
    </g>
    <g id="xtick_21">
     <g id="line2d_28">
      <g>
       <use xlink:href="#m0348623b38" x="917.352524" y="507.829583" style="stroke: #000000; stroke-width: 0.6"/>
      </g>
     </g>
    </g>
    <g id="xtick_22">
     <g id="line2d_29">
      <g>
       <use xlink:href="#m0348623b38" x="964.335111" y="507.829583" style="stroke: #000000; stroke-width: 0.6"/>
      </g>
     </g>
    </g>
   </g>
   <g id="matplotlib.axis_2">
    <g id="ytick_1">
     <g id="line2d_30">
      <path d="M 128.71625 499.309623 
L 1001.25 499.309623 
" clip-path="url(#p6ac8df7c89)" style="fill: none; stroke: #b0b0b0; stroke-width: 0.8; stroke-linecap: square"/>
     </g>
     <g id="line2d_31">
      <defs>
       <path id="m5805c07898" d="M 0 0 
L -3.5 0 
" style="stroke: #000000; stroke-width: 0.8"/>
      </defs>
      <g>
       <use xlink:href="#m5805c07898" x="128.71625" y="499.309623" style="stroke: #000000; stroke-width: 0.8"/>
      </g>
     </g>
     <g id="text_6">
      <!-- 0.16 -->
      <g transform="translate(81.638125 506.148216) scale(0.18 -0.18)">
       <defs>
        <path id="DejaVuSans-2e" d="M 684 794 
L 1344 794 
L 1344 0 
L 684 0 
L 684 794 
z
" transform="scale(0.015625)"/>
        <path id="DejaVuSans-36" d="M 2113 2584 
Q 1688 2584 1439 2293 
Q 1191 2003 1191 1497 
Q 1191 994 1439 701 
Q 1688 409 2113 409 
Q 2538 409 2786 701 
Q 3034 994 3034 1497 
Q 3034 2003 2786 2293 
Q 2538 2584 2113 2584 
z
M 3366 4563 
L 3366 3988 
Q 3128 4100 2886 4159 
Q 2644 4219 2406 4219 
Q 1781 4219 1451 3797 
Q 1122 3375 1075 2522 
Q 1259 2794 1537 2939 
Q 1816 3084 2150 3084 
Q 2853 3084 3261 2657 
Q 3669 2231 3669 1497 
Q 3669 778 3244 343 
Q 2819 -91 2113 -91 
Q 1303 -91 875 529 
Q 447 1150 447 2328 
Q 447 3434 972 4092 
Q 1497 4750 2381 4750 
Q 2619 4750 2861 4703 
Q 3103 4656 3366 4563 
z
" transform="scale(0.015625)"/>
       </defs>
       <use xlink:href="#DejaVuSans-30"/>
       <use xlink:href="#DejaVuSans-2e" x="63.623047"/>
       <use xlink:href="#DejaVuSans-31" x="95.410156"/>
       <use xlink:href="#DejaVuSans-36" x="159.033203"/>
      </g>
     </g>
    </g>
    <g id="ytick_2">
     <g id="line2d_32">
      <path d="M 128.71625 448.50702 
L 1001.25 448.50702 
" clip-path="url(#p6ac8df7c89)" style="fill: none; stroke: #b0b0b0; stroke-width: 0.8; stroke-linecap: square"/>
     </g>
     <g id="line2d_33">
      <g>
       <use xlink:href="#m5805c07898" x="128.71625" y="448.50702" style="stroke: #000000; stroke-width: 0.8"/>
      </g>
     </g>
     <g id="text_7">
      <!-- 0.17 -->
      <g transform="translate(81.638125 455.345614) scale(0.18 -0.18)">
       <use xlink:href="#DejaVuSans-30"/>
       <use xlink:href="#DejaVuSans-2e" x="63.623047"/>
       <use xlink:href="#DejaVuSans-31" x="95.410156"/>
       <use xlink:href="#DejaVuSans-37" x="159.033203"/>
      </g>
     </g>
    </g>
    <g id="ytick_3">
     <g id="line2d_34">
      <path d="M 128.71625 397.704417 
L 1001.25 397.704417 
" clip-path="url(#p6ac8df7c89)" style="fill: none; stroke: #b0b0b0; stroke-width: 0.8; stroke-linecap: square"/>
     </g>
     <g id="line2d_35">
      <g>
       <use xlink:href="#m5805c07898" x="128.71625" y="397.704417" style="stroke: #000000; stroke-width: 0.8"/>
      </g>
     </g>
     <g id="text_8">
      <!-- 0.18 -->
      <g transform="translate(81.638125 404.543011) scale(0.18 -0.18)">
       <use xlink:href="#DejaVuSans-30"/>
       <use xlink:href="#DejaVuSans-2e" x="63.623047"/>
       <use xlink:href="#DejaVuSans-31" x="95.410156"/>
       <use xlink:href="#DejaVuSans-38" x="159.033203"/>
      </g>
     </g>
    </g>
    <g id="ytick_4">
     <g id="line2d_36">
      <path d="M 128.71625 346.901815 
L 1001.25 346.901815 
" clip-path="url(#p6ac8df7c89)" style="fill: none; stroke: #b0b0b0; stroke-width: 0.8; stroke-linecap: square"/>
     </g>
     <g id="line2d_37">
      <g>
       <use xlink:href="#m5805c07898" x="128.71625" y="346.901815" style="stroke: #000000; stroke-width: 0.8"/>
      </g>
     </g>
     <g id="text_9">
      <!-- 0.19 -->
      <g transform="translate(81.638125 353.740408) scale(0.18 -0.18)">
       <use xlink:href="#DejaVuSans-30"/>
       <use xlink:href="#DejaVuSans-2e" x="63.623047"/>
       <use xlink:href="#DejaVuSans-31" x="95.410156"/>
       <use xlink:href="#DejaVuSans-39" x="159.033203"/>
      </g>
     </g>
    </g>
    <g id="ytick_5">
     <g id="line2d_38">
      <path d="M 128.71625 296.099212 
L 1001.25 296.099212 
" clip-path="url(#p6ac8df7c89)" style="fill: none; stroke: #b0b0b0; stroke-width: 0.8; stroke-linecap: square"/>
     </g>
     <g id="line2d_39">
      <g>
       <use xlink:href="#m5805c07898" x="128.71625" y="296.099212" style="stroke: #000000; stroke-width: 0.8"/>
      </g>
     </g>
     <g id="text_10">
      <!-- 0.20 -->
      <g transform="translate(81.638125 302.937806) scale(0.18 -0.18)">
       <use xlink:href="#DejaVuSans-30"/>
       <use xlink:href="#DejaVuSans-2e" x="63.623047"/>
       <use xlink:href="#DejaVuSans-32" x="95.410156"/>
       <use xlink:href="#DejaVuSans-30" x="159.033203"/>
      </g>
     </g>
    </g>
    <g id="ytick_6">
     <g id="line2d_40">
      <path d="M 128.71625 245.296609 
L 1001.25 245.296609 
" clip-path="url(#p6ac8df7c89)" style="fill: none; stroke: #b0b0b0; stroke-width: 0.8; stroke-linecap: square"/>
     </g>
     <g id="line2d_41">
      <g>
       <use xlink:href="#m5805c07898" x="128.71625" y="245.296609" style="stroke: #000000; stroke-width: 0.8"/>
      </g>
     </g>
     <g id="text_11">
      <!-- 0.21 -->
      <g transform="translate(81.638125 252.135203) scale(0.18 -0.18)">
       <use xlink:href="#DejaVuSans-30"/>
       <use xlink:href="#DejaVuSans-2e" x="63.623047"/>
       <use xlink:href="#DejaVuSans-32" x="95.410156"/>
       <use xlink:href="#DejaVuSans-31" x="159.033203"/>
      </g>
     </g>
    </g>
    <g id="ytick_7">
     <g id="line2d_42">
      <path d="M 128.71625 194.494007 
L 1001.25 194.494007 
" clip-path="url(#p6ac8df7c89)" style="fill: none; stroke: #b0b0b0; stroke-width: 0.8; stroke-linecap: square"/>
     </g>
     <g id="line2d_43">
      <g>
       <use xlink:href="#m5805c07898" x="128.71625" y="194.494007" style="stroke: #000000; stroke-width: 0.8"/>
      </g>
     </g>
     <g id="text_12">
      <!-- 0.22 -->
      <g transform="translate(81.638125 201.3326) scale(0.18 -0.18)">
       <use xlink:href="#DejaVuSans-30"/>
       <use xlink:href="#DejaVuSans-2e" x="63.623047"/>
       <use xlink:href="#DejaVuSans-32" x="95.410156"/>
       <use xlink:href="#DejaVuSans-32" x="159.033203"/>
      </g>
     </g>
    </g>
    <g id="ytick_8">
     <g id="line2d_44">
      <path d="M 128.71625 143.691404 
L 1001.25 143.691404 
" clip-path="url(#p6ac8df7c89)" style="fill: none; stroke: #b0b0b0; stroke-width: 0.8; stroke-linecap: square"/>
     </g>
     <g id="line2d_45">
      <g>
       <use xlink:href="#m5805c07898" x="128.71625" y="143.691404" style="stroke: #000000; stroke-width: 0.8"/>
      </g>
     </g>
     <g id="text_13">
      <!-- 0.23 -->
      <g transform="translate(81.638125 150.529998) scale(0.18 -0.18)">
       <defs>
        <path id="DejaVuSans-33" d="M 2597 2516 
Q 3050 2419 3304 2112 
Q 3559 1806 3559 1356 
Q 3559 666 3084 287 
Q 2609 -91 1734 -91 
Q 1441 -91 1130 -33 
Q 819 25 488 141 
L 488 750 
Q 750 597 1062 519 
Q 1375 441 1716 441 
Q 2309 441 2620 675 
Q 2931 909 2931 1356 
Q 2931 1769 2642 2001 
Q 2353 2234 1838 2234 
L 1294 2234 
L 1294 2753 
L 1863 2753 
Q 2328 2753 2575 2939 
Q 2822 3125 2822 3475 
Q 2822 3834 2567 4026 
Q 2313 4219 1838 4219 
Q 1578 4219 1281 4162 
Q 984 4106 628 3988 
L 628 4550 
Q 988 4650 1302 4700 
Q 1616 4750 1894 4750 
Q 2613 4750 3031 4423 
Q 3450 4097 3450 3541 
Q 3450 3153 3228 2886 
Q 3006 2619 2597 2516 
z
" transform="scale(0.015625)"/>
       </defs>
       <use xlink:href="#DejaVuSans-30"/>
       <use xlink:href="#DejaVuSans-2e" x="63.623047"/>
       <use xlink:href="#DejaVuSans-32" x="95.410156"/>
       <use xlink:href="#DejaVuSans-33" x="159.033203"/>
      </g>
     </g>
    </g>
    <g id="ytick_9">
     <g id="line2d_46">
      <path d="M 128.71625 92.888801 
L 1001.25 92.888801 
" clip-path="url(#p6ac8df7c89)" style="fill: none; stroke: #b0b0b0; stroke-width: 0.8; stroke-linecap: square"/>
     </g>
     <g id="line2d_47">
      <g>
       <use xlink:href="#m5805c07898" x="128.71625" y="92.888801" style="stroke: #000000; stroke-width: 0.8"/>
      </g>
     </g>
     <g id="text_14">
      <!-- 0.24 -->
      <g transform="translate(81.638125 99.727395) scale(0.18 -0.18)">
       <defs>
        <path id="DejaVuSans-34" d="M 2419 4116 
L 825 1625 
L 2419 1625 
L 2419 4116 
z
M 2253 4666 
L 3047 4666 
L 3047 1625 
L 3713 1625 
L 3713 1100 
L 3047 1100 
L 3047 0 
L 2419 0 
L 2419 1100 
L 313 1100 
L 313 1709 
L 2253 4666 
z
" transform="scale(0.015625)"/>
       </defs>
       <use xlink:href="#DejaVuSans-30"/>
       <use xlink:href="#DejaVuSans-2e" x="63.623047"/>
       <use xlink:href="#DejaVuSans-32" x="95.410156"/>
       <use xlink:href="#DejaVuSans-34" x="159.033203"/>
      </g>
     </g>
    </g>
   </g>
   <g id="line2d_48">
    <path d="M 128.71625 218.43237 
L 132.072149 218.945357 
L 135.428048 227.136343 
L 138.783947 228.700207 
L 142.139846 220.851504 
L 145.495745 221.532493 
L 148.851644 214.346575 
L 152.207543 218.808124 
L 155.563442 223.528978 
L 158.919341 229.223559 
L 162.27524 241.175512 
L 165.631139 241.665684 
L 168.987038 238.69679 
L 172.342938 234.369032 
L 175.698837 231.719471 
L 179.054736 229.714819 
L 182.410635 229.101097 
L 185.766534 219.984465 
L 189.122433 224.65221 
L 192.478332 232.845876 
L 195.834231 223.757588 
L 199.19013 243.889207 
L 202.546029 230.073422 
L 205.901928 232.385407 
L 209.257827 237.114506 
L 212.613726 233.720298 
L 215.969625 232.927632 
L 219.325524 234.343457 
L 222.681423 229.331113 
L 226.037322 241.002823 
L 229.393221 245.791684 
L 232.74912 247.468957 
L 236.105019 191.824448 
L 239.460918 188.046737 
L 242.816817 201.576523 
L 246.172716 212.204695 
L 249.528615 220.704927 
L 252.884514 204.772576 
L 256.240413 209.946641 
L 259.596312 204.287951 
L 262.952212 205.451962 
L 266.308111 196.395618 
L 269.66401 211.200433 
L 273.019909 212.951141 
L 276.375808 212.500437 
L 279.731707 288.05944 
L 283.087606 220.340316 
L 286.443505 232.936443 
L 289.799404 230.247731 
L 293.155303 234.514255 
L 296.511202 226.270407 
L 299.867101 243.78042 
L 303.223 221.601755 
L 306.578899 225.288008 
L 309.934798 211.372476 
L 313.290697 208.926079 
L 316.646596 207.96087 
L 320.002495 241.305143 
L 323.358394 239.344884 
L 326.714293 220.336837 
L 330.070192 226.945606 
L 333.426091 219.252204 
L 336.78199 238.538637 
L 340.137889 260.27945 
L 343.493788 302.881901 
L 346.849688 232.328257 
L 350.205587 241.178543 
L 353.561486 209.7679 
L 356.917385 230.344082 
L 360.273284 227.339321 
L 363.629183 234.301362 
L 366.985082 233.000793 
L 370.340981 227.843979 
L 373.69688 257.455954 
L 377.052779 230.754778 
L 380.408678 252.072281 
L 383.764577 263.89902 
L 387.120476 260.376618 
L 390.476375 246.340748 
L 393.832274 261.68454 
L 397.188173 210.936776 
L 400.544072 171.803064 
L 403.899971 192.720862 
L 407.25587 221.093598 
L 410.611769 228.35003 
L 413.967668 210.16407 
L 417.323567 220.555191 
L 420.679466 223.242692 
L 424.035365 182.434638 
L 427.391264 224.639078 
L 430.747163 260.952376 
L 434.103063 230.812866 
L 437.458962 223.199762 
L 440.814861 221.932712 
L 444.17076 271.645764 
L 447.526659 311.60997 
L 450.882558 214.078661 
L 454.238457 330.427868 
L 457.594356 327.572322 
L 460.950255 290.772773 
L 464.306154 98.254103 
L 467.662053 253.412211 
L 471.017952 292.655526 
L 474.373851 351.03722 
L 477.72975 277.104364 
L 481.085649 222.941341 
L 484.441548 249.208684 
L 487.797447 229.670705 
L 491.153346 305.632601 
L 494.509245 271.071932 
L 497.865144 291.202428 
L 501.221043 262.881778 
L 504.576942 394.635806 
L 507.932841 302.098355 
L 511.28874 487.226307 
L 514.644639 320.393382 
L 518.000538 372.04011 
L 521.356437 351.933388 
L 524.712337 333.078287 
L 528.068236 374.799052 
L 531.424135 371.377298 
L 534.780034 354.051978 
L 538.135933 325.812871 
L 541.491832 346.28924 
L 544.847731 334.062586 
L 548.20363 366.465956 
L 551.559529 334.574497 
L 554.915428 328.972235 
L 558.271327 329.349399 
L 561.627226 301.625617 
L 564.983125 321.627117 
L 568.339024 330.178439 
L 571.694923 318.205967 
L 575.050822 315.833172 
L 578.406721 312.055592 
L 581.76262 317.896054 
L 585.118519 324.656105 
L 588.474418 326.507837 
L 591.830317 317.774509 
L 595.186216 335.706327 
L 598.542115 327.270396 
L 601.898014 333.343335 
L 605.253913 323.258926 
L 608.609812 325.960256 
L 611.965712 319.654619 
L 615.321611 331.616869 
L 618.67751 325.556369 
L 622.033409 351.42535 
L 625.389308 366.692562 
L 628.745207 353.770253 
L 632.101106 348.393704 
L 635.457005 353.567559 
L 638.812904 349.494647 
L 642.168803 334.522319 
L 645.524702 335.265951 
L 648.880601 336.192211 
L 652.2365 333.936333 
L 655.592399 335.750136 
L 658.948298 334.561215 
L 662.304197 332.221144 
L 665.660096 330.275791 
L 669.015995 328.941007 
L 672.371894 330.461425 
L 675.727793 323.534932 
L 679.083692 323.585339 
L 682.439591 328.000403 
L 685.79549 320.620019 
L 689.151389 325.278744 
L 692.507288 326.167033 
L 695.863188 326.388395 
L 699.219087 323.997754 
L 702.574986 320.524482 
L 705.930885 323.457177 
L 709.286784 326.194923 
L 712.642683 331.744154 
L 715.998582 370.793044 
L 719.354481 325.696155 
L 722.71038 309.038259 
L 726.066279 326.357931 
L 729.422178 331.394349 
L 732.778077 322.547655 
L 736.133976 328.823267 
L 739.489875 324.736842 
L 742.845774 327.882358 
L 746.201673 346.200049 
L 749.557572 343.478947 
L 752.913471 336.559366 
L 756.26937 334.852382 
L 759.625269 324.812612 
L 762.981168 327.4972 
L 766.337067 332.675374 
L 769.692966 330.089834 
L 773.048865 331.47772 
L 776.404764 335.423557 
L 779.760663 334.542763 
L 783.116562 335.71104 
L 786.472462 337.982889 
L 789.828361 335.17515 
L 793.18426 333.355407 
L 796.540159 333.564213 
L 799.896058 332.345453 
L 803.251957 331.412661 
L 806.607856 334.440092 
L 809.963755 332.940827 
L 813.319654 337.7663 
L 816.675553 330.543038 
L 820.031452 327.611087 
L 823.387351 332.835426 
L 826.74325 328.721282 
L 830.099149 332.649343 
L 833.455048 328.032326 
L 836.810947 328.98995 
L 840.166846 328.833661 
L 843.522745 328.415528 
L 846.878644 331.543414 
L 850.234543 332.376637 
L 853.590442 331.764676 
L 856.946341 330.857741 
L 860.30224 329.270952 
L 863.658139 324.966504 
L 870.369937 329.389515 
L 873.725837 332.417684 
L 877.081736 330.863095 
L 880.437635 333.835077 
L 883.793534 334.457747 
L 887.149433 329.67772 
L 890.505332 332.662094 
L 893.861231 334.852802 
L 900.573029 345.00702 
L 903.928928 338.499003 
L 907.284827 345.347536 
L 910.640726 346.058343 
L 913.996625 365.691079 
L 917.352524 331.511914 
L 920.708423 370.183405 
L 924.064322 370.552037 
L 927.420221 338.535388 
L 930.77612 351.875496 
L 934.132019 371.434378 
L 937.487918 423.167744 
L 940.843817 389.425859 
L 944.199716 367.532988 
L 947.555615 357.895316 
L 950.911514 386.377802 
L 954.267413 423.445093 
L 957.623312 396.713943 
L 960.979212 367.2501 
L 964.335111 365.993072 
L 967.69101 387.397921 
L 971.046909 376.510551 
L 974.402808 352.473059 
L 977.758707 362.18082 
L 981.114606 355.855937 
L 984.470505 346.545809 
L 987.826404 385.562654 
L 991.182303 356.746818 
L 994.538202 382.814778 
L 997.894101 370.77689 
L 1001.25 369.685427 
L 1001.25 369.685427 
" clip-path="url(#p6ac8df7c89)" style="fill: none; stroke: #1f77b4; stroke-width: 1.5; stroke-linecap: square"/>
   </g>
   <g id="line2d_49">
    <path d="M 128.71625 469.98818 
L 132.072149 470.542602 
L 135.428048 473.671088 
L 138.783947 472.718203 
L 142.139846 469.087815 
L 145.495745 472.902594 
L 148.851644 468.98633 
L 152.207543 471.234927 
L 155.563442 467.16683 
L 158.919341 453.381567 
L 162.27524 472.396506 
L 165.631139 459.41557 
L 168.987038 470.270376 
L 172.342938 468.399248 
L 175.698837 472.011512 
L 179.054736 471.408457 
L 182.410635 475.013414 
L 185.766534 467.214822 
L 189.122433 470.884441 
L 192.478332 468.556775 
L 195.834231 466.595806 
L 199.19013 458.905187 
L 202.546029 469.116121 
L 205.901928 458.968751 
L 209.257827 484.271876 
L 212.613726 477.601255 
L 215.969625 480.631586 
L 219.325524 479.480932 
L 222.681423 466.567022 
L 226.037322 473.80085 
L 229.393221 467.006609 
L 232.74912 455.426656 
L 236.105019 432.567185 
L 239.460918 401.787684 
L 242.816817 428.508123 
L 246.172716 420.433936 
L 249.528615 407.874698 
L 252.884514 409.227254 
L 256.240413 368.963936 
L 259.596312 362.485218 
L 262.952212 361.273013 
L 266.308111 372.512509 
L 269.66401 388.288832 
L 273.019909 396.218693 
L 276.375808 391.660392 
L 279.731707 360.514697 
L 283.087606 407.631855 
L 286.443505 398.679034 
L 289.799404 403.67653 
L 293.155303 387.365833 
L 296.511202 397.535595 
L 299.867101 381.153026 
L 303.223 395.904938 
L 306.578899 380.994854 
L 309.934798 380.499517 
L 313.290697 374.559592 
L 316.646596 446.49595 
L 320.002495 430.963862 
L 323.358394 381.10847 
L 326.714293 379.913166 
L 330.070192 384.045842 
L 333.426091 392.969469 
L 336.78199 388.498704 
L 340.137889 394.287474 
L 343.493788 380.168902 
L 346.849688 379.780877 
L 350.205587 369.230254 
L 353.561486 384.869639 
L 356.917385 379.531189 
L 360.273284 377.697583 
L 363.629183 381.80973 
L 366.985082 370.899811 
L 370.340981 376.285067 
L 373.69688 360.440272 
L 377.052779 368.652682 
L 380.408678 352.759666 
L 383.764577 359.784769 
L 387.120476 345.850614 
L 390.476375 369.750205 
L 393.832274 350.344874 
L 397.188173 305.250342 
L 400.544072 353.618363 
L 403.899971 346.35481 
L 407.25587 346.565655 
L 410.611769 348.450121 
L 413.967668 338.308011 
L 417.323567 336.608553 
L 420.679466 306.382712 
L 424.035365 326.709642 
L 427.391264 316.999672 
L 430.747163 243.182818 
L 434.103063 265.769801 
L 437.458962 154.793933 
L 440.814861 265.385171 
L 444.17076 328.937128 
L 447.526659 347.476714 
L 450.882558 402.76747 
L 454.238457 340.333133 
L 457.594356 345.352098 
L 460.950255 363.698105 
L 464.306154 369.957007 
L 467.662053 349.383721 
L 471.017952 336.163267 
L 474.373851 326.871357 
L 477.72975 333.321787 
L 481.085649 376.138569 
L 484.441548 345.186289 
L 487.797447 353.108607 
L 491.153346 329.402365 
L 494.509245 382.722494 
L 497.865144 417.332292 
L 501.221043 370.773637 
L 504.576942 358.534255 
L 507.932841 373.145084 
L 511.28874 281.163779 
L 514.644639 363.468461 
L 518.000538 347.721639 
L 521.356437 354.463991 
L 524.712337 383.31802 
L 528.068236 382.065442 
L 531.424135 374.43541 
L 534.780034 368.160907 
L 538.135933 373.310335 
L 541.491832 364.269299 
L 544.847731 363.650935 
L 548.20363 380.72289 
L 551.559529 372.464382 
L 554.915428 367.486899 
L 558.271327 381.797457 
L 561.627226 374.486166 
L 564.983125 380.090404 
L 568.339024 378.538525 
L 571.694923 379.49873 
L 575.050822 389.337828 
L 578.406721 389.110159 
L 581.76262 380.668425 
L 585.118519 380.555509 
L 588.474418 366.351413 
L 591.830317 381.330743 
L 595.186216 366.820592 
L 598.542115 367.300254 
L 601.898014 381.327426 
L 605.253913 362.137597 
L 608.609812 357.122959 
L 611.965712 370.049899 
L 615.321611 368.479668 
L 618.67751 369.048495 
L 622.033409 353.199627 
L 625.389308 357.383989 
L 628.745207 348.188203 
L 632.101106 345.009147 
L 635.457005 332.699194 
L 638.812904 330.082918 
L 642.168803 332.156706 
L 645.524702 329.439119 
L 648.880601 327.985953 
L 652.2365 335.629878 
L 655.592399 336.281377 
L 658.948298 332.091366 
L 665.660096 335.574371 
L 669.015995 325.50721 
L 672.371894 308.361898 
L 675.727793 324.571045 
L 679.083692 334.188227 
L 682.439591 330.454891 
L 685.79549 328.287778 
L 689.151389 330.178129 
L 692.507288 332.709267 
L 695.863188 333.933924 
L 699.219087 332.287287 
L 702.574986 335.501905 
L 705.930885 332.794514 
L 709.286784 332.814694 
L 712.642683 322.008953 
L 715.998582 258.856322 
L 719.354481 286.92034 
L 722.71038 301.556305 
L 726.066279 298.100569 
L 729.422178 282.431915 
L 732.778077 298.638331 
L 739.489875 300.917999 
L 742.845774 299.236099 
L 746.201673 296.454187 
L 749.557572 300.036393 
L 752.913471 296.658588 
L 756.26937 299.997929 
L 759.625269 304.470536 
L 762.981168 305.326082 
L 766.337067 299.929471 
L 769.692966 300.618731 
L 773.048865 301.480875 
L 776.404764 297.798319 
L 779.760663 296.703045 
L 783.116562 297.8482 
L 786.472462 300.144513 
L 789.828361 304.056728 
L 793.18426 303.876926 
L 796.540159 305.235034 
L 799.896058 300.751907 
L 803.251957 297.77852 
L 806.607856 296.046909 
L 809.963755 291.755629 
L 813.319654 270.508663 
L 816.675553 287.809499 
L 820.031452 291.705912 
L 823.387351 287.326523 
L 826.74325 288.483097 
L 830.099149 285.812528 
L 833.455048 286.356241 
L 836.810947 291.248822 
L 840.166846 288.972662 
L 850.234543 289.593576 
L 853.590442 289.099853 
L 856.946341 288.97956 
L 860.30224 288.213221 
L 863.658139 292.337624 
L 867.014038 300.580735 
L 870.369937 290.001624 
L 873.725837 287.783459 
L 877.081736 288.93672 
L 880.437635 284.924731 
L 883.793534 289.166138 
L 887.149433 293.041785 
L 890.505332 289.4664 
L 893.861231 284.633106 
L 897.21713 286.54298 
L 900.573029 288.891413 
L 903.928928 293.622983 
L 907.284827 284.798445 
L 910.640726 279.645451 
L 913.996625 272.831279 
L 917.352524 294.894181 
L 920.708423 273.933321 
L 924.064322 267.27377 
L 927.420221 289.617911 
L 930.77612 285.528572 
L 934.132019 328.323246 
L 937.487918 318.933703 
L 940.843817 372.189005 
L 944.199716 338.902296 
L 947.555615 331.582132 
L 950.911514 343.116585 
L 954.267413 304.260677 
L 957.623312 309.545919 
L 960.979212 291.071483 
L 964.335111 300.993197 
L 967.69101 297.963118 
L 971.046909 302.873947 
L 974.402808 312.194196 
L 977.758707 307.271037 
L 981.114606 303.377633 
L 984.470505 303.782174 
L 987.826404 298.72248 
L 991.182303 305.949198 
L 994.538202 296.10182 
L 997.894101 309.440356 
L 1001.25 301.747536 
L 1001.25 301.747536 
" clip-path="url(#p6ac8df7c89)" style="fill: none; stroke: #ff7f0e; stroke-width: 1.5; stroke-linecap: square"/>
   </g>
   <g id="line2d_50">
    <path d="M 128.71625 368.412309 
L 132.072149 372.916204 
L 135.428048 378.428309 
L 138.783947 376.214649 
L 142.139846 372.288953 
L 145.495745 372.397006 
L 148.851644 367.299854 
L 152.207543 372.277264 
L 155.563442 369.919092 
L 158.919341 366.926582 
L 162.27524 378.612107 
L 165.631139 374.350298 
L 168.987038 373.546678 
L 172.342938 375.911518 
L 175.698837 378.904583 
L 179.054736 376.743778 
L 182.410635 383.01764 
L 185.766534 367.674588 
L 189.122433 375.645029 
L 192.478332 368.98909 
L 195.834231 364.201926 
L 199.19013 363.716794 
L 202.546029 361.053585 
L 205.901928 365.857353 
L 209.257827 355.944828 
L 212.613726 349.874736 
L 215.969625 352.370243 
L 222.681423 354.22846 
L 226.037322 356.805503 
L 229.393221 364.624194 
L 232.74912 357.136313 
L 236.105019 388.35257 
L 239.460918 389.888778 
L 242.816817 350.667849 
L 246.172716 358.765453 
L 249.528615 355.418838 
L 252.884514 348.933916 
L 256.240413 374.907263 
L 259.596312 379.762992 
L 262.952212 375.871831 
L 266.308111 365.630548 
L 269.66401 367.388806 
L 273.019909 361.456071 
L 276.375808 362.20457 
L 279.731707 379.467578 
L 283.087606 373.632512 
L 286.443505 355.272691 
L 289.799404 359.084484 
L 293.155303 367.415061 
L 296.511202 357.555781 
L 299.867101 342.288552 
L 303.223 359.874847 
L 306.578899 329.065386 
L 309.934798 348.214503 
L 313.290697 351.104422 
L 316.646596 375.293667 
L 320.002495 365.322217 
L 323.358394 375.594621 
L 326.714293 356.044645 
L 330.070192 349.378635 
L 333.426091 357.345812 
L 336.78199 348.92718 
L 340.137889 354.555315 
L 343.493788 331.250498 
L 346.849688 343.424345 
L 350.205587 341.938273 
L 353.561486 345.060312 
L 356.917385 344.969412 
L 360.273284 354.058254 
L 363.629183 354.463935 
L 366.985082 351.6513 
L 370.340981 351.733302 
L 373.69688 342.508045 
L 377.052779 340.91987 
L 380.408678 335.392838 
L 383.764577 360.487437 
L 387.120476 346.279551 
L 390.476375 347.314681 
L 393.832274 357.55781 
L 397.188173 400.650719 
L 400.544072 394.996372 
L 403.899971 387.205657 
L 407.25587 345.963773 
L 410.611769 364.203501 
L 413.967668 352.186256 
L 417.323567 355.883561 
L 420.679466 367.635068 
L 424.035365 375.268185 
L 427.391264 352.434914 
L 430.747163 369.626742 
L 434.103063 375.325856 
L 437.458962 389.386957 
L 440.814861 313.611347 
L 444.17076 330.174271 
L 447.526659 125.976976 
L 450.882558 305.174614 
L 454.238457 270.667148 
L 457.594356 287.02631 
L 460.950255 368.342735 
L 464.306154 374.364478 
L 467.662053 406.148586 
L 471.017952 325.602155 
L 474.373851 328.409943 
L 477.72975 331.412512 
L 481.085649 352.081713 
L 484.441548 333.509441 
L 487.797447 343.87395 
L 491.153346 346.592966 
L 494.509245 355.266698 
L 497.865144 351.834007 
L 501.221043 335.014262 
L 504.576942 320.94912 
L 507.932841 326.05463 
L 511.28874 289.451168 
L 514.644639 348.029075 
L 518.000538 344.987846 
L 521.356437 343.757047 
L 524.712337 353.832023 
L 528.068236 345.070707 
L 531.424135 353.890205 
L 534.780034 340.371242 
L 538.135933 335.830945 
L 541.491832 331.890274 
L 544.847731 345.870401 
L 548.20363 348.521299 
L 551.559529 354.748925 
L 554.915428 348.46154 
L 558.271327 350.886298 
L 561.627226 354.875613 
L 564.983125 347.059419 
L 568.339024 347.197033 
L 571.694923 354.498116 
L 575.050822 348.115402 
L 578.406721 346.766782 
L 581.76262 349.26262 
L 585.118519 349.905004 
L 588.474418 346.991418 
L 591.830317 355.336594 
L 595.186216 351.409523 
L 598.542115 338.598663 
L 601.898014 340.64299 
L 605.253913 337.541905 
L 608.609812 329.661718 
L 611.965712 330.610371 
L 615.321611 324.857372 
L 618.67751 324.085147 
L 622.033409 314.624939 
L 625.389308 314.162212 
L 628.745207 310.239644 
L 632.101106 310.637584 
L 638.812904 316.333268 
L 642.168803 317.294168 
L 645.524702 311.294594 
L 648.880601 311.436359 
L 652.2365 317.100415 
L 655.592399 314.377723 
L 658.948298 316.776669 
L 662.304197 314.702005 
L 665.660096 310.959741 
L 669.015995 311.227035 
L 672.371894 310.566233 
L 675.727793 316.431502 
L 679.083692 318.217102 
L 682.439591 317.339247 
L 685.79549 322.953826 
L 689.151389 319.691647 
L 692.507288 317.720486 
L 695.863188 318.162954 
L 699.219087 315.811536 
L 702.574986 319.734215 
L 705.930885 317.416625 
L 709.286784 316.810006 
L 712.642683 321.526077 
L 715.998582 320.093007 
L 719.354481 310.890457 
L 722.71038 316.963119 
L 726.066279 320.359983 
L 729.422178 317.491151 
L 732.778077 321.1828 
L 736.133976 321.694448 
L 739.489875 319.279651 
L 742.845774 319.471788 
L 746.201673 308.440741 
L 749.557572 316.073968 
L 752.913471 312.878312 
L 756.26937 310.753757 
L 759.625269 316.334673 
L 762.981168 312.385045 
L 766.337067 311.361406 
L 769.692966 313.088823 
L 773.048865 317.65673 
L 776.404764 318.743942 
L 779.760663 315.8303 
L 783.116562 318.266919 
L 786.472462 318.826431 
L 789.828361 320.802598 
L 793.18426 320.328355 
L 796.540159 320.059609 
L 799.896058 319.50083 
L 803.251957 319.918968 
L 806.607856 318.176299 
L 809.963755 317.090917 
L 813.319654 310.456312 
L 816.675553 320.67057 
L 820.031452 319.56008 
L 823.387351 316.125264 
L 826.74325 318.058063 
L 830.099149 316.341196 
L 833.455048 316.957364 
L 836.810947 321.026646 
L 840.166846 321.06494 
L 843.522745 321.843518 
L 846.878644 322.15046 
L 850.234543 321.69558 
L 853.590442 321.461705 
L 856.946341 320.762138 
L 860.30224 320.708145 
L 863.658139 321.20723 
L 867.014038 318.718612 
L 870.369937 318.183513 
L 873.725837 318.484475 
L 877.081736 318.902372 
L 880.437635 317.311052 
L 883.793534 318.680482 
L 887.149433 320.809085 
L 890.505332 317.580668 
L 893.861231 313.618385 
L 897.21713 312.12903 
L 900.573029 312.853052 
L 903.928928 317.477667 
L 907.284827 313.073208 
L 910.640726 316.149918 
L 913.996625 306.602517 
L 917.352524 322.571241 
L 920.708423 311.05333 
L 924.064322 315.627106 
L 927.420221 324.097424 
L 930.77612 323.936236 
L 934.132019 299.683178 
L 937.487918 304.053837 
L 940.843817 295.100216 
L 944.199716 296.454545 
L 947.555615 308.817234 
L 950.911514 305.099092 
L 954.267413 316.725828 
L 957.623312 332.080869 
L 960.979212 319.326776 
L 964.335111 316.168075 
L 967.69101 316.179478 
L 971.046909 313.404857 
L 974.402808 325.537611 
L 977.758707 334.214192 
L 981.114606 336.240816 
L 984.470505 346.25321 
L 987.826404 318.044806 
L 991.182303 337.717211 
L 994.538202 331.428288 
L 997.894101 331.990486 
L 1001.25 327.439129 
L 1001.25 327.439129 
" clip-path="url(#p6ac8df7c89)" style="fill: none; stroke: #2ca02c; stroke-width: 1.5; stroke-linecap: square"/>
   </g>
   <g id="line2d_51">
    <path d="M 128.71625 129.489626 
L 132.072149 138.203956 
L 135.428048 131.935743 
L 138.783947 129.031139 
L 142.139846 134.339301 
L 145.495745 128.246082 
L 148.851644 136.251711 
L 152.207543 134.891568 
L 155.563442 132.366147 
L 158.919341 114.767701 
L 162.27524 122.781244 
L 165.631139 132.863921 
L 168.987038 130.93912 
L 172.342938 128.362497 
L 175.698837 112.401296 
L 179.054736 126.750497 
L 182.410635 123.522812 
L 185.766534 124.854124 
L 189.122433 133.109914 
L 192.478332 133.332493 
L 195.834231 141.763101 
L 199.19013 130.657875 
L 202.546029 128.537949 
L 205.901928 134.446517 
L 212.613726 141.907995 
L 215.969625 138.138617 
L 219.325524 135.026768 
L 222.681423 133.776344 
L 226.037322 125.587933 
L 229.393221 203.081929 
L 232.74912 171.358911 
L 236.105019 222.130417 
L 239.460918 207.464156 
L 242.816817 195.23706 
L 246.172716 204.564919 
L 249.528615 173.248338 
L 252.884514 208.862204 
L 256.240413 251.881024 
L 259.596312 255.059862 
L 262.952212 248.674044 
L 266.308111 248.811532 
L 269.66401 222.904295 
L 273.019909 224.820119 
L 276.375808 247.786418 
L 279.731707 246.097376 
L 283.087606 256.208749 
L 286.443505 213.76559 
L 289.799404 209.727132 
L 293.155303 237.292026 
L 296.511202 216.100886 
L 299.867101 201.794221 
L 303.223 222.623835 
L 306.578899 173.931787 
L 309.934798 208.527834 
L 313.290697 198.97061 
L 316.646596 83.001966 
L 320.002495 132.118693 
L 323.358394 188.366087 
L 326.714293 209.846273 
L 330.070192 197.507322 
L 333.426091 202.165462 
L 336.78199 174.076726 
L 340.137889 201.413401 
L 343.493788 216.254892 
L 346.849688 212.785734 
L 350.205587 218.174479 
L 353.561486 194.459332 
L 356.917385 205.337658 
L 360.273284 205.240569 
L 363.629183 189.22575 
L 366.985082 203.690327 
L 370.340981 200.787301 
L 373.69688 160.192979 
L 377.052779 215.957032 
L 380.408678 166.71091 
L 383.764577 194.495886 
L 387.120476 207.795487 
L 390.476375 190.784357 
L 393.832274 195.150064 
L 397.188173 218.369399 
L 400.544072 201.620236 
L 403.899971 205.615048 
L 407.25587 217.988885 
L 410.611769 215.360376 
L 413.967668 219.895535 
L 417.323567 212.205372 
L 420.679466 218.609437 
L 424.035365 239.009205 
L 427.391264 200.835078 
L 430.747163 226.826226 
L 434.103063 267.2633 
L 437.458962 320.755745 
L 440.814861 301.561699 
L 444.17076 236.528406 
L 447.526659 237.83625 
L 450.882558 280.046189 
L 454.238457 187.433449 
L 457.594356 167.928176 
L 460.950255 222.635971 
L 464.306154 335.464788 
L 467.662053 260.70539 
L 474.373851 125.082432 
L 477.72975 228.095857 
L 481.085649 260.368474 
L 484.441548 256.576369 
L 487.797447 245.411744 
L 491.153346 210.179834 
L 494.509245 130.710455 
L 497.865144 139.472553 
L 501.221043 217.910968 
L 504.576942 188.716803 
L 507.932841 226.356622 
L 511.28874 201.0017 
L 514.644639 287.380589 
L 518.000538 285.005986 
L 521.356437 245.973999 
L 524.712337 193.419545 
L 528.068236 189.062039 
L 531.424135 205.565814 
L 534.780034 222.630873 
L 538.135933 215.897047 
L 541.491832 217.513249 
L 544.847731 193.96928 
L 548.20363 160.508244 
L 551.559529 205.606873 
L 554.915428 214.086972 
L 558.271327 219.424276 
L 561.627226 247.181516 
L 564.983125 229.743757 
L 568.339024 227.930094 
L 571.694923 235.205347 
L 575.050822 246.289126 
L 578.406721 247.870541 
L 581.76262 236.215921 
L 585.118519 245.774492 
L 588.474418 243.979702 
L 591.830317 243.489843 
L 595.186216 235.821271 
L 598.542115 244.290182 
L 601.898014 244.056788 
L 605.253913 254.010687 
L 611.965712 238.340036 
L 615.321611 226.747372 
L 618.67751 219.290793 
L 622.033409 207.73937 
L 625.389308 185.783831 
L 628.745207 198.300635 
L 632.101106 202.846195 
L 635.457005 195.878162 
L 638.812904 197.774059 
L 642.168803 204.041924 
L 645.524702 199.788661 
L 648.880601 202.315705 
L 652.2365 196.721329 
L 655.592399 193.463749 
L 658.948298 196.392449 
L 662.304197 194.356523 
L 665.660096 190.796263 
L 669.015995 197.202533 
L 672.371894 178.072998 
L 675.727793 190.090612 
L 679.083692 197.046101 
L 682.439591 193.244707 
L 685.79549 201.408941 
L 689.151389 196.62457 
L 692.507288 194.619942 
L 695.863188 192.331916 
L 699.219087 195.623754 
L 702.574986 191.209705 
L 705.930885 192.591883 
L 709.286784 185.099657 
L 712.642683 174.674504 
L 715.998582 153.10938 
L 719.354481 168.843401 
L 722.71038 175.780301 
L 726.066279 150.118787 
L 729.422178 148.898255 
L 732.778077 163.588585 
L 736.133976 153.941639 
L 739.489875 170.087866 
L 742.845774 164.457319 
L 746.201673 135.18368 
L 749.557572 130.857382 
L 752.913471 129.258176 
L 756.26937 137.273144 
L 759.625269 146.994859 
L 762.981168 158.472032 
L 766.337067 159.952742 
L 769.692966 167.482163 
L 773.048865 167.028812 
L 776.404764 164.912015 
L 779.760663 169.934262 
L 783.116562 161.350196 
L 786.472462 164.083288 
L 789.828361 170.26068 
L 793.18426 172.593962 
L 796.540159 173.223097 
L 799.896058 180.760663 
L 803.251957 178.116753 
L 806.607856 176.775724 
L 809.963755 184.048745 
L 813.319654 171.660114 
L 816.675553 184.680513 
L 820.031452 184.349856 
L 823.387351 180.928641 
L 826.74325 186.18294 
L 830.099149 180.901118 
L 833.455048 177.463018 
L 836.810947 188.229109 
L 840.166846 191.546045 
L 843.522745 193.994602 
L 846.878644 189.8048 
L 850.234543 188.957274 
L 853.590442 188.947969 
L 860.30224 184.902252 
L 863.658139 190.50201 
L 867.014038 187.101115 
L 870.369937 186.073809 
L 873.725837 183.476078 
L 877.081736 184.061632 
L 880.437635 187.204937 
L 883.793534 185.844802 
L 887.149433 186.228199 
L 890.505332 189.406052 
L 893.861231 195.367814 
L 897.21713 188.468526 
L 900.573029 190.01799 
L 903.928928 194.610211 
L 907.284827 189.797761 
L 910.640726 199.521581 
L 913.996625 186.367716 
L 917.352524 187.349232 
L 920.708423 169.668547 
L 924.064322 160.063403 
L 927.420221 185.708215 
L 930.77612 176.841825 
L 934.132019 173.412024 
L 937.487918 128.872768 
L 940.843817 136.642235 
L 944.199716 145.800548 
L 947.555615 151.691065 
L 950.911514 90.188294 
L 954.267413 75.160777 
L 957.623312 112.857415 
L 960.979212 159.767638 
L 964.335111 150.263017 
L 967.69101 140.177415 
L 971.046909 147.415391 
L 974.402808 164.612147 
L 977.758707 166.9491 
L 981.114606 162.025457 
L 984.470505 163.342091 
L 987.826404 130.435265 
L 991.182303 159.470384 
L 994.538202 148.352974 
L 997.894101 153.796767 
L 1001.25 155.737483 
L 1001.25 155.737483 
" clip-path="url(#p6ac8df7c89)" style="fill: none; stroke: #d62728; stroke-width: 1.5; stroke-linecap: square"/>
   </g>
   <g id="line2d_52">
    <path d="M 128.71625 294.173575 
L 132.072149 279.88794 
L 135.428048 269.324577 
L 138.783947 273.831861 
L 142.139846 283.928487 
L 145.495745 285.417885 
L 148.851644 293.61159 
L 152.207543 283.284177 
L 155.563442 287.515013 
L 158.919341 316.196652 
L 162.27524 265.53069 
L 165.631139 272.200588 
L 168.987038 267.043095 
L 172.342938 273.453765 
L 175.698837 285.459197 
L 179.054736 275.878508 
L 182.410635 269.841097 
L 185.766534 300.768061 
L 189.122433 276.204466 
L 192.478332 276.771827 
L 195.834231 284.17764 
L 199.19013 283.326997 
L 202.546029 291.714983 
L 205.901928 288.838032 
L 209.257827 265.014353 
L 212.613726 277.391776 
L 215.969625 276.427982 
L 219.325524 278.387738 
L 222.681423 296.59312 
L 226.037322 283.298951 
L 229.393221 199.991644 
L 232.74912 249.105223 
L 236.105019 245.621439 
L 239.460918 293.308705 
L 242.816817 304.506505 
L 246.172716 284.527058 
L 249.528615 323.249258 
L 252.884514 308.70011 
L 256.240413 274.797195 
L 259.596312 278.900037 
L 262.952212 289.22521 
L 266.308111 297.145853 
L 269.66401 290.713694 
L 273.019909 285.050035 
L 276.375808 266.344242 
L 279.731707 206.356969 
L 283.087606 222.682629 
L 286.443505 279.842301 
L 289.799404 277.760184 
L 293.155303 253.908884 
L 299.867101 311.479841 
L 303.223 280.490686 
L 306.578899 371.216026 
L 309.934798 331.88173 
L 313.290697 346.935356 
L 316.646596 367.743607 
L 320.002495 310.786144 
L 323.358394 296.081998 
L 326.714293 314.355138 
L 330.070192 322.618655 
L 333.426091 308.763113 
L 336.78199 330.454813 
L 340.137889 269.96042 
L 343.493788 249.939866 
L 346.849688 312.176847 
L 350.205587 309.974511 
L 353.561486 346.338877 
L 356.917385 320.313718 
L 360.273284 316.160333 
L 363.629183 320.695284 
L 366.985082 321.253829 
L 370.340981 323.846411 
L 373.69688 359.898809 
L 377.052779 324.211698 
L 380.408678 373.560366 
L 383.764577 301.828948 
L 387.120476 320.19379 
L 390.476375 326.306069 
L 393.832274 315.758772 
L 397.188173 345.288824 
L 400.544072 358.458025 
L 403.899971 348.599682 
L 407.25587 348.88415 
L 410.611769 324.132033 
L 413.967668 359.942187 
L 417.323567 355.243382 
L 420.679466 364.62615 
L 424.035365 357.074389 
L 427.391264 385.587318 
L 430.747163 379.907898 
L 434.103063 341.324238 
L 437.458962 392.359663 
L 440.814861 378.005131 
L 444.17076 313.21049 
L 447.526659 457.596149 
L 450.882558 278.429126 
L 454.238457 351.634462 
L 457.594356 352.617154 
L 460.950255 235.046476 
L 464.306154 302.455684 
L 467.662053 210.846152 
L 471.017952 332.495812 
L 474.373851 349.095109 
L 477.72975 310.56154 
L 481.085649 268.965963 
L 484.441548 296.015277 
L 487.797447 308.431055 
L 491.153346 288.688294 
L 494.509245 340.72448 
L 497.865144 280.654781 
L 501.221043 293.915415 
L 504.576942 217.660076 
L 507.932841 252.841369 
L 511.28874 221.653107 
L 514.644639 161.224552 
L 518.000538 130.740479 
L 521.356437 184.367635 
L 524.712337 216.848186 
L 528.068236 189.498819 
L 531.424135 175.227332 
L 534.780034 195.281059 
L 538.135933 229.644862 
L 541.491832 220.533998 
L 544.847731 242.942857 
L 548.20363 224.277671 
L 551.559529 213.101383 
L 554.915428 221.488414 
L 558.271327 199.03863 
L 561.627226 202.327148 
L 564.983125 201.975364 
L 568.339024 196.651969 
L 571.694923 193.0879 
L 575.050822 180.920532 
L 578.406721 184.692985 
L 581.76262 196.45304 
L 585.118519 179.60495 
L 588.474418 196.665689 
L 591.830317 182.564371 
L 595.186216 190.738346 
L 598.542115 203.036565 
L 601.898014 181.125521 
L 605.253913 203.546945 
L 608.609812 221.666747 
L 611.965712 221.841135 
L 615.321611 228.794779 
L 618.67751 242.515256 
L 622.033409 253.506773 
L 625.389308 256.473466 
L 628.745207 269.997324 
L 632.101106 273.60943 
L 635.457005 284.876687 
L 638.812904 286.811168 
L 642.168803 292.480943 
L 645.524702 304.707734 
L 648.880601 302.565832 
L 652.2365 297.108105 
L 655.592399 300.623076 
L 658.948298 300.674362 
L 662.304197 305.369532 
L 665.660096 312.889894 
L 669.015995 317.618275 
L 672.371894 353.033507 
L 675.727793 325.867969 
L 679.083692 307.459291 
L 682.439591 311.456812 
L 685.79549 307.225496 
L 689.151389 308.722971 
L 692.507288 309.279332 
L 695.863188 309.67887 
L 699.219087 312.77573 
L 705.930885 314.235861 
L 709.286784 319.57678 
L 712.642683 330.542372 
L 715.998582 377.644307 
L 719.354481 388.145708 
L 722.71038 377.158075 
L 726.066279 385.55879 
L 729.422178 400.280389 
L 732.778077 374.538689 
L 736.133976 376.281499 
L 739.489875 365.473702 
L 742.845774 369.448496 
L 746.201673 394.217404 
L 749.557572 390.04937 
L 752.913471 405.141617 
L 756.26937 397.618849 
L 759.625269 387.883381 
L 762.981168 376.815701 
L 766.337067 376.577067 
L 769.692966 369.216509 
L 773.048865 362.851924 
L 776.404764 363.618227 
L 779.760663 363.485689 
L 783.116562 367.319704 
L 786.472462 359.45894 
L 789.828361 350.200904 
L 793.18426 350.34141 
L 796.540159 348.414107 
L 799.896058 347.137207 
L 803.251957 353.269158 
L 806.607856 355.057035 
L 809.963755 354.659942 
L 813.319654 390.10467 
L 816.675553 356.79244 
L 820.031452 357.269125 
L 823.387351 363.280206 
L 826.74325 359.050678 
L 830.099149 364.791875 
L 833.455048 371.687111 
L 836.810947 351.001533 
L 840.166846 350.078753 
L 843.522745 347.091247 
L 846.878644 347.600644 
L 850.234543 347.872993 
L 853.590442 349.221856 
L 856.946341 352.91858 
L 860.30224 357.40149 
L 863.658139 351.482691 
L 867.014038 346.954268 
L 870.369937 356.847598 
L 873.725837 358.334364 
L 880.437635 357.220263 
L 883.793534 352.346891 
L 887.149433 350.739271 
L 893.861231 352.023953 
L 897.21713 353.366121 
L 900.573029 343.726585 
L 903.928928 336.286196 
L 907.284827 347.47911 
L 910.640726 339.120767 
L 913.996625 349.003469 
L 917.352524 344.169492 
L 924.064322 366.979744 
L 927.420221 342.537122 
L 930.77612 342.31393 
L 934.132019 307.643234 
L 937.487918 305.468008 
L 940.843817 287.138744 
L 944.199716 331.805682 
L 947.555615 330.510313 
L 950.911514 355.714286 
L 954.267413 360.903685 
L 957.623312 329.297914 
L 960.979212 343.080063 
L 964.335111 347.078698 
L 967.69101 338.778128 
L 971.046909 340.291314 
L 974.402808 325.679047 
L 977.758707 309.880911 
L 981.114606 322.996217 
L 984.470505 320.572775 
L 987.826404 347.730855 
L 991.182303 320.612449 
L 994.538202 321.798199 
L 997.894101 314.491561 
L 1001.25 325.886485 
L 1001.25 325.886485 
" clip-path="url(#p6ac8df7c89)" style="fill: none; stroke: #9467bd; stroke-width: 1.5; stroke-linecap: square"/>
   </g>
   <g id="patch_3">
    <path d="M 128.71625 507.829583 
L 128.71625 54.5575 
" style="fill: none; stroke: #000000; stroke-width: 0.8; stroke-linejoin: miter; stroke-linecap: square"/>
   </g>
   <g id="patch_4">
    <path d="M 1001.25 507.829583 
L 1001.25 54.5575 
" style="fill: none; stroke: #000000; stroke-width: 0.8; stroke-linejoin: miter; stroke-linecap: square"/>
   </g>
   <g id="patch_5">
    <path d="M 128.71625 507.829583 
L 1001.25 507.829583 
" style="fill: none; stroke: #000000; stroke-width: 0.8; stroke-linejoin: miter; stroke-linecap: square"/>
   </g>
   <g id="patch_6">
    <path d="M 128.71625 54.5575 
L 1001.25 54.5575 
" style="fill: none; stroke: #000000; stroke-width: 0.8; stroke-linejoin: miter; stroke-linecap: square"/>
   </g>
   <g id="text_15">
    <!-- Optimized weights over time -->
    <g transform="translate(405.988437 48.5575) scale(0.22 -0.22)">
     <defs>
      <path id="DejaVuSans-4f" d="M 2522 4238 
Q 1834 4238 1429 3725 
Q 1025 3213 1025 2328 
Q 1025 1447 1429 934 
Q 1834 422 2522 422 
Q 3209 422 3611 934 
Q 4013 1447 4013 2328 
Q 4013 3213 3611 3725 
Q 3209 4238 2522 4238 
z
M 2522 4750 
Q 3503 4750 4090 4092 
Q 4678 3434 4678 2328 
Q 4678 1225 4090 567 
Q 3503 -91 2522 -91 
Q 1538 -91 948 565 
Q 359 1222 359 2328 
Q 359 3434 948 4092 
Q 1538 4750 2522 4750 
z
" transform="scale(0.015625)"/>
      <path id="DejaVuSans-70" d="M 1159 525 
L 1159 -1331 
L 581 -1331 
L 581 3500 
L 1159 3500 
L 1159 2969 
Q 1341 3281 1617 3432 
Q 1894 3584 2278 3584 
Q 2916 3584 3314 3078 
Q 3713 2572 3713 1747 
Q 3713 922 3314 415 
Q 2916 -91 2278 -91 
Q 1894 -91 1617 61 
Q 1341 213 1159 525 
z
M 3116 1747 
Q 3116 2381 2855 2742 
Q 2594 3103 2138 3103 
Q 1681 3103 1420 2742 
Q 1159 2381 1159 1747 
Q 1159 1113 1420 752 
Q 1681 391 2138 391 
Q 2594 391 2855 752 
Q 3116 1113 3116 1747 
z
" transform="scale(0.015625)"/>
      <path id="DejaVuSans-74" d="M 1172 4494 
L 1172 3500 
L 2356 3500 
L 2356 3053 
L 1172 3053 
L 1172 1153 
Q 1172 725 1289 603 
Q 1406 481 1766 481 
L 2356 481 
L 2356 0 
L 1766 0 
Q 1100 0 847 248 
Q 594 497 594 1153 
L 594 3053 
L 172 3053 
L 172 3500 
L 594 3500 
L 594 4494 
L 1172 4494 
z
" transform="scale(0.015625)"/>
      <path id="DejaVuSans-69" d="M 603 3500 
L 1178 3500 
L 1178 0 
L 603 0 
L 603 3500 
z
M 603 4863 
L 1178 4863 
L 1178 4134 
L 603 4134 
L 603 4863 
z
" transform="scale(0.015625)"/>
      <path id="DejaVuSans-6d" d="M 3328 2828 
Q 3544 3216 3844 3400 
Q 4144 3584 4550 3584 
Q 5097 3584 5394 3201 
Q 5691 2819 5691 2113 
L 5691 0 
L 5113 0 
L 5113 2094 
Q 5113 2597 4934 2840 
Q 4756 3084 4391 3084 
Q 3944 3084 3684 2787 
Q 3425 2491 3425 1978 
L 3425 0 
L 2847 0 
L 2847 2094 
Q 2847 2600 2669 2842 
Q 2491 3084 2119 3084 
Q 1678 3084 1418 2786 
Q 1159 2488 1159 1978 
L 1159 0 
L 581 0 
L 581 3500 
L 1159 3500 
L 1159 2956 
Q 1356 3278 1631 3431 
Q 1906 3584 2284 3584 
Q 2666 3584 2933 3390 
Q 3200 3197 3328 2828 
z
" transform="scale(0.015625)"/>
      <path id="DejaVuSans-7a" d="M 353 3500 
L 3084 3500 
L 3084 2975 
L 922 459 
L 3084 459 
L 3084 0 
L 275 0 
L 275 525 
L 2438 3041 
L 353 3041 
L 353 3500 
z
" transform="scale(0.015625)"/>
      <path id="DejaVuSans-65" d="M 3597 1894 
L 3597 1613 
L 953 1613 
Q 991 1019 1311 708 
Q 1631 397 2203 397 
Q 2534 397 2845 478 
Q 3156 559 3463 722 
L 3463 178 
Q 3153 47 2828 -22 
Q 2503 -91 2169 -91 
Q 1331 -91 842 396 
Q 353 884 353 1716 
Q 353 2575 817 3079 
Q 1281 3584 2069 3584 
Q 2775 3584 3186 3129 
Q 3597 2675 3597 1894 
z
M 3022 2063 
Q 3016 2534 2758 2815 
Q 2500 3097 2075 3097 
Q 1594 3097 1305 2825 
Q 1016 2553 972 2059 
L 3022 2063 
z
" transform="scale(0.015625)"/>
      <path id="DejaVuSans-64" d="M 2906 2969 
L 2906 4863 
L 3481 4863 
L 3481 0 
L 2906 0 
L 2906 525 
Q 2725 213 2448 61 
Q 2172 -91 1784 -91 
Q 1150 -91 751 415 
Q 353 922 353 1747 
Q 353 2572 751 3078 
Q 1150 3584 1784 3584 
Q 2172 3584 2448 3432 
Q 2725 3281 2906 2969 
z
M 947 1747 
Q 947 1113 1208 752 
Q 1469 391 1925 391 
Q 2381 391 2643 752 
Q 2906 1113 2906 1747 
Q 2906 2381 2643 2742 
Q 2381 3103 1925 3103 
Q 1469 3103 1208 2742 
Q 947 2381 947 1747 
z
" transform="scale(0.015625)"/>
      <path id="DejaVuSans-20" transform="scale(0.015625)"/>
      <path id="DejaVuSans-77" d="M 269 3500 
L 844 3500 
L 1563 769 
L 2278 3500 
L 2956 3500 
L 3675 769 
L 4391 3500 
L 4966 3500 
L 4050 0 
L 3372 0 
L 2619 2869 
L 1863 0 
L 1184 0 
L 269 3500 
z
" transform="scale(0.015625)"/>
      <path id="DejaVuSans-67" d="M 2906 1791 
Q 2906 2416 2648 2759 
Q 2391 3103 1925 3103 
Q 1463 3103 1205 2759 
Q 947 2416 947 1791 
Q 947 1169 1205 825 
Q 1463 481 1925 481 
Q 2391 481 2648 825 
Q 2906 1169 2906 1791 
z
M 3481 434 
Q 3481 -459 3084 -895 
Q 2688 -1331 1869 -1331 
Q 1566 -1331 1297 -1286 
Q 1028 -1241 775 -1147 
L 775 -588 
Q 1028 -725 1275 -790 
Q 1522 -856 1778 -856 
Q 2344 -856 2625 -561 
Q 2906 -266 2906 331 
L 2906 616 
Q 2728 306 2450 153 
Q 2172 0 1784 0 
Q 1141 0 747 490 
Q 353 981 353 1791 
Q 353 2603 747 3093 
Q 1141 3584 1784 3584 
Q 2172 3584 2450 3431 
Q 2728 3278 2906 2969 
L 2906 3500 
L 3481 3500 
L 3481 434 
z
" transform="scale(0.015625)"/>
      <path id="DejaVuSans-68" d="M 3513 2113 
L 3513 0 
L 2938 0 
L 2938 2094 
Q 2938 2591 2744 2837 
Q 2550 3084 2163 3084 
Q 1697 3084 1428 2787 
Q 1159 2491 1159 1978 
L 1159 0 
L 581 0 
L 581 4863 
L 1159 4863 
L 1159 2956 
Q 1366 3272 1645 3428 
Q 1925 3584 2291 3584 
Q 2894 3584 3203 3211 
Q 3513 2838 3513 2113 
z
" transform="scale(0.015625)"/>
      <path id="DejaVuSans-73" d="M 2834 3397 
L 2834 2853 
Q 2591 2978 2328 3040 
Q 2066 3103 1784 3103 
Q 1356 3103 1142 2972 
Q 928 2841 928 2578 
Q 928 2378 1081 2264 
Q 1234 2150 1697 2047 
L 1894 2003 
Q 2506 1872 2764 1633 
Q 3022 1394 3022 966 
Q 3022 478 2636 193 
Q 2250 -91 1575 -91 
Q 1294 -91 989 -36 
Q 684 19 347 128 
L 347 722 
Q 666 556 975 473 
Q 1284 391 1588 391 
Q 1994 391 2212 530 
Q 2431 669 2431 922 
Q 2431 1156 2273 1281 
Q 2116 1406 1581 1522 
L 1381 1569 
Q 847 1681 609 1914 
Q 372 2147 372 2553 
Q 372 3047 722 3315 
Q 1072 3584 1716 3584 
Q 2034 3584 2315 3537 
Q 2597 3491 2834 3397 
z
" transform="scale(0.015625)"/>
      <path id="DejaVuSans-6f" d="M 1959 3097 
Q 1497 3097 1228 2736 
Q 959 2375 959 1747 
Q 959 1119 1226 758 
Q 1494 397 1959 397 
Q 2419 397 2687 759 
Q 2956 1122 2956 1747 
Q 2956 2369 2687 2733 
Q 2419 3097 1959 3097 
z
M 1959 3584 
Q 2709 3584 3137 3096 
Q 3566 2609 3566 1747 
Q 3566 888 3137 398 
Q 2709 -91 1959 -91 
Q 1206 -91 779 398 
Q 353 888 353 1747 
Q 353 2609 779 3096 
Q 1206 3584 1959 3584 
z
" transform="scale(0.015625)"/>
      <path id="DejaVuSans-76" d="M 191 3500 
L 800 3500 
L 1894 563 
L 2988 3500 
L 3597 3500 
L 2284 0 
L 1503 0 
L 191 3500 
z
" transform="scale(0.015625)"/>
      <path id="DejaVuSans-72" d="M 2631 2963 
Q 2534 3019 2420 3045 
Q 2306 3072 2169 3072 
Q 1681 3072 1420 2755 
Q 1159 2438 1159 1844 
L 1159 0 
L 581 0 
L 581 3500 
L 1159 3500 
L 1159 2956 
Q 1341 3275 1631 3429 
Q 1922 3584 2338 3584 
Q 2397 3584 2469 3576 
Q 2541 3569 2628 3553 
L 2631 2963 
z
" transform="scale(0.015625)"/>
     </defs>
     <use xlink:href="#DejaVuSans-4f"/>
     <use xlink:href="#DejaVuSans-70" x="78.710938"/>
     <use xlink:href="#DejaVuSans-74" x="142.1875"/>
     <use xlink:href="#DejaVuSans-69" x="181.396484"/>
     <use xlink:href="#DejaVuSans-6d" x="209.179688"/>
     <use xlink:href="#DejaVuSans-69" x="306.591797"/>
     <use xlink:href="#DejaVuSans-7a" x="334.375"/>
     <use xlink:href="#DejaVuSans-65" x="386.865234"/>
     <use xlink:href="#DejaVuSans-64" x="448.388672"/>
     <use xlink:href="#DejaVuSans-20" x="511.865234"/>
     <use xlink:href="#DejaVuSans-77" x="543.652344"/>
     <use xlink:href="#DejaVuSans-65" x="625.439453"/>
     <use xlink:href="#DejaVuSans-69" x="686.962891"/>
     <use xlink:href="#DejaVuSans-67" x="714.746094"/>
     <use xlink:href="#DejaVuSans-68" x="778.222656"/>
     <use xlink:href="#DejaVuSans-74" x="841.601562"/>
     <use xlink:href="#DejaVuSans-73" x="880.810547"/>
     <use xlink:href="#DejaVuSans-20" x="932.910156"/>
     <use xlink:href="#DejaVuSans-6f" x="964.697266"/>
     <use xlink:href="#DejaVuSans-76" x="1025.878906"/>
     <use xlink:href="#DejaVuSans-65" x="1085.058594"/>
     <use xlink:href="#DejaVuSans-72" x="1146.582031"/>
     <use xlink:href="#DejaVuSans-20" x="1187.695312"/>
     <use xlink:href="#DejaVuSans-74" x="1219.482422"/>
     <use xlink:href="#DejaVuSans-69" x="1258.691406"/>
     <use xlink:href="#DejaVuSans-6d" x="1286.474609"/>
     <use xlink:href="#DejaVuSans-65" x="1383.886719"/>
    </g>
   </g>
   <g id="legend_1">
    <g id="patch_7">
     <path d="M 840.604687 502.829583 
L 994.25 502.829583 
Q 996.25 502.829583 996.25 500.829583 
L 996.25 428.438958 
Q 996.25 426.438958 994.25 426.438958 
L 840.604687 426.438958 
Q 838.604687 426.438958 838.604687 428.438958 
L 838.604687 500.829583 
Q 838.604687 502.829583 840.604687 502.829583 
z
" style="fill: #ffffff; opacity: 0.8; stroke: #cccccc; stroke-linejoin: miter"/>
    </g>
    <g id="line2d_53">
     <path d="M 842.604687 434.537396 
L 852.604687 434.537396 
L 862.604687 434.537396 
" style="fill: none; stroke: #1f77b4; stroke-width: 1.5; stroke-linecap: square"/>
    </g>
    <g id="text_16">
     <!-- Indice Azionario Paese 1 -->
     <g transform="translate(870.604687 438.037396) scale(0.1 -0.1)">
      <defs>
       <path id="DejaVuSans-49" d="M 628 4666 
L 1259 4666 
L 1259 0 
L 628 0 
L 628 4666 
z
" transform="scale(0.015625)"/>
       <path id="DejaVuSans-6e" d="M 3513 2113 
L 3513 0 
L 2938 0 
L 2938 2094 
Q 2938 2591 2744 2837 
Q 2550 3084 2163 3084 
Q 1697 3084 1428 2787 
Q 1159 2491 1159 1978 
L 1159 0 
L 581 0 
L 581 3500 
L 1159 3500 
L 1159 2956 
Q 1366 3272 1645 3428 
Q 1925 3584 2291 3584 
Q 2894 3584 3203 3211 
Q 3513 2838 3513 2113 
z
" transform="scale(0.015625)"/>
       <path id="DejaVuSans-63" d="M 3122 3366 
L 3122 2828 
Q 2878 2963 2633 3030 
Q 2388 3097 2138 3097 
Q 1578 3097 1268 2742 
Q 959 2388 959 1747 
Q 959 1106 1268 751 
Q 1578 397 2138 397 
Q 2388 397 2633 464 
Q 2878 531 3122 666 
L 3122 134 
Q 2881 22 2623 -34 
Q 2366 -91 2075 -91 
Q 1284 -91 818 406 
Q 353 903 353 1747 
Q 353 2603 823 3093 
Q 1294 3584 2113 3584 
Q 2378 3584 2631 3529 
Q 2884 3475 3122 3366 
z
" transform="scale(0.015625)"/>
       <path id="DejaVuSans-41" d="M 2188 4044 
L 1331 1722 
L 3047 1722 
L 2188 4044 
z
M 1831 4666 
L 2547 4666 
L 4325 0 
L 3669 0 
L 3244 1197 
L 1141 1197 
L 716 0 
L 50 0 
L 1831 4666 
z
" transform="scale(0.015625)"/>
       <path id="DejaVuSans-61" d="M 2194 1759 
Q 1497 1759 1228 1600 
Q 959 1441 959 1056 
Q 959 750 1161 570 
Q 1363 391 1709 391 
Q 2188 391 2477 730 
Q 2766 1069 2766 1631 
L 2766 1759 
L 2194 1759 
z
M 3341 1997 
L 3341 0 
L 2766 0 
L 2766 531 
Q 2569 213 2275 61 
Q 1981 -91 1556 -91 
Q 1019 -91 701 211 
Q 384 513 384 1019 
Q 384 1609 779 1909 
Q 1175 2209 1959 2209 
L 2766 2209 
L 2766 2266 
Q 2766 2663 2505 2880 
Q 2244 3097 1772 3097 
Q 1472 3097 1187 3025 
Q 903 2953 641 2809 
L 641 3341 
Q 956 3463 1253 3523 
Q 1550 3584 1831 3584 
Q 2591 3584 2966 3190 
Q 3341 2797 3341 1997 
z
" transform="scale(0.015625)"/>
       <path id="DejaVuSans-50" d="M 1259 4147 
L 1259 2394 
L 2053 2394 
Q 2494 2394 2734 2622 
Q 2975 2850 2975 3272 
Q 2975 3691 2734 3919 
Q 2494 4147 2053 4147 
L 1259 4147 
z
M 628 4666 
L 2053 4666 
Q 2838 4666 3239 4311 
Q 3641 3956 3641 3272 
Q 3641 2581 3239 2228 
Q 2838 1875 2053 1875 
L 1259 1875 
L 1259 0 
L 628 0 
L 628 4666 
z
" transform="scale(0.015625)"/>
      </defs>
      <use xlink:href="#DejaVuSans-49"/>
      <use xlink:href="#DejaVuSans-6e" x="29.492188"/>
      <use xlink:href="#DejaVuSans-64" x="92.871094"/>
      <use xlink:href="#DejaVuSans-69" x="156.347656"/>
      <use xlink:href="#DejaVuSans-63" x="184.130859"/>
      <use xlink:href="#DejaVuSans-65" x="239.111328"/>
      <use xlink:href="#DejaVuSans-20" x="300.634766"/>
      <use xlink:href="#DejaVuSans-41" x="332.421875"/>
      <use xlink:href="#DejaVuSans-7a" x="400.830078"/>
      <use xlink:href="#DejaVuSans-69" x="453.320312"/>
      <use xlink:href="#DejaVuSans-6f" x="481.103516"/>
      <use xlink:href="#DejaVuSans-6e" x="542.285156"/>
      <use xlink:href="#DejaVuSans-61" x="605.664062"/>
      <use xlink:href="#DejaVuSans-72" x="666.943359"/>
      <use xlink:href="#DejaVuSans-69" x="708.056641"/>
      <use xlink:href="#DejaVuSans-6f" x="735.839844"/>
      <use xlink:href="#DejaVuSans-20" x="797.021484"/>
      <use xlink:href="#DejaVuSans-50" x="828.808594"/>
      <use xlink:href="#DejaVuSans-61" x="884.611328"/>
      <use xlink:href="#DejaVuSans-65" x="945.890625"/>
      <use xlink:href="#DejaVuSans-73" x="1007.414062"/>
      <use xlink:href="#DejaVuSans-65" x="1059.513672"/>
      <use xlink:href="#DejaVuSans-20" x="1121.037109"/>
      <use xlink:href="#DejaVuSans-31" x="1152.824219"/>
     </g>
    </g>
    <g id="line2d_54">
     <path d="M 842.604687 449.215521 
L 852.604687 449.215521 
L 862.604687 449.215521 
" style="fill: none; stroke: #ff7f0e; stroke-width: 1.5; stroke-linecap: square"/>
    </g>
    <g id="text_17">
     <!-- Indice Azionario Paese 2 -->
     <g transform="translate(870.604687 452.715521) scale(0.1 -0.1)">
      <use xlink:href="#DejaVuSans-49"/>
      <use xlink:href="#DejaVuSans-6e" x="29.492188"/>
      <use xlink:href="#DejaVuSans-64" x="92.871094"/>
      <use xlink:href="#DejaVuSans-69" x="156.347656"/>
      <use xlink:href="#DejaVuSans-63" x="184.130859"/>
      <use xlink:href="#DejaVuSans-65" x="239.111328"/>
      <use xlink:href="#DejaVuSans-20" x="300.634766"/>
      <use xlink:href="#DejaVuSans-41" x="332.421875"/>
      <use xlink:href="#DejaVuSans-7a" x="400.830078"/>
      <use xlink:href="#DejaVuSans-69" x="453.320312"/>
      <use xlink:href="#DejaVuSans-6f" x="481.103516"/>
      <use xlink:href="#DejaVuSans-6e" x="542.285156"/>
      <use xlink:href="#DejaVuSans-61" x="605.664062"/>
      <use xlink:href="#DejaVuSans-72" x="666.943359"/>
      <use xlink:href="#DejaVuSans-69" x="708.056641"/>
      <use xlink:href="#DejaVuSans-6f" x="735.839844"/>
      <use xlink:href="#DejaVuSans-20" x="797.021484"/>
      <use xlink:href="#DejaVuSans-50" x="828.808594"/>
      <use xlink:href="#DejaVuSans-61" x="884.611328"/>
      <use xlink:href="#DejaVuSans-65" x="945.890625"/>
      <use xlink:href="#DejaVuSans-73" x="1007.414062"/>
      <use xlink:href="#DejaVuSans-65" x="1059.513672"/>
      <use xlink:href="#DejaVuSans-20" x="1121.037109"/>
      <use xlink:href="#DejaVuSans-32" x="1152.824219"/>
     </g>
    </g>
    <g id="line2d_55">
     <path d="M 842.604687 463.893646 
L 852.604687 463.893646 
L 862.604687 463.893646 
" style="fill: none; stroke: #2ca02c; stroke-width: 1.5; stroke-linecap: square"/>
    </g>
    <g id="text_18">
     <!-- Indice Azionario Paese 3 -->
     <g transform="translate(870.604687 467.393646) scale(0.1 -0.1)">
      <use xlink:href="#DejaVuSans-49"/>
      <use xlink:href="#DejaVuSans-6e" x="29.492188"/>
      <use xlink:href="#DejaVuSans-64" x="92.871094"/>
      <use xlink:href="#DejaVuSans-69" x="156.347656"/>
      <use xlink:href="#DejaVuSans-63" x="184.130859"/>
      <use xlink:href="#DejaVuSans-65" x="239.111328"/>
      <use xlink:href="#DejaVuSans-20" x="300.634766"/>
      <use xlink:href="#DejaVuSans-41" x="332.421875"/>
      <use xlink:href="#DejaVuSans-7a" x="400.830078"/>
      <use xlink:href="#DejaVuSans-69" x="453.320312"/>
      <use xlink:href="#DejaVuSans-6f" x="481.103516"/>
      <use xlink:href="#DejaVuSans-6e" x="542.285156"/>
      <use xlink:href="#DejaVuSans-61" x="605.664062"/>
      <use xlink:href="#DejaVuSans-72" x="666.943359"/>
      <use xlink:href="#DejaVuSans-69" x="708.056641"/>
      <use xlink:href="#DejaVuSans-6f" x="735.839844"/>
      <use xlink:href="#DejaVuSans-20" x="797.021484"/>
      <use xlink:href="#DejaVuSans-50" x="828.808594"/>
      <use xlink:href="#DejaVuSans-61" x="884.611328"/>
      <use xlink:href="#DejaVuSans-65" x="945.890625"/>
      <use xlink:href="#DejaVuSans-73" x="1007.414062"/>
      <use xlink:href="#DejaVuSans-65" x="1059.513672"/>
      <use xlink:href="#DejaVuSans-20" x="1121.037109"/>
      <use xlink:href="#DejaVuSans-33" x="1152.824219"/>
     </g>
    </g>
    <g id="line2d_56">
     <path d="M 842.604687 478.571771 
L 852.604687 478.571771 
L 862.604687 478.571771 
" style="fill: none; stroke: #d62728; stroke-width: 1.5; stroke-linecap: square"/>
    </g>
    <g id="text_19">
     <!-- Indice Azionario Paese 4 -->
     <g transform="translate(870.604687 482.071771) scale(0.1 -0.1)">
      <use xlink:href="#DejaVuSans-49"/>
      <use xlink:href="#DejaVuSans-6e" x="29.492188"/>
      <use xlink:href="#DejaVuSans-64" x="92.871094"/>
      <use xlink:href="#DejaVuSans-69" x="156.347656"/>
      <use xlink:href="#DejaVuSans-63" x="184.130859"/>
      <use xlink:href="#DejaVuSans-65" x="239.111328"/>
      <use xlink:href="#DejaVuSans-20" x="300.634766"/>
      <use xlink:href="#DejaVuSans-41" x="332.421875"/>
      <use xlink:href="#DejaVuSans-7a" x="400.830078"/>
      <use xlink:href="#DejaVuSans-69" x="453.320312"/>
      <use xlink:href="#DejaVuSans-6f" x="481.103516"/>
      <use xlink:href="#DejaVuSans-6e" x="542.285156"/>
      <use xlink:href="#DejaVuSans-61" x="605.664062"/>
      <use xlink:href="#DejaVuSans-72" x="666.943359"/>
      <use xlink:href="#DejaVuSans-69" x="708.056641"/>
      <use xlink:href="#DejaVuSans-6f" x="735.839844"/>
      <use xlink:href="#DejaVuSans-20" x="797.021484"/>
      <use xlink:href="#DejaVuSans-50" x="828.808594"/>
      <use xlink:href="#DejaVuSans-61" x="884.611328"/>
      <use xlink:href="#DejaVuSans-65" x="945.890625"/>
      <use xlink:href="#DejaVuSans-73" x="1007.414062"/>
      <use xlink:href="#DejaVuSans-65" x="1059.513672"/>
      <use xlink:href="#DejaVuSans-20" x="1121.037109"/>
      <use xlink:href="#DejaVuSans-34" x="1152.824219"/>
     </g>
    </g>
    <g id="line2d_57">
     <path d="M 842.604687 493.249896 
L 852.604687 493.249896 
L 862.604687 493.249896 
" style="fill: none; stroke: #9467bd; stroke-width: 1.5; stroke-linecap: square"/>
    </g>
    <g id="text_20">
     <!-- Indice Azionario Paese 5 -->
     <g transform="translate(870.604687 496.749896) scale(0.1 -0.1)">
      <defs>
       <path id="DejaVuSans-35" d="M 691 4666 
L 3169 4666 
L 3169 4134 
L 1269 4134 
L 1269 2991 
Q 1406 3038 1543 3061 
Q 1681 3084 1819 3084 
Q 2600 3084 3056 2656 
Q 3513 2228 3513 1497 
Q 3513 744 3044 326 
Q 2575 -91 1722 -91 
Q 1428 -91 1123 -41 
Q 819 9 494 109 
L 494 744 
Q 775 591 1075 516 
Q 1375 441 1709 441 
Q 2250 441 2565 725 
Q 2881 1009 2881 1497 
Q 2881 1984 2565 2268 
Q 2250 2553 1709 2553 
Q 1456 2553 1204 2497 
Q 953 2441 691 2322 
L 691 4666 
z
" transform="scale(0.015625)"/>
      </defs>
      <use xlink:href="#DejaVuSans-49"/>
      <use xlink:href="#DejaVuSans-6e" x="29.492188"/>
      <use xlink:href="#DejaVuSans-64" x="92.871094"/>
      <use xlink:href="#DejaVuSans-69" x="156.347656"/>
      <use xlink:href="#DejaVuSans-63" x="184.130859"/>
      <use xlink:href="#DejaVuSans-65" x="239.111328"/>
      <use xlink:href="#DejaVuSans-20" x="300.634766"/>
      <use xlink:href="#DejaVuSans-41" x="332.421875"/>
      <use xlink:href="#DejaVuSans-7a" x="400.830078"/>
      <use xlink:href="#DejaVuSans-69" x="453.320312"/>
      <use xlink:href="#DejaVuSans-6f" x="481.103516"/>
      <use xlink:href="#DejaVuSans-6e" x="542.285156"/>
      <use xlink:href="#DejaVuSans-61" x="605.664062"/>
      <use xlink:href="#DejaVuSans-72" x="666.943359"/>
      <use xlink:href="#DejaVuSans-69" x="708.056641"/>
      <use xlink:href="#DejaVuSans-6f" x="735.839844"/>
      <use xlink:href="#DejaVuSans-20" x="797.021484"/>
      <use xlink:href="#DejaVuSans-50" x="828.808594"/>
      <use xlink:href="#DejaVuSans-61" x="884.611328"/>
      <use xlink:href="#DejaVuSans-65" x="945.890625"/>
      <use xlink:href="#DejaVuSans-73" x="1007.414062"/>
      <use xlink:href="#DejaVuSans-65" x="1059.513672"/>
      <use xlink:href="#DejaVuSans-20" x="1121.037109"/>
      <use xlink:href="#DejaVuSans-35" x="1152.824219"/>
     </g>
    </g>
   </g>
  </g>
 </g>
 <defs>
  <clipPath id="p6ac8df7c89">
   <rect x="128.71625" y="54.5575" width="872.53375" height="453.272083"/>
  </clipPath>
 </defs>
</svg>
