<?xml version="1.0" encoding="utf-8" standalone="no"?>
<!DOCTYPE svg PUBLIC "-//W3C//DTD SVG 1.1//EN"
  "http://www.w3.org/Graphics/SVG/1.1/DTD/svg11.dtd">
<svg xmlns:xlink="http://www.w3.org/1999/xlink" width="1175.04pt" height="696.24pt" viewBox="0 0 1175.04 696.24" xmlns="http://www.w3.org/2000/svg" version="1.1">
 <metadata>
  <rdf:RDF xmlns:dc="http://purl.org/dc/elements/1.1/" xmlns:cc="http://creativecommons.org/ns#" xmlns:rdf="http://www.w3.org/1999/02/22-rdf-syntax-ns#">
   <cc:Work>
    <dc:type rdf:resource="http://purl.org/dc/dcmitype/StillImage"/>
    <dc:date>1980-01-01T00:00:00+00:00</dc:date>
    <dc:format>image/svg+xml</dc:format>
    <dc:creator>
     <cc:Agent>
      <dc:title>Matplotlib v3.8.4, https://matplotlib.org/</dc:title>
     </cc:Agent>
    </dc:creator>
   </cc:Work>
  </rdf:RDF>
 </metadata>
 <defs>
  <style type="text/css">*{stroke-linejoin: round; stroke-linecap: butt}</style>
 </defs>
 <g id="figure_1">
  <g id="patch_1">
   <path d="M 0 696.24 
L 1175.04 696.24 
L 1175.04 0 
L 0 0 
z
" style="fill: #ffffff"/>
  </g>
  <g id="axes_1">
   <g id="patch_2">
    <path d="M 147.5175 625.568417 
L 1136.885325 625.568417 
L 1136.885325 67.2065 
L 147.5175 67.2065 
z
" style="fill: #ffffff"/>
   </g>
   <g id="matplotlib.axis_1">
    <g id="xtick_1">
     <g id="line2d_1">
      <path d="M 214.856671 625.568417 
L 214.856671 67.2065 
" clip-path="url(#pf82cfc7f65)" style="fill: none; stroke: #b0b0b0; stroke-width: 0.8; stroke-linecap: square"/>
     </g>
     <g id="line2d_2">
      <defs>
       <path id="m15ff14a7ba" d="M 0 0 
L 0 3.5 
" style="stroke: #000000; stroke-width: 0.8"/>
      </defs>
      <g>
       <use xlink:href="#m15ff14a7ba" x="214.856671" y="625.568417" style="stroke: #000000; stroke-width: 0.8"/>
      </g>
     </g>
     <g id="text_1">
      <!-- 2005 -->
      <g transform="translate(191.951671 646.245604) scale(0.18 -0.18)">
       <defs>
        <path id="DejaVuSans-32" d="M 1228 531 
L 3431 531 
L 3431 0 
L 469 0 
L 469 531 
Q 828 903 1448 1529 
Q 2069 2156 2228 2338 
Q 2531 2678 2651 2914 
Q 2772 3150 2772 3378 
Q 2772 3750 2511 3984 
Q 2250 4219 1831 4219 
Q 1534 4219 1204 4116 
Q 875 4013 500 3803 
L 500 4441 
Q 881 4594 1212 4672 
Q 1544 4750 1819 4750 
Q 2544 4750 2975 4387 
Q 3406 4025 3406 3419 
Q 3406 3131 3298 2873 
Q 3191 2616 2906 2266 
Q 2828 2175 2409 1742 
Q 1991 1309 1228 531 
z
" transform="scale(0.015625)"/>
        <path id="DejaVuSans-30" d="M 2034 4250 
Q 1547 4250 1301 3770 
Q 1056 3291 1056 2328 
Q 1056 1369 1301 889 
Q 1547 409 2034 409 
Q 2525 409 2770 889 
Q 3016 1369 3016 2328 
Q 3016 3291 2770 3770 
Q 2525 4250 2034 4250 
z
M 2034 4750 
Q 2819 4750 3233 4129 
Q 3647 3509 3647 2328 
Q 3647 1150 3233 529 
Q 2819 -91 2034 -91 
Q 1250 -91 836 529 
Q 422 1150 422 2328 
Q 422 3509 836 4129 
Q 1250 4750 2034 4750 
z
" transform="scale(0.015625)"/>
        <path id="DejaVuSans-35" d="M 691 4666 
L 3169 4666 
L 3169 4134 
L 1269 4134 
L 1269 2991 
Q 1406 3038 1543 3061 
Q 1681 3084 1819 3084 
Q 2600 3084 3056 2656 
Q 3513 2228 3513 1497 
Q 3513 744 3044 326 
Q 2575 -91 1722 -91 
Q 1428 -91 1123 -41 
Q 819 9 494 109 
L 494 744 
Q 775 591 1075 516 
Q 1375 441 1709 441 
Q 2250 441 2565 725 
Q 2881 1009 2881 1497 
Q 2881 1984 2565 2268 
Q 2250 2553 1709 2553 
Q 1456 2553 1204 2497 
Q 953 2441 691 2322 
L 691 4666 
z
" transform="scale(0.015625)"/>
       </defs>
       <use xlink:href="#DejaVuSans-32"/>
       <use xlink:href="#DejaVuSans-30" x="63.623047"/>
       <use xlink:href="#DejaVuSans-30" x="127.246094"/>
       <use xlink:href="#DejaVuSans-35" x="190.869141"/>
      </g>
     </g>
    </g>
    <g id="xtick_2">
     <g id="line2d_3">
      <path d="M 339.175141 625.568417 
L 339.175141 67.2065 
" clip-path="url(#pf82cfc7f65)" style="fill: none; stroke: #b0b0b0; stroke-width: 0.8; stroke-linecap: square"/>
     </g>
     <g id="line2d_4">
      <g>
       <use xlink:href="#m15ff14a7ba" x="339.175141" y="625.568417" style="stroke: #000000; stroke-width: 0.8"/>
      </g>
     </g>
     <g id="text_2">
      <!-- 2007 -->
      <g transform="translate(316.270141 646.245604) scale(0.18 -0.18)">
       <defs>
        <path id="DejaVuSans-37" d="M 525 4666 
L 3525 4666 
L 3525 4397 
L 1831 0 
L 1172 0 
L 2766 4134 
L 525 4134 
L 525 4666 
z
" transform="scale(0.015625)"/>
       </defs>
       <use xlink:href="#DejaVuSans-32"/>
       <use xlink:href="#DejaVuSans-30" x="63.623047"/>
       <use xlink:href="#DejaVuSans-30" x="127.246094"/>
       <use xlink:href="#DejaVuSans-37" x="190.869141"/>
      </g>
     </g>
    </g>
    <g id="xtick_3">
     <g id="line2d_5">
      <path d="M 463.493612 625.568417 
L 463.493612 67.2065 
" clip-path="url(#pf82cfc7f65)" style="fill: none; stroke: #b0b0b0; stroke-width: 0.8; stroke-linecap: square"/>
     </g>
     <g id="line2d_6">
      <g>
       <use xlink:href="#m15ff14a7ba" x="463.493612" y="625.568417" style="stroke: #000000; stroke-width: 0.8"/>
      </g>
     </g>
     <g id="text_3">
      <!-- 2009 -->
      <g transform="translate(440.588612 646.245604) scale(0.18 -0.18)">
       <defs>
        <path id="DejaVuSans-39" d="M 703 97 
L 703 672 
Q 941 559 1184 500 
Q 1428 441 1663 441 
Q 2288 441 2617 861 
Q 2947 1281 2994 2138 
Q 2813 1869 2534 1725 
Q 2256 1581 1919 1581 
Q 1219 1581 811 2004 
Q 403 2428 403 3163 
Q 403 3881 828 4315 
Q 1253 4750 1959 4750 
Q 2769 4750 3195 4129 
Q 3622 3509 3622 2328 
Q 3622 1225 3098 567 
Q 2575 -91 1691 -91 
Q 1453 -91 1209 -44 
Q 966 3 703 97 
z
M 1959 2075 
Q 2384 2075 2632 2365 
Q 2881 2656 2881 3163 
Q 2881 3666 2632 3958 
Q 2384 4250 1959 4250 
Q 1534 4250 1286 3958 
Q 1038 3666 1038 3163 
Q 1038 2656 1286 2365 
Q 1534 2075 1959 2075 
z
" transform="scale(0.015625)"/>
       </defs>
       <use xlink:href="#DejaVuSans-32"/>
       <use xlink:href="#DejaVuSans-30" x="63.623047"/>
       <use xlink:href="#DejaVuSans-30" x="127.246094"/>
       <use xlink:href="#DejaVuSans-39" x="190.869141"/>
      </g>
     </g>
    </g>
    <g id="xtick_4">
     <g id="line2d_7">
      <path d="M 587.812082 625.568417 
L 587.812082 67.2065 
" clip-path="url(#pf82cfc7f65)" style="fill: none; stroke: #b0b0b0; stroke-width: 0.8; stroke-linecap: square"/>
     </g>
     <g id="line2d_8">
      <g>
       <use xlink:href="#m15ff14a7ba" x="587.812082" y="625.568417" style="stroke: #000000; stroke-width: 0.8"/>
      </g>
     </g>
     <g id="text_4">
      <!-- 2011 -->
      <g transform="translate(564.907082 646.245604) scale(0.18 -0.18)">
       <defs>
        <path id="DejaVuSans-31" d="M 794 531 
L 1825 531 
L 1825 4091 
L 703 3866 
L 703 4441 
L 1819 4666 
L 2450 4666 
L 2450 531 
L 3481 531 
L 3481 0 
L 794 0 
L 794 531 
z
" transform="scale(0.015625)"/>
       </defs>
       <use xlink:href="#DejaVuSans-32"/>
       <use xlink:href="#DejaVuSans-30" x="63.623047"/>
       <use xlink:href="#DejaVuSans-31" x="127.246094"/>
       <use xlink:href="#DejaVuSans-31" x="190.869141"/>
      </g>
     </g>
    </g>
    <g id="xtick_5">
     <g id="line2d_9">
      <path d="M 712.130552 625.568417 
L 712.130552 67.2065 
" clip-path="url(#pf82cfc7f65)" style="fill: none; stroke: #b0b0b0; stroke-width: 0.8; stroke-linecap: square"/>
     </g>
     <g id="line2d_10">
      <g>
       <use xlink:href="#m15ff14a7ba" x="712.130552" y="625.568417" style="stroke: #000000; stroke-width: 0.8"/>
      </g>
     </g>
     <g id="text_5">
      <!-- 2013 -->
      <g transform="translate(689.225552 646.245604) scale(0.18 -0.18)">
       <defs>
        <path id="DejaVuSans-33" d="M 2597 2516 
Q 3050 2419 3304 2112 
Q 3559 1806 3559 1356 
Q 3559 666 3084 287 
Q 2609 -91 1734 -91 
Q 1441 -91 1130 -33 
Q 819 25 488 141 
L 488 750 
Q 750 597 1062 519 
Q 1375 441 1716 441 
Q 2309 441 2620 675 
Q 2931 909 2931 1356 
Q 2931 1769 2642 2001 
Q 2353 2234 1838 2234 
L 1294 2234 
L 1294 2753 
L 1863 2753 
Q 2328 2753 2575 2939 
Q 2822 3125 2822 3475 
Q 2822 3834 2567 4026 
Q 2313 4219 1838 4219 
Q 1578 4219 1281 4162 
Q 984 4106 628 3988 
L 628 4550 
Q 988 4650 1302 4700 
Q 1616 4750 1894 4750 
Q 2613 4750 3031 4423 
Q 3450 4097 3450 3541 
Q 3450 3153 3228 2886 
Q 3006 2619 2597 2516 
z
" transform="scale(0.015625)"/>
       </defs>
       <use xlink:href="#DejaVuSans-32"/>
       <use xlink:href="#DejaVuSans-30" x="63.623047"/>
       <use xlink:href="#DejaVuSans-31" x="127.246094"/>
       <use xlink:href="#DejaVuSans-33" x="190.869141"/>
      </g>
     </g>
    </g>
    <g id="xtick_6">
     <g id="line2d_11">
      <path d="M 836.449022 625.568417 
L 836.449022 67.2065 
" clip-path="url(#pf82cfc7f65)" style="fill: none; stroke: #b0b0b0; stroke-width: 0.8; stroke-linecap: square"/>
     </g>
     <g id="line2d_12">
      <g>
       <use xlink:href="#m15ff14a7ba" x="836.449022" y="625.568417" style="stroke: #000000; stroke-width: 0.8"/>
      </g>
     </g>
     <g id="text_6">
      <!-- 2015 -->
      <g transform="translate(813.544022 646.245604) scale(0.18 -0.18)">
       <use xlink:href="#DejaVuSans-32"/>
       <use xlink:href="#DejaVuSans-30" x="63.623047"/>
       <use xlink:href="#DejaVuSans-31" x="127.246094"/>
       <use xlink:href="#DejaVuSans-35" x="190.869141"/>
      </g>
     </g>
    </g>
    <g id="xtick_7">
     <g id="line2d_13">
      <path d="M 960.767492 625.568417 
L 960.767492 67.2065 
" clip-path="url(#pf82cfc7f65)" style="fill: none; stroke: #b0b0b0; stroke-width: 0.8; stroke-linecap: square"/>
     </g>
     <g id="line2d_14">
      <g>
       <use xlink:href="#m15ff14a7ba" x="960.767492" y="625.568417" style="stroke: #000000; stroke-width: 0.8"/>
      </g>
     </g>
     <g id="text_7">
      <!-- 2017 -->
      <g transform="translate(937.862492 646.245604) scale(0.18 -0.18)">
       <use xlink:href="#DejaVuSans-32"/>
       <use xlink:href="#DejaVuSans-30" x="63.623047"/>
       <use xlink:href="#DejaVuSans-31" x="127.246094"/>
       <use xlink:href="#DejaVuSans-37" x="190.869141"/>
      </g>
     </g>
    </g>
    <g id="xtick_8">
     <g id="line2d_15">
      <path d="M 1085.085962 625.568417 
L 1085.085962 67.2065 
" clip-path="url(#pf82cfc7f65)" style="fill: none; stroke: #b0b0b0; stroke-width: 0.8; stroke-linecap: square"/>
     </g>
     <g id="line2d_16">
      <g>
       <use xlink:href="#m15ff14a7ba" x="1085.085962" y="625.568417" style="stroke: #000000; stroke-width: 0.8"/>
      </g>
     </g>
     <g id="text_8">
      <!-- 2019 -->
      <g transform="translate(1062.180962 646.245604) scale(0.18 -0.18)">
       <use xlink:href="#DejaVuSans-32"/>
       <use xlink:href="#DejaVuSans-30" x="63.623047"/>
       <use xlink:href="#DejaVuSans-31" x="127.246094"/>
       <use xlink:href="#DejaVuSans-39" x="190.869141"/>
      </g>
     </g>
    </g>
    <g id="xtick_9">
     <g id="line2d_17">
      <defs>
       <path id="m6360b881d6" d="M 0 0 
L 0 2 
" style="stroke: #000000; stroke-width: 0.6"/>
      </defs>
      <g>
       <use xlink:href="#m6360b881d6" x="152.697436" y="625.568417" style="stroke: #000000; stroke-width: 0.6"/>
      </g>
     </g>
    </g>
    <g id="xtick_10">
     <g id="line2d_18">
      <g>
       <use xlink:href="#m6360b881d6" x="277.015906" y="625.568417" style="stroke: #000000; stroke-width: 0.6"/>
      </g>
     </g>
    </g>
    <g id="xtick_11">
     <g id="line2d_19">
      <g>
       <use xlink:href="#m6360b881d6" x="401.334376" y="625.568417" style="stroke: #000000; stroke-width: 0.6"/>
      </g>
     </g>
    </g>
    <g id="xtick_12">
     <g id="line2d_20">
      <g>
       <use xlink:href="#m6360b881d6" x="525.652847" y="625.568417" style="stroke: #000000; stroke-width: 0.6"/>
      </g>
     </g>
    </g>
    <g id="xtick_13">
     <g id="line2d_21">
      <g>
       <use xlink:href="#m6360b881d6" x="649.971317" y="625.568417" style="stroke: #000000; stroke-width: 0.6"/>
      </g>
     </g>
    </g>
    <g id="xtick_14">
     <g id="line2d_22">
      <g>
       <use xlink:href="#m6360b881d6" x="774.289787" y="625.568417" style="stroke: #000000; stroke-width: 0.6"/>
      </g>
     </g>
    </g>
    <g id="xtick_15">
     <g id="line2d_23">
      <g>
       <use xlink:href="#m6360b881d6" x="898.608257" y="625.568417" style="stroke: #000000; stroke-width: 0.6"/>
      </g>
     </g>
    </g>
    <g id="xtick_16">
     <g id="line2d_24">
      <g>
       <use xlink:href="#m6360b881d6" x="1022.926727" y="625.568417" style="stroke: #000000; stroke-width: 0.6"/>
      </g>
     </g>
    </g>
   </g>
   <g id="matplotlib.axis_2">
    <g id="ytick_1">
     <g id="line2d_25">
      <path d="M 147.5175 592.033761 
L 1136.885325 592.033761 
" clip-path="url(#pf82cfc7f65)" style="fill: none; stroke: #b0b0b0; stroke-width: 0.8; stroke-linecap: square"/>
     </g>
     <g id="line2d_26">
      <defs>
       <path id="m107505189b" d="M 0 0 
L -3.5 0 
" style="stroke: #000000; stroke-width: 0.8"/>
      </defs>
      <g>
       <use xlink:href="#m107505189b" x="147.5175" y="592.033761" style="stroke: #000000; stroke-width: 0.8"/>
      </g>
     </g>
     <g id="text_9">
      <!-- 0.14 -->
      <g transform="translate(100.439375 598.872355) scale(0.18 -0.18)">
       <defs>
        <path id="DejaVuSans-2e" d="M 684 794 
L 1344 794 
L 1344 0 
L 684 0 
L 684 794 
z
" transform="scale(0.015625)"/>
        <path id="DejaVuSans-34" d="M 2419 4116 
L 825 1625 
L 2419 1625 
L 2419 4116 
z
M 2253 4666 
L 3047 4666 
L 3047 1625 
L 3713 1625 
L 3713 1100 
L 3047 1100 
L 3047 0 
L 2419 0 
L 2419 1100 
L 313 1100 
L 313 1709 
L 2253 4666 
z
" transform="scale(0.015625)"/>
       </defs>
       <use xlink:href="#DejaVuSans-30"/>
       <use xlink:href="#DejaVuSans-2e" x="63.623047"/>
       <use xlink:href="#DejaVuSans-31" x="95.410156"/>
       <use xlink:href="#DejaVuSans-34" x="159.033203"/>
      </g>
     </g>
    </g>
    <g id="ytick_2">
     <g id="line2d_27">
      <path d="M 147.5175 511.1529 
L 1136.885325 511.1529 
" clip-path="url(#pf82cfc7f65)" style="fill: none; stroke: #b0b0b0; stroke-width: 0.8; stroke-linecap: square"/>
     </g>
     <g id="line2d_28">
      <g>
       <use xlink:href="#m107505189b" x="147.5175" y="511.1529" style="stroke: #000000; stroke-width: 0.8"/>
      </g>
     </g>
     <g id="text_10">
      <!-- 0.16 -->
      <g transform="translate(100.439375 517.991493) scale(0.18 -0.18)">
       <defs>
        <path id="DejaVuSans-36" d="M 2113 2584 
Q 1688 2584 1439 2293 
Q 1191 2003 1191 1497 
Q 1191 994 1439 701 
Q 1688 409 2113 409 
Q 2538 409 2786 701 
Q 3034 994 3034 1497 
Q 3034 2003 2786 2293 
Q 2538 2584 2113 2584 
z
M 3366 4563 
L 3366 3988 
Q 3128 4100 2886 4159 
Q 2644 4219 2406 4219 
Q 1781 4219 1451 3797 
Q 1122 3375 1075 2522 
Q 1259 2794 1537 2939 
Q 1816 3084 2150 3084 
Q 2853 3084 3261 2657 
Q 3669 2231 3669 1497 
Q 3669 778 3244 343 
Q 2819 -91 2113 -91 
Q 1303 -91 875 529 
Q 447 1150 447 2328 
Q 447 3434 972 4092 
Q 1497 4750 2381 4750 
Q 2619 4750 2861 4703 
Q 3103 4656 3366 4563 
z
" transform="scale(0.015625)"/>
       </defs>
       <use xlink:href="#DejaVuSans-30"/>
       <use xlink:href="#DejaVuSans-2e" x="63.623047"/>
       <use xlink:href="#DejaVuSans-31" x="95.410156"/>
       <use xlink:href="#DejaVuSans-36" x="159.033203"/>
      </g>
     </g>
    </g>
    <g id="ytick_3">
     <g id="line2d_29">
      <path d="M 147.5175 430.272038 
L 1136.885325 430.272038 
" clip-path="url(#pf82cfc7f65)" style="fill: none; stroke: #b0b0b0; stroke-width: 0.8; stroke-linecap: square"/>
     </g>
     <g id="line2d_30">
      <g>
       <use xlink:href="#m107505189b" x="147.5175" y="430.272038" style="stroke: #000000; stroke-width: 0.8"/>
      </g>
     </g>
     <g id="text_11">
      <!-- 0.18 -->
      <g transform="translate(100.439375 437.110632) scale(0.18 -0.18)">
       <defs>
        <path id="DejaVuSans-38" d="M 2034 2216 
Q 1584 2216 1326 1975 
Q 1069 1734 1069 1313 
Q 1069 891 1326 650 
Q 1584 409 2034 409 
Q 2484 409 2743 651 
Q 3003 894 3003 1313 
Q 3003 1734 2745 1975 
Q 2488 2216 2034 2216 
z
M 1403 2484 
Q 997 2584 770 2862 
Q 544 3141 544 3541 
Q 544 4100 942 4425 
Q 1341 4750 2034 4750 
Q 2731 4750 3128 4425 
Q 3525 4100 3525 3541 
Q 3525 3141 3298 2862 
Q 3072 2584 2669 2484 
Q 3125 2378 3379 2068 
Q 3634 1759 3634 1313 
Q 3634 634 3220 271 
Q 2806 -91 2034 -91 
Q 1263 -91 848 271 
Q 434 634 434 1313 
Q 434 1759 690 2068 
Q 947 2378 1403 2484 
z
M 1172 3481 
Q 1172 3119 1398 2916 
Q 1625 2713 2034 2713 
Q 2441 2713 2670 2916 
Q 2900 3119 2900 3481 
Q 2900 3844 2670 4047 
Q 2441 4250 2034 4250 
Q 1625 4250 1398 4047 
Q 1172 3844 1172 3481 
z
" transform="scale(0.015625)"/>
       </defs>
       <use xlink:href="#DejaVuSans-30"/>
       <use xlink:href="#DejaVuSans-2e" x="63.623047"/>
       <use xlink:href="#DejaVuSans-31" x="95.410156"/>
       <use xlink:href="#DejaVuSans-38" x="159.033203"/>
      </g>
     </g>
    </g>
    <g id="ytick_4">
     <g id="line2d_31">
      <path d="M 147.5175 349.391176 
L 1136.885325 349.391176 
" clip-path="url(#pf82cfc7f65)" style="fill: none; stroke: #b0b0b0; stroke-width: 0.8; stroke-linecap: square"/>
     </g>
     <g id="line2d_32">
      <g>
       <use xlink:href="#m107505189b" x="147.5175" y="349.391176" style="stroke: #000000; stroke-width: 0.8"/>
      </g>
     </g>
     <g id="text_12">
      <!-- 0.20 -->
      <g transform="translate(100.439375 356.22977) scale(0.18 -0.18)">
       <use xlink:href="#DejaVuSans-30"/>
       <use xlink:href="#DejaVuSans-2e" x="63.623047"/>
       <use xlink:href="#DejaVuSans-32" x="95.410156"/>
       <use xlink:href="#DejaVuSans-30" x="159.033203"/>
      </g>
     </g>
    </g>
    <g id="ytick_5">
     <g id="line2d_33">
      <path d="M 147.5175 268.510315 
L 1136.885325 268.510315 
" clip-path="url(#pf82cfc7f65)" style="fill: none; stroke: #b0b0b0; stroke-width: 0.8; stroke-linecap: square"/>
     </g>
     <g id="line2d_34">
      <g>
       <use xlink:href="#m107505189b" x="147.5175" y="268.510315" style="stroke: #000000; stroke-width: 0.8"/>
      </g>
     </g>
     <g id="text_13">
      <!-- 0.22 -->
      <g transform="translate(100.439375 275.348909) scale(0.18 -0.18)">
       <use xlink:href="#DejaVuSans-30"/>
       <use xlink:href="#DejaVuSans-2e" x="63.623047"/>
       <use xlink:href="#DejaVuSans-32" x="95.410156"/>
       <use xlink:href="#DejaVuSans-32" x="159.033203"/>
      </g>
     </g>
    </g>
    <g id="ytick_6">
     <g id="line2d_35">
      <path d="M 147.5175 187.629453 
L 1136.885325 187.629453 
" clip-path="url(#pf82cfc7f65)" style="fill: none; stroke: #b0b0b0; stroke-width: 0.8; stroke-linecap: square"/>
     </g>
     <g id="line2d_36">
      <g>
       <use xlink:href="#m107505189b" x="147.5175" y="187.629453" style="stroke: #000000; stroke-width: 0.8"/>
      </g>
     </g>
     <g id="text_14">
      <!-- 0.24 -->
      <g transform="translate(100.439375 194.468047) scale(0.18 -0.18)">
       <use xlink:href="#DejaVuSans-30"/>
       <use xlink:href="#DejaVuSans-2e" x="63.623047"/>
       <use xlink:href="#DejaVuSans-32" x="95.410156"/>
       <use xlink:href="#DejaVuSans-34" x="159.033203"/>
      </g>
     </g>
    </g>
    <g id="ytick_7">
     <g id="line2d_37">
      <path d="M 147.5175 106.748592 
L 1136.885325 106.748592 
" clip-path="url(#pf82cfc7f65)" style="fill: none; stroke: #b0b0b0; stroke-width: 0.8; stroke-linecap: square"/>
     </g>
     <g id="line2d_38">
      <g>
       <use xlink:href="#m107505189b" x="147.5175" y="106.748592" style="stroke: #000000; stroke-width: 0.8"/>
      </g>
     </g>
     <g id="text_15">
      <!-- 0.26 -->
      <g transform="translate(100.439375 113.587185) scale(0.18 -0.18)">
       <use xlink:href="#DejaVuSans-30"/>
       <use xlink:href="#DejaVuSans-2e" x="63.623047"/>
       <use xlink:href="#DejaVuSans-32" x="95.410156"/>
       <use xlink:href="#DejaVuSans-36" x="159.033203"/>
      </g>
     </g>
    </g>
   </g>
   <g id="line2d_39">
    <path d="M 147.5175 376.16407 
L 152.697436 305.086198 
L 157.877373 287.807692 
L 163.057309 272.295195 
L 168.237245 226.165324 
L 173.417181 262.794857 
L 178.597118 239.967419 
L 183.777054 252.415559 
L 188.95699 232.736705 
L 194.136926 236.206169 
L 199.316863 234.133532 
L 204.496799 223.403097 
L 209.676735 230.235252 
L 214.856671 229.382532 
L 220.036608 214.367468 
L 225.216544 205.829689 
L 230.39648 207.902116 
L 235.576416 252.960698 
L 240.756353 236.58079 
L 245.936289 249.065265 
L 251.116225 277.434713 
L 256.296161 257.756404 
L 261.476098 280.544388 
L 266.656034 284.829402 
L 271.83597 286.067412 
L 277.015906 270.756807 
L 282.195843 290.1582 
L 292.555715 344.289737 
L 297.735651 348.073315 
L 302.915588 297.393564 
L 308.095524 285.462914 
L 313.27546 293.502181 
L 318.455396 261.588017 
L 323.635333 272.981928 
L 328.815269 271.428848 
L 333.995205 287.565852 
L 339.175141 290.278144 
L 344.355078 291.492924 
L 349.535014 300.252123 
L 354.71495 284.301948 
L 359.894886 300.65233 
L 365.074823 299.104573 
L 370.254759 305.948992 
L 375.434695 282.608298 
L 380.614631 276.306575 
L 385.794568 284.435381 
L 390.974504 296.971356 
L 396.15444 288.365648 
L 401.334376 315.064512 
L 406.514313 288.218649 
L 411.694249 299.219296 
L 416.874185 296.848026 
L 422.054121 297.375033 
L 427.234058 309.237543 
L 432.413994 265.193848 
L 437.59393 291.394055 
L 442.773867 336.979831 
L 447.953803 284.10039 
L 453.133739 191.900477 
L 458.313675 272.330371 
L 463.493612 329.465869 
L 468.673548 354.193257 
L 473.853484 372.114759 
L 479.03342 372.350897 
L 484.213357 380.036391 
L 489.393293 374.751741 
L 494.573229 366.781929 
L 499.753165 373.26734 
L 504.933102 371.429821 
L 510.113038 405.587985 
L 515.292974 392.823231 
L 520.47291 380.433177 
L 525.652847 375.488858 
L 530.832783 374.793958 
L 536.012719 371.823234 
L 541.192655 377.773664 
L 546.372592 367.536519 
L 551.552528 376.608806 
L 556.732464 380.236784 
L 561.9124 378.23267 
L 567.092337 381.021659 
L 572.272273 378.243632 
L 577.452209 390.840037 
L 582.632145 378.486592 
L 587.812082 375.023409 
L 598.171954 379.355988 
L 603.35189 376.124368 
L 608.531827 386.183665 
L 613.711763 382.977925 
L 618.891699 393.789259 
L 624.071635 404.886992 
L 629.251572 406.029968 
L 634.431508 401.909802 
L 639.611444 397.183279 
L 644.79138 412.433371 
L 649.971317 395.465787 
L 655.151253 400.26165 
L 660.331189 398.091947 
L 665.511125 407.830776 
L 670.691062 409.203758 
L 675.870998 420.595019 
L 681.050934 408.092365 
L 686.23087 412.803413 
L 691.410807 426.394149 
L 696.590743 418.287336 
L 701.770679 415.936443 
L 706.950615 415.038046 
L 712.130552 423.115143 
L 717.310488 427.051973 
L 722.490424 435.748369 
L 727.670361 427.996502 
L 732.850297 417.622108 
L 738.030233 433.955444 
L 743.210169 426.921782 
L 748.390106 428.593678 
L 753.570042 428.322349 
L 758.749978 434.358588 
L 763.929914 435.303822 
L 769.109851 442.013837 
L 774.289787 430.674776 
L 779.469723 435.988301 
L 784.649659 443.990851 
L 789.829596 444.764263 
L 795.009532 436.520008 
L 800.189468 435.201819 
L 805.369404 434.81952 
L 810.549341 437.85308 
L 815.729277 438.072209 
L 820.909213 439.991143 
L 826.089149 439.642415 
L 831.269086 441.481475 
L 836.449022 449.869892 
L 841.628958 460.060973 
L 846.808894 452.025699 
L 851.988831 447.47073 
L 857.168767 450.297807 
L 862.348703 447.770039 
L 867.528639 459.14644 
L 872.708576 449.270836 
L 877.888512 447.088867 
L 883.068448 453.623121 
L 888.248384 452.631925 
L 893.428321 450.16128 
L 898.608257 462.617142 
L 903.788193 468.72537 
L 908.968129 455.582406 
L 914.148066 459.188865 
L 919.328002 459.029877 
L 924.507938 470.719333 
L 929.687874 464.56956 
L 934.867811 467.308277 
L 940.047747 464.333124 
L 945.227683 466.246076 
L 950.407619 466.333315 
L 955.587556 479.309486 
L 960.767492 479.352878 
L 965.947428 479.125235 
L 971.127364 481.608166 
L 976.307301 480.02594 
L 981.487237 483.487905 
L 986.667173 480.967352 
L 991.847109 478.894019 
L 997.027046 478.988441 
L 1002.206982 481.039101 
L 1007.386918 478.838894 
L 1012.566854 479.355768 
L 1017.746791 478.57634 
L 1022.926727 479.274455 
L 1028.106663 477.60335 
L 1033.2866 475.441785 
L 1038.466536 476.692662 
L 1048.826408 476.400557 
L 1054.006345 475.102263 
L 1059.186281 478.76124 
L 1064.366217 476.69987 
L 1069.546153 477.187319 
L 1074.72609 475.706899 
L 1079.906026 481.11323 
L 1085.085962 486.218477 
L 1090.265898 490.1177 
L 1095.445835 489.098933 
L 1100.625771 490.082566 
L 1105.805707 487.729953 
L 1110.985643 490.136247 
L 1116.16558 482.600508 
L 1121.345516 475.742559 
L 1126.525452 476.60987 
L 1131.705388 475.399542 
L 1136.885325 473.697968 
L 1136.885325 473.697968 
" clip-path="url(#pf82cfc7f65)" style="fill: none; stroke: #1f77b4; stroke-width: 1.5; stroke-linecap: square"/>
   </g>
   <g id="line2d_40">
    <path d="M 147.5175 600.18833 
L 152.697436 552.170103 
L 157.877373 575.319444 
L 163.057309 559.368232 
L 168.237245 569.612727 
L 173.417181 544.570902 
L 178.597118 533.183479 
L 183.777054 546.449138 
L 188.95699 537.840409 
L 194.136926 550.41587 
L 199.316863 551.091297 
L 204.496799 549.76754 
L 214.856671 549.54976 
L 220.036608 536.924375 
L 225.216544 540.507196 
L 230.39648 539.148712 
L 235.576416 524.442018 
L 240.756353 536.738466 
L 245.936289 534.759197 
L 251.116225 526.874094 
L 256.296161 525.668328 
L 261.476098 516.732848 
L 266.656034 509.87354 
L 271.83597 514.364613 
L 277.015906 537.821399 
L 282.195843 516.687044 
L 287.375779 523.652313 
L 292.555715 516.363633 
L 297.735651 503.987005 
L 302.915588 491.986516 
L 308.095524 486.951774 
L 313.27546 497.612412 
L 318.455396 487.264196 
L 323.635333 490.436324 
L 328.815269 489.494098 
L 339.175141 486.16935 
L 344.355078 476.52983 
L 349.535014 486.547253 
L 354.71495 483.034143 
L 359.894886 484.132718 
L 365.074823 496.284616 
L 370.254759 483.851736 
L 375.434695 448.365333 
L 380.614631 402.236387 
L 385.794568 426.249627 
L 390.974504 435.026012 
L 396.15444 428.944546 
L 401.334376 463.480008 
L 406.514313 426.502818 
L 411.694249 415.932801 
L 416.874185 412.795939 
L 422.054121 407.144821 
L 427.234058 416.317942 
L 432.413994 390.419883 
L 437.59393 357.576515 
L 442.773867 301.031492 
L 447.953803 434.300307 
L 453.133739 408.184528 
L 458.313675 395.190667 
L 463.493612 418.348485 
L 468.673548 410.754452 
L 473.853484 379.565479 
L 479.03342 403.024518 
L 489.393293 417.175648 
L 494.573229 416.70095 
L 499.753165 400.46542 
L 504.933102 407.096211 
L 510.113038 398.190925 
L 515.292974 375.460023 
L 520.47291 381.389727 
L 525.652847 372.793245 
L 530.832783 376.74011 
L 536.012719 379.20882 
L 541.192655 370.014206 
L 546.372592 349.244152 
L 551.552528 347.730778 
L 556.732464 352.494402 
L 561.9124 356.844758 
L 567.092337 352.092239 
L 572.272273 353.091761 
L 577.452209 315.454135 
L 582.632145 341.202974 
L 587.812082 344.315633 
L 592.992018 342.149973 
L 598.171954 340.904029 
L 603.35189 346.960756 
L 608.531827 342.167473 
L 613.711763 345.030421 
L 618.891699 340.976725 
L 624.071635 355.125327 
L 629.251572 345.389881 
L 634.431508 352.341074 
L 639.611444 358.549857 
L 644.79138 356.826717 
L 649.971317 352.62047 
L 655.151253 347.847234 
L 660.331189 341.060709 
L 665.511125 347.247047 
L 670.691062 347.351028 
L 675.870998 336.1068 
L 681.050934 344.169 
L 686.23087 336.915532 
L 691.410807 330.32374 
L 696.590743 344.935023 
L 701.770679 341.774476 
L 706.950615 339.071655 
L 712.130552 340.916158 
L 717.310488 340.84577 
L 727.670361 332.560906 
L 732.850297 340.673406 
L 738.030233 336.687494 
L 743.210169 326.333733 
L 748.390106 341.947913 
L 753.570042 336.670425 
L 758.749978 333.654655 
L 763.929914 337.474116 
L 769.109851 349.107741 
L 774.289787 339.182468 
L 779.469723 336.986195 
L 784.649659 340.543755 
L 789.829596 339.021218 
L 795.009532 345.129911 
L 800.189468 344.160103 
L 805.369404 349.833526 
L 810.549341 340.930269 
L 815.729277 345.152111 
L 820.909213 345.28029 
L 826.089149 350.662194 
L 831.269086 347.045472 
L 836.449022 347.6248 
L 841.628958 342.475301 
L 846.808894 343.906108 
L 851.988831 363.17144 
L 857.168767 347.332548 
L 862.348703 351.101453 
L 867.528639 345.394457 
L 872.708576 362.572957 
L 877.888512 360.744018 
L 883.068448 349.95376 
L 888.248384 353.592599 
L 893.428321 355.709506 
L 898.608257 363.57552 
L 903.788193 355.891487 
L 908.968129 351.022395 
L 914.148066 350.714458 
L 919.328002 351.479529 
L 924.507938 352.908499 
L 929.687874 347.320187 
L 934.867811 349.97516 
L 940.047747 351.220615 
L 945.227683 346.092859 
L 950.407619 347.646611 
L 955.587556 341.129159 
L 960.767492 341.886301 
L 965.947428 341.207931 
L 971.127364 336.211392 
L 976.307301 337.139692 
L 981.487237 334.886309 
L 986.667173 340.226598 
L 991.847109 343.02302 
L 1002.206982 340.480628 
L 1007.386918 342.004933 
L 1017.746791 336.963364 
L 1022.926727 333.894936 
L 1028.106663 338.052174 
L 1033.2866 341.703662 
L 1038.466536 332.968725 
L 1043.646472 339.947324 
L 1048.826408 342.869998 
L 1054.006345 338.706265 
L 1059.186281 342.386737 
L 1064.366217 341.768454 
L 1069.546153 347.861852 
L 1074.72609 347.795268 
L 1079.906026 377.707381 
L 1085.085962 359.263483 
L 1090.265898 358.844149 
L 1095.445835 359.203705 
L 1100.625771 354.012239 
L 1105.805707 361.799783 
L 1110.985643 356.295153 
L 1116.16558 360.89661 
L 1121.345516 370.328274 
L 1126.525452 368.754312 
L 1131.705388 370.866536 
L 1136.885325 368.741021 
L 1136.885325 368.741021 
" clip-path="url(#pf82cfc7f65)" style="fill: none; stroke: #ff7f0e; stroke-width: 1.5; stroke-linecap: square"/>
   </g>
   <g id="line2d_41">
    <path d="M 147.5175 451.072889 
L 152.697436 361.526085 
L 157.877373 399.716435 
L 163.057309 403.376076 
L 168.237245 439.15277 
L 173.417181 417.694958 
L 178.597118 402.666274 
L 183.777054 402.600958 
L 188.95699 409.454884 
L 194.136926 424.462227 
L 199.316863 425.88584 
L 204.496799 422.410187 
L 209.676735 418.240231 
L 214.856671 418.953555 
L 220.036608 405.581573 
L 225.216544 408.384607 
L 230.39648 414.960193 
L 235.576416 403.717919 
L 240.756353 403.199635 
L 245.936289 406.829735 
L 251.116225 413.416862 
L 256.296161 418.089767 
L 261.476098 406.70474 
L 266.656034 406.122338 
L 271.83597 409.535544 
L 277.015906 414.184326 
L 282.195843 406.672936 
L 287.375779 408.574388 
L 292.555715 404.589853 
L 297.735651 398.981871 
L 302.915588 417.446709 
L 308.095524 412.135935 
L 313.27546 406.390933 
L 318.455396 410.295317 
L 323.635333 407.195459 
L 328.815269 409.884053 
L 333.995205 406.954763 
L 339.175141 410.328707 
L 344.355078 405.114304 
L 349.535014 412.924198 
L 354.71495 402.253518 
L 359.894886 402.840878 
L 365.074823 394.184656 
L 370.254759 389.727975 
L 375.434695 399.275127 
L 380.614631 415.990149 
L 385.794568 400.067018 
L 390.974504 399.529385 
L 396.15444 399.73568 
L 401.334376 416.049816 
L 406.514313 398.145375 
L 411.694249 386.378617 
L 416.874185 391.187232 
L 422.054121 385.069669 
L 427.234058 383.086537 
L 432.413994 402.358985 
L 437.59393 406.335846 
L 442.773867 420.691732 
L 447.953803 356.616267 
L 453.133739 411.693287 
L 458.313675 405.474554 
L 463.493612 396.490882 
L 468.673548 373.248616 
L 473.853484 396.122891 
L 479.03342 378.012187 
L 484.213357 396.078232 
L 489.393293 390.62804 
L 494.573229 391.692161 
L 499.753165 390.345136 
L 504.933102 377.385301 
L 510.113038 363.743125 
L 515.292974 363.753553 
L 520.47291 364.740111 
L 525.652847 361.466926 
L 530.832783 366.292022 
L 536.012719 365.678156 
L 541.192655 369.625451 
L 546.372592 370.212031 
L 551.552528 366.182248 
L 556.732464 361.059145 
L 561.9124 367.781629 
L 567.092337 365.897553 
L 572.272273 368.021669 
L 577.452209 360.832132 
L 582.632145 365.503991 
L 587.812082 369.462051 
L 592.992018 369.308597 
L 598.171954 365.985471 
L 603.35189 369.057714 
L 608.531827 366.981348 
L 613.711763 367.467722 
L 618.891699 371.55141 
L 624.071635 362.917656 
L 629.251572 367.881626 
L 634.431508 366.265334 
L 639.611444 383.425889 
L 644.79138 375.357728 
L 649.971317 373.551691 
L 655.151253 368.719629 
L 660.331189 370.898619 
L 665.511125 373.801334 
L 670.691062 353.165637 
L 675.870998 363.048938 
L 681.050934 371.318305 
L 686.23087 366.243794 
L 691.410807 376.186252 
L 696.590743 368.020334 
L 701.770679 370.902045 
L 706.950615 374.115627 
L 712.130552 364.35481 
L 717.310488 367.51187 
L 722.490424 360.124683 
L 727.670361 371.235659 
L 732.850297 368.217461 
L 738.030233 363.182242 
L 743.210169 371.849006 
L 748.390106 365.64353 
L 753.570042 366.113007 
L 758.749978 364.84139 
L 763.929914 365.915288 
L 769.109851 358.272345 
L 774.289787 367.514531 
L 779.469723 371.834885 
L 784.649659 367.433455 
L 789.829596 368.310263 
L 795.009532 365.479104 
L 800.189468 367.896798 
L 805.369404 368.518245 
L 810.549341 367.792107 
L 815.729277 366.244039 
L 820.909213 365.517913 
L 826.089149 366.026141 
L 831.269086 364.681647 
L 836.449022 370.193897 
L 841.628958 372.529952 
L 846.808894 363.476793 
L 851.988831 367.171152 
L 857.168767 367.608773 
L 862.348703 365.275843 
L 867.528639 365.424959 
L 872.708576 364.207055 
L 877.888512 363.868987 
L 883.068448 368.223682 
L 888.248384 366.0511 
L 893.428321 365.555031 
L 898.608257 359.311617 
L 903.788193 354.296427 
L 908.968129 362.970457 
L 914.148066 358.780976 
L 919.328002 360.473088 
L 924.507938 357.743133 
L 929.687874 358.274408 
L 934.867811 356.6356 
L 940.047747 358.246397 
L 945.227683 356.811757 
L 950.407619 357.753151 
L 955.587556 359.470011 
L 960.767492 356.751838 
L 965.947428 358.837084 
L 971.127364 359.481984 
L 976.307301 365.125592 
L 981.487237 359.514711 
L 986.667173 360.723253 
L 991.847109 360.436325 
L 997.027046 360.958714 
L 1002.206982 362.891847 
L 1007.386918 365.100237 
L 1012.566854 362.452115 
L 1017.746791 361.060537 
L 1022.926727 364.419346 
L 1028.106663 362.314598 
L 1033.2866 363.382648 
L 1038.466536 367.44061 
L 1043.646472 363.320568 
L 1048.826408 362.046196 
L 1054.006345 364.312334 
L 1059.186281 360.709278 
L 1064.366217 362.977291 
L 1069.546153 358.60479 
L 1074.72609 355.894615 
L 1079.906026 345.929491 
L 1085.085962 354.370099 
L 1090.265898 358.624259 
L 1095.445835 355.464408 
L 1100.625771 360.322552 
L 1105.805707 354.025465 
L 1110.985643 358.605864 
L 1116.16558 356.580305 
L 1121.345516 352.811534 
L 1126.525452 353.499592 
L 1131.705388 353.188025 
L 1136.885325 354.402632 
L 1136.885325 354.402632 
" clip-path="url(#pf82cfc7f65)" style="fill: none; stroke: #2ca02c; stroke-width: 1.5; stroke-linecap: square"/>
   </g>
   <g id="line2d_42">
    <path d="M 147.5175 146.993991 
L 152.697436 170.583482 
L 157.877373 223.521331 
L 163.057309 137.261923 
L 168.237245 92.586587 
L 173.417181 140.743665 
L 178.597118 156.906402 
L 183.777054 178.695813 
L 188.95699 188.350228 
L 194.136926 157.264924 
L 199.316863 157.161772 
L 204.496799 178.849019 
L 209.676735 184.153331 
L 214.856671 184.67601 
L 220.036608 193.863962 
L 225.216544 196.837455 
L 230.39648 192.792771 
L 235.576416 177.040366 
L 240.756353 186.46495 
L 245.936289 183.581342 
L 251.116225 173.611148 
L 256.296161 177.764513 
L 261.476098 208.606008 
L 266.656034 206.190986 
L 271.83597 211.321508 
L 277.015906 178.727328 
L 282.195843 203.475234 
L 287.375779 195.614778 
L 292.555715 196.666936 
L 297.735651 193.414784 
L 302.915588 222.620827 
L 308.095524 226.230002 
L 313.27546 232.300907 
L 318.455396 211.398455 
L 323.635333 228.13632 
L 328.815269 232.857361 
L 333.995205 216.764768 
L 339.175141 223.712635 
L 344.355078 228.467821 
L 349.535014 215.867619 
L 354.71495 214.93791 
L 359.894886 215.291724 
L 365.074823 223.649696 
L 370.254759 238.582753 
L 375.434695 276.527602 
L 380.614631 316.722624 
L 385.794568 292.979707 
L 390.974504 280.636367 
L 396.15444 290.507178 
L 401.334376 192.879838 
L 406.514313 274.617026 
L 411.694249 282.048978 
L 416.874185 278.476487 
L 422.054121 285.595275 
L 427.234058 241.786009 
L 432.413994 294.068483 
L 437.59393 287.708725 
L 442.773867 370.874473 
L 447.953803 336.614121 
L 453.133739 380.726609 
L 458.313675 357.838842 
L 463.493612 217.736722 
L 468.673548 293.856119 
L 473.853484 339.355685 
L 479.03342 298.471959 
L 484.213357 277.361416 
L 489.393293 294.021049 
L 494.573229 301.710605 
L 499.753165 313.771362 
L 504.933102 303.403455 
L 510.113038 261.581186 
L 515.292974 270.818031 
L 520.47291 269.112057 
L 525.652847 270.705898 
L 530.832783 267.506395 
L 536.012719 268.614679 
L 541.192655 252.724149 
L 546.372592 241.597649 
L 551.552528 240.683523 
L 556.732464 222.963803 
L 561.9124 245.32364 
L 567.092337 249.661859 
L 572.272273 257.579288 
L 577.452209 249.885512 
L 582.632145 257.689437 
L 587.812082 268.520787 
L 592.992018 263.427922 
L 598.171954 261.18801 
L 603.35189 261.92715 
L 608.531827 266.621071 
L 613.711763 263.019056 
L 618.891699 254.459504 
L 624.071635 242.939981 
L 629.251572 240.868301 
L 634.431508 247.588051 
L 639.611444 236.237888 
L 644.79138 226.205316 
L 649.971317 252.056663 
L 655.151253 252.897566 
L 660.331189 256.006505 
L 665.511125 238.349119 
L 670.691062 213.905908 
L 675.870998 225.926843 
L 681.050934 230.209252 
L 686.23087 233.242917 
L 691.410807 219.014576 
L 696.590743 230.113386 
L 701.770679 224.043327 
L 706.950615 220.883784 
L 712.130552 218.615329 
L 717.310488 221.692985 
L 722.490424 200.254068 
L 727.670361 217.390224 
L 732.850297 226.39582 
L 738.030233 215.424433 
L 743.210169 221.528672 
L 748.390106 214.912125 
L 753.570042 220.975508 
L 758.749978 214.589281 
L 763.929914 210.630289 
L 769.109851 204.872301 
L 774.289787 212.248566 
L 779.469723 208.585442 
L 784.649659 197.25726 
L 789.829596 200.611759 
L 795.009532 201.123445 
L 800.189468 205.13107 
L 805.369404 201.999223 
L 810.549341 203.998839 
L 815.729277 201.288799 
L 820.909213 199.72818 
L 826.089149 192.08846 
L 831.269086 195.637102 
L 836.449022 185.582795 
L 841.628958 169.392954 
L 846.808894 176.308734 
L 851.988831 167.929495 
L 857.168767 171.663246 
L 862.348703 178.960775 
L 867.528639 169.251612 
L 872.708576 172.521115 
L 877.888512 174.025692 
L 883.068448 166.095754 
L 888.248384 168.733252 
L 893.428321 174.930345 
L 898.608257 164.01201 
L 903.788193 162.954536 
L 908.968129 173.299428 
L 914.148066 170.927258 
L 919.328002 171.632498 
L 924.507938 157.005218 
L 929.687874 166.178896 
L 934.867811 160.879446 
L 940.047747 162.886035 
L 945.227683 161.59902 
L 950.407619 163.998219 
L 955.587556 150.681866 
L 960.767492 150.892946 
L 965.947428 147.393118 
L 971.127364 138.504721 
L 976.307301 133.619325 
L 981.487237 138.104685 
L 986.667173 137.011104 
L 991.847109 138.593532 
L 997.027046 139.792555 
L 1002.206982 135.693331 
L 1007.386918 132.78457 
L 1012.566854 137.97887 
L 1017.746791 142.871209 
L 1022.926727 138.20348 
L 1028.106663 141.371991 
L 1033.2866 140.67268 
L 1038.466536 143.691023 
L 1043.646472 145.502134 
L 1048.826408 143.895007 
L 1054.006345 144.820078 
L 1064.366217 143.806738 
L 1069.546153 146.623062 
L 1074.72609 149.856447 
L 1079.906026 138.348725 
L 1085.085962 133.092268 
L 1090.265898 125.91372 
L 1095.445835 136.278838 
L 1100.625771 132.664306 
L 1105.805707 136.84158 
L 1110.985643 134.14466 
L 1116.16558 142.208126 
L 1121.345516 147.673896 
L 1126.525452 145.474534 
L 1131.705388 146.836858 
L 1136.885325 153.908701 
L 1136.885325 153.908701 
" clip-path="url(#pf82cfc7f65)" style="fill: none; stroke: #d62728; stroke-width: 1.5; stroke-linecap: square"/>
   </g>
   <g id="line2d_43">
    <path d="M 147.5175 172.536602 
L 152.697436 357.590013 
L 157.877373 260.590979 
L 163.057309 374.654456 
L 168.237245 419.438474 
L 173.417181 381.1515 
L 178.597118 414.232307 
L 183.777054 366.794415 
L 188.95699 378.573655 
L 199.316863 378.68344 
L 204.496799 372.526039 
L 209.676735 364.67452 
L 214.856671 364.394024 
L 220.036608 396.218505 
L 225.216544 395.396935 
L 235.576416 388.794881 
L 240.756353 383.972041 
L 245.936289 372.720343 
L 251.116225 355.619065 
L 256.296161 367.67687 
L 261.476098 334.367897 
L 266.656034 339.939616 
L 271.83597 325.666805 
L 277.015906 345.466022 
L 282.195843 329.962469 
L 287.375779 301.785803 
L 292.555715 285.045724 
L 297.735651 302.498907 
L 302.915588 317.508266 
L 308.095524 336.175256 
L 313.27546 317.149449 
L 318.455396 376.409897 
L 323.635333 348.205851 
L 328.815269 343.291522 
L 333.995205 347.858297 
L 339.175141 336.467047 
L 344.355078 345.351003 
L 349.535014 331.36469 
L 354.71495 362.428363 
L 359.894886 344.038233 
L 365.074823 333.73234 
L 370.254759 328.844426 
L 375.434695 340.179523 
L 380.614631 335.700146 
L 385.794568 343.224149 
L 390.974504 334.792761 
L 396.15444 339.402831 
L 401.334376 359.481708 
L 406.514313 359.472014 
L 411.694249 363.376191 
L 416.874185 367.648199 
L 422.054121 371.771084 
L 427.234058 396.527851 
L 432.413994 394.914683 
L 437.59393 403.940742 
L 442.773867 317.378354 
L 447.953803 335.324796 
L 453.133739 354.450981 
L 458.313675 316.121448 
L 463.493612 384.913925 
L 468.673548 314.903439 
L 473.853484 259.797067 
L 479.03342 295.096321 
L 484.213357 283.326267 
L 489.393293 270.379404 
L 494.573229 270.070236 
L 499.753165 269.106623 
L 504.933102 287.641095 
L 510.113038 317.85266 
L 515.292974 344.101044 
L 520.47291 351.280809 
L 525.652847 366.500954 
L 530.832783 361.623398 
L 536.012719 361.630993 
L 541.192655 376.818412 
L 546.372592 418.365531 
L 551.552528 415.750526 
L 556.732464 430.201748 
L 561.9124 398.773185 
L 567.092337 398.282573 
L 572.272273 390.019532 
L 577.452209 429.944066 
L 582.632145 404.072887 
L 587.812082 389.634002 
L 592.992018 394.921604 
L 598.171954 399.522384 
L 603.35189 392.885893 
L 608.531827 385.002325 
L 613.711763 388.460758 
L 618.891699 386.178984 
L 624.071635 381.085926 
L 629.251572 386.786106 
L 634.431508 378.85162 
L 639.611444 371.55897 
L 644.79138 376.132749 
L 649.971317 373.26127 
L 655.151253 377.229802 
L 660.331189 380.898101 
L 665.511125 379.727607 
L 670.691062 423.329551 
L 675.870998 401.278282 
L 681.050934 393.16696 
L 686.23087 397.750226 
L 691.410807 395.037164 
L 696.590743 385.599803 
L 701.770679 394.299591 
L 706.950615 397.846771 
L 712.130552 399.954442 
L 717.310488 389.853284 
L 722.490424 414.102412 
L 727.670361 397.772591 
L 732.850297 394.047086 
L 738.030233 397.706269 
L 743.210169 400.322689 
L 748.390106 395.858637 
L 753.570042 394.874592 
L 758.749978 399.511968 
L 763.929914 397.632368 
L 769.109851 392.689659 
L 774.289787 397.335541 
L 779.469723 393.561059 
L 784.649659 397.730561 
L 789.829596 394.248379 
L 795.009532 398.703415 
L 800.189468 394.566092 
L 805.369404 391.785369 
L 810.549341 396.381587 
L 815.729277 396.198724 
L 820.909213 396.438356 
L 826.089149 398.536672 
L 831.269086 398.110185 
L 836.449022 393.684498 
L 846.808894 411.238547 
L 851.988831 401.213064 
L 857.168767 410.053509 
L 862.348703 403.847772 
L 867.528639 407.738415 
L 872.708576 398.383918 
L 877.888512 401.228318 
L 883.068448 409.059565 
L 888.248384 405.947006 
L 893.428321 400.59972 
L 898.608257 397.439594 
L 903.788193 405.088061 
L 908.968129 404.081196 
L 914.148066 407.344324 
L 919.328002 404.34089 
L 924.507938 408.579699 
L 929.687874 410.612831 
L 934.867811 412.1574 
L 940.047747 410.269711 
L 945.227683 416.20617 
L 950.407619 411.224586 
L 955.587556 416.36536 
L 960.767492 418.07192 
L 965.947428 420.392514 
L 971.127364 431.149618 
L 981.487237 430.962271 
L 986.667173 428.027575 
L 991.847109 426.008985 
L 997.027046 425.446035 
L 1007.386918 428.227247 
L 1012.566854 427.681577 
L 1017.746791 427.484432 
L 1022.926727 431.163666 
L 1028.106663 427.613768 
L 1033.2866 425.755107 
L 1038.466536 426.162862 
L 1043.646472 421.666885 
L 1048.826408 421.744124 
L 1054.006345 424.014941 
L 1059.186281 420.829733 
L 1064.366217 421.703529 
L 1069.546153 416.67886 
L 1074.72609 417.702652 
L 1079.906026 403.857054 
L 1085.085962 414.011555 
L 1090.265898 413.456054 
L 1095.445835 406.909997 
L 1100.625771 409.874218 
L 1105.805707 406.559102 
L 1110.985643 407.773957 
L 1116.16558 404.670332 
L 1121.345516 400.399619 
L 1126.525452 402.617575 
L 1131.705388 400.66492 
L 1136.885325 396.205559 
L 1136.885325 396.205559 
" clip-path="url(#pf82cfc7f65)" style="fill: none; stroke: #9467bd; stroke-width: 1.5; stroke-linecap: square"/>
   </g>
   <g id="patch_3">
    <path d="M 147.5175 625.568417 
L 147.5175 67.2065 
" style="fill: none; stroke: #000000; stroke-width: 0.8; stroke-linejoin: miter; stroke-linecap: square"/>
   </g>
   <g id="patch_4">
    <path d="M 1136.885325 625.568417 
L 1136.885325 67.2065 
" style="fill: none; stroke: #000000; stroke-width: 0.8; stroke-linejoin: miter; stroke-linecap: square"/>
   </g>
   <g id="patch_5">
    <path d="M 147.5175 625.568417 
L 1136.885325 625.568417 
" style="fill: none; stroke: #000000; stroke-width: 0.8; stroke-linejoin: miter; stroke-linecap: square"/>
   </g>
   <g id="patch_6">
    <path d="M 147.5175 67.2065 
L 1136.885325 67.2065 
" style="fill: none; stroke: #000000; stroke-width: 0.8; stroke-linejoin: miter; stroke-linecap: square"/>
   </g>
   <g id="text_16">
    <!-- Optimized weights over time -->
    <g transform="translate(483.206725 61.2065) scale(0.22 -0.22)">
     <defs>
      <path id="DejaVuSans-4f" d="M 2522 4238 
Q 1834 4238 1429 3725 
Q 1025 3213 1025 2328 
Q 1025 1447 1429 934 
Q 1834 422 2522 422 
Q 3209 422 3611 934 
Q 4013 1447 4013 2328 
Q 4013 3213 3611 3725 
Q 3209 4238 2522 4238 
z
M 2522 4750 
Q 3503 4750 4090 4092 
Q 4678 3434 4678 2328 
Q 4678 1225 4090 567 
Q 3503 -91 2522 -91 
Q 1538 -91 948 565 
Q 359 1222 359 2328 
Q 359 3434 948 4092 
Q 1538 4750 2522 4750 
z
" transform="scale(0.015625)"/>
      <path id="DejaVuSans-70" d="M 1159 525 
L 1159 -1331 
L 581 -1331 
L 581 3500 
L 1159 3500 
L 1159 2969 
Q 1341 3281 1617 3432 
Q 1894 3584 2278 3584 
Q 2916 3584 3314 3078 
Q 3713 2572 3713 1747 
Q 3713 922 3314 415 
Q 2916 -91 2278 -91 
Q 1894 -91 1617 61 
Q 1341 213 1159 525 
z
M 3116 1747 
Q 3116 2381 2855 2742 
Q 2594 3103 2138 3103 
Q 1681 3103 1420 2742 
Q 1159 2381 1159 1747 
Q 1159 1113 1420 752 
Q 1681 391 2138 391 
Q 2594 391 2855 752 
Q 3116 1113 3116 1747 
z
" transform="scale(0.015625)"/>
      <path id="DejaVuSans-74" d="M 1172 4494 
L 1172 3500 
L 2356 3500 
L 2356 3053 
L 1172 3053 
L 1172 1153 
Q 1172 725 1289 603 
Q 1406 481 1766 481 
L 2356 481 
L 2356 0 
L 1766 0 
Q 1100 0 847 248 
Q 594 497 594 1153 
L 594 3053 
L 172 3053 
L 172 3500 
L 594 3500 
L 594 4494 
L 1172 4494 
z
" transform="scale(0.015625)"/>
      <path id="DejaVuSans-69" d="M 603 3500 
L 1178 3500 
L 1178 0 
L 603 0 
L 603 3500 
z
M 603 4863 
L 1178 4863 
L 1178 4134 
L 603 4134 
L 603 4863 
z
" transform="scale(0.015625)"/>
      <path id="DejaVuSans-6d" d="M 3328 2828 
Q 3544 3216 3844 3400 
Q 4144 3584 4550 3584 
Q 5097 3584 5394 3201 
Q 5691 2819 5691 2113 
L 5691 0 
L 5113 0 
L 5113 2094 
Q 5113 2597 4934 2840 
Q 4756 3084 4391 3084 
Q 3944 3084 3684 2787 
Q 3425 2491 3425 1978 
L 3425 0 
L 2847 0 
L 2847 2094 
Q 2847 2600 2669 2842 
Q 2491 3084 2119 3084 
Q 1678 3084 1418 2786 
Q 1159 2488 1159 1978 
L 1159 0 
L 581 0 
L 581 3500 
L 1159 3500 
L 1159 2956 
Q 1356 3278 1631 3431 
Q 1906 3584 2284 3584 
Q 2666 3584 2933 3390 
Q 3200 3197 3328 2828 
z
" transform="scale(0.015625)"/>
      <path id="DejaVuSans-7a" d="M 353 3500 
L 3084 3500 
L 3084 2975 
L 922 459 
L 3084 459 
L 3084 0 
L 275 0 
L 275 525 
L 2438 3041 
L 353 3041 
L 353 3500 
z
" transform="scale(0.015625)"/>
      <path id="DejaVuSans-65" d="M 3597 1894 
L 3597 1613 
L 953 1613 
Q 991 1019 1311 708 
Q 1631 397 2203 397 
Q 2534 397 2845 478 
Q 3156 559 3463 722 
L 3463 178 
Q 3153 47 2828 -22 
Q 2503 -91 2169 -91 
Q 1331 -91 842 396 
Q 353 884 353 1716 
Q 353 2575 817 3079 
Q 1281 3584 2069 3584 
Q 2775 3584 3186 3129 
Q 3597 2675 3597 1894 
z
M 3022 2063 
Q 3016 2534 2758 2815 
Q 2500 3097 2075 3097 
Q 1594 3097 1305 2825 
Q 1016 2553 972 2059 
L 3022 2063 
z
" transform="scale(0.015625)"/>
      <path id="DejaVuSans-64" d="M 2906 2969 
L 2906 4863 
L 3481 4863 
L 3481 0 
L 2906 0 
L 2906 525 
Q 2725 213 2448 61 
Q 2172 -91 1784 -91 
Q 1150 -91 751 415 
Q 353 922 353 1747 
Q 353 2572 751 3078 
Q 1150 3584 1784 3584 
Q 2172 3584 2448 3432 
Q 2725 3281 2906 2969 
z
M 947 1747 
Q 947 1113 1208 752 
Q 1469 391 1925 391 
Q 2381 391 2643 752 
Q 2906 1113 2906 1747 
Q 2906 2381 2643 2742 
Q 2381 3103 1925 3103 
Q 1469 3103 1208 2742 
Q 947 2381 947 1747 
z
" transform="scale(0.015625)"/>
      <path id="DejaVuSans-20" transform="scale(0.015625)"/>
      <path id="DejaVuSans-77" d="M 269 3500 
L 844 3500 
L 1563 769 
L 2278 3500 
L 2956 3500 
L 3675 769 
L 4391 3500 
L 4966 3500 
L 4050 0 
L 3372 0 
L 2619 2869 
L 1863 0 
L 1184 0 
L 269 3500 
z
" transform="scale(0.015625)"/>
      <path id="DejaVuSans-67" d="M 2906 1791 
Q 2906 2416 2648 2759 
Q 2391 3103 1925 3103 
Q 1463 3103 1205 2759 
Q 947 2416 947 1791 
Q 947 1169 1205 825 
Q 1463 481 1925 481 
Q 2391 481 2648 825 
Q 2906 1169 2906 1791 
z
M 3481 434 
Q 3481 -459 3084 -895 
Q 2688 -1331 1869 -1331 
Q 1566 -1331 1297 -1286 
Q 1028 -1241 775 -1147 
L 775 -588 
Q 1028 -725 1275 -790 
Q 1522 -856 1778 -856 
Q 2344 -856 2625 -561 
Q 2906 -266 2906 331 
L 2906 616 
Q 2728 306 2450 153 
Q 2172 0 1784 0 
Q 1141 0 747 490 
Q 353 981 353 1791 
Q 353 2603 747 3093 
Q 1141 3584 1784 3584 
Q 2172 3584 2450 3431 
Q 2728 3278 2906 2969 
L 2906 3500 
L 3481 3500 
L 3481 434 
z
" transform="scale(0.015625)"/>
      <path id="DejaVuSans-68" d="M 3513 2113 
L 3513 0 
L 2938 0 
L 2938 2094 
Q 2938 2591 2744 2837 
Q 2550 3084 2163 3084 
Q 1697 3084 1428 2787 
Q 1159 2491 1159 1978 
L 1159 0 
L 581 0 
L 581 4863 
L 1159 4863 
L 1159 2956 
Q 1366 3272 1645 3428 
Q 1925 3584 2291 3584 
Q 2894 3584 3203 3211 
Q 3513 2838 3513 2113 
z
" transform="scale(0.015625)"/>
      <path id="DejaVuSans-73" d="M 2834 3397 
L 2834 2853 
Q 2591 2978 2328 3040 
Q 2066 3103 1784 3103 
Q 1356 3103 1142 2972 
Q 928 2841 928 2578 
Q 928 2378 1081 2264 
Q 1234 2150 1697 2047 
L 1894 2003 
Q 2506 1872 2764 1633 
Q 3022 1394 3022 966 
Q 3022 478 2636 193 
Q 2250 -91 1575 -91 
Q 1294 -91 989 -36 
Q 684 19 347 128 
L 347 722 
Q 666 556 975 473 
Q 1284 391 1588 391 
Q 1994 391 2212 530 
Q 2431 669 2431 922 
Q 2431 1156 2273 1281 
Q 2116 1406 1581 1522 
L 1381 1569 
Q 847 1681 609 1914 
Q 372 2147 372 2553 
Q 372 3047 722 3315 
Q 1072 3584 1716 3584 
Q 2034 3584 2315 3537 
Q 2597 3491 2834 3397 
z
" transform="scale(0.015625)"/>
      <path id="DejaVuSans-6f" d="M 1959 3097 
Q 1497 3097 1228 2736 
Q 959 2375 959 1747 
Q 959 1119 1226 758 
Q 1494 397 1959 397 
Q 2419 397 2687 759 
Q 2956 1122 2956 1747 
Q 2956 2369 2687 2733 
Q 2419 3097 1959 3097 
z
M 1959 3584 
Q 2709 3584 3137 3096 
Q 3566 2609 3566 1747 
Q 3566 888 3137 398 
Q 2709 -91 1959 -91 
Q 1206 -91 779 398 
Q 353 888 353 1747 
Q 353 2609 779 3096 
Q 1206 3584 1959 3584 
z
" transform="scale(0.015625)"/>
      <path id="DejaVuSans-76" d="M 191 3500 
L 800 3500 
L 1894 563 
L 2988 3500 
L 3597 3500 
L 2284 0 
L 1503 0 
L 191 3500 
z
" transform="scale(0.015625)"/>
      <path id="DejaVuSans-72" d="M 2631 2963 
Q 2534 3019 2420 3045 
Q 2306 3072 2169 3072 
Q 1681 3072 1420 2755 
Q 1159 2438 1159 1844 
L 1159 0 
L 581 0 
L 581 3500 
L 1159 3500 
L 1159 2956 
Q 1341 3275 1631 3429 
Q 1922 3584 2338 3584 
Q 2397 3584 2469 3576 
Q 2541 3569 2628 3553 
L 2631 2963 
z
" transform="scale(0.015625)"/>
     </defs>
     <use xlink:href="#DejaVuSans-4f"/>
     <use xlink:href="#DejaVuSans-70" x="78.710938"/>
     <use xlink:href="#DejaVuSans-74" x="142.1875"/>
     <use xlink:href="#DejaVuSans-69" x="181.396484"/>
     <use xlink:href="#DejaVuSans-6d" x="209.179688"/>
     <use xlink:href="#DejaVuSans-69" x="306.591797"/>
     <use xlink:href="#DejaVuSans-7a" x="334.375"/>
     <use xlink:href="#DejaVuSans-65" x="386.865234"/>
     <use xlink:href="#DejaVuSans-64" x="448.388672"/>
     <use xlink:href="#DejaVuSans-20" x="511.865234"/>
     <use xlink:href="#DejaVuSans-77" x="543.652344"/>
     <use xlink:href="#DejaVuSans-65" x="625.439453"/>
     <use xlink:href="#DejaVuSans-69" x="686.962891"/>
     <use xlink:href="#DejaVuSans-67" x="714.746094"/>
     <use xlink:href="#DejaVuSans-68" x="778.222656"/>
     <use xlink:href="#DejaVuSans-74" x="841.601562"/>
     <use xlink:href="#DejaVuSans-73" x="880.810547"/>
     <use xlink:href="#DejaVuSans-20" x="932.910156"/>
     <use xlink:href="#DejaVuSans-6f" x="964.697266"/>
     <use xlink:href="#DejaVuSans-76" x="1025.878906"/>
     <use xlink:href="#DejaVuSans-65" x="1085.058594"/>
     <use xlink:href="#DejaVuSans-72" x="1146.582031"/>
     <use xlink:href="#DejaVuSans-20" x="1187.695312"/>
     <use xlink:href="#DejaVuSans-74" x="1219.482422"/>
     <use xlink:href="#DejaVuSans-69" x="1258.691406"/>
     <use xlink:href="#DejaVuSans-6d" x="1286.474609"/>
     <use xlink:href="#DejaVuSans-65" x="1383.886719"/>
    </g>
   </g>
   <g id="legend_1">
    <g id="patch_7">
     <path d="M 976.240012 620.568417 
L 1129.885325 620.568417 
Q 1131.885325 620.568417 1131.885325 618.568417 
L 1131.885325 546.177792 
Q 1131.885325 544.177792 1129.885325 544.177792 
L 976.240012 544.177792 
Q 974.240012 544.177792 974.240012 546.177792 
L 974.240012 618.568417 
Q 974.240012 620.568417 976.240012 620.568417 
z
" style="fill: #ffffff; opacity: 0.8; stroke: #cccccc; stroke-linejoin: miter"/>
    </g>
    <g id="line2d_44">
     <path d="M 978.240012 552.276229 
L 988.240012 552.276229 
L 998.240012 552.276229 
" style="fill: none; stroke: #1f77b4; stroke-width: 1.5; stroke-linecap: square"/>
    </g>
    <g id="text_17">
     <!-- Indice Azionario Paese 1 -->
     <g transform="translate(1006.240012 555.776229) scale(0.1 -0.1)">
      <defs>
       <path id="DejaVuSans-49" d="M 628 4666 
L 1259 4666 
L 1259 0 
L 628 0 
L 628 4666 
z
" transform="scale(0.015625)"/>
       <path id="DejaVuSans-6e" d="M 3513 2113 
L 3513 0 
L 2938 0 
L 2938 2094 
Q 2938 2591 2744 2837 
Q 2550 3084 2163 3084 
Q 1697 3084 1428 2787 
Q 1159 2491 1159 1978 
L 1159 0 
L 581 0 
L 581 3500 
L 1159 3500 
L 1159 2956 
Q 1366 3272 1645 3428 
Q 1925 3584 2291 3584 
Q 2894 3584 3203 3211 
Q 3513 2838 3513 2113 
z
" transform="scale(0.015625)"/>
       <path id="DejaVuSans-63" d="M 3122 3366 
L 3122 2828 
Q 2878 2963 2633 3030 
Q 2388 3097 2138 3097 
Q 1578 3097 1268 2742 
Q 959 2388 959 1747 
Q 959 1106 1268 751 
Q 1578 397 2138 397 
Q 2388 397 2633 464 
Q 2878 531 3122 666 
L 3122 134 
Q 2881 22 2623 -34 
Q 2366 -91 2075 -91 
Q 1284 -91 818 406 
Q 353 903 353 1747 
Q 353 2603 823 3093 
Q 1294 3584 2113 3584 
Q 2378 3584 2631 3529 
Q 2884 3475 3122 3366 
z
" transform="scale(0.015625)"/>
       <path id="DejaVuSans-41" d="M 2188 4044 
L 1331 1722 
L 3047 1722 
L 2188 4044 
z
M 1831 4666 
L 2547 4666 
L 4325 0 
L 3669 0 
L 3244 1197 
L 1141 1197 
L 716 0 
L 50 0 
L 1831 4666 
z
" transform="scale(0.015625)"/>
       <path id="DejaVuSans-61" d="M 2194 1759 
Q 1497 1759 1228 1600 
Q 959 1441 959 1056 
Q 959 750 1161 570 
Q 1363 391 1709 391 
Q 2188 391 2477 730 
Q 2766 1069 2766 1631 
L 2766 1759 
L 2194 1759 
z
M 3341 1997 
L 3341 0 
L 2766 0 
L 2766 531 
Q 2569 213 2275 61 
Q 1981 -91 1556 -91 
Q 1019 -91 701 211 
Q 384 513 384 1019 
Q 384 1609 779 1909 
Q 1175 2209 1959 2209 
L 2766 2209 
L 2766 2266 
Q 2766 2663 2505 2880 
Q 2244 3097 1772 3097 
Q 1472 3097 1187 3025 
Q 903 2953 641 2809 
L 641 3341 
Q 956 3463 1253 3523 
Q 1550 3584 1831 3584 
Q 2591 3584 2966 3190 
Q 3341 2797 3341 1997 
z
" transform="scale(0.015625)"/>
       <path id="DejaVuSans-50" d="M 1259 4147 
L 1259 2394 
L 2053 2394 
Q 2494 2394 2734 2622 
Q 2975 2850 2975 3272 
Q 2975 3691 2734 3919 
Q 2494 4147 2053 4147 
L 1259 4147 
z
M 628 4666 
L 2053 4666 
Q 2838 4666 3239 4311 
Q 3641 3956 3641 3272 
Q 3641 2581 3239 2228 
Q 2838 1875 2053 1875 
L 1259 1875 
L 1259 0 
L 628 0 
L 628 4666 
z
" transform="scale(0.015625)"/>
      </defs>
      <use xlink:href="#DejaVuSans-49"/>
      <use xlink:href="#DejaVuSans-6e" x="29.492188"/>
      <use xlink:href="#DejaVuSans-64" x="92.871094"/>
      <use xlink:href="#DejaVuSans-69" x="156.347656"/>
      <use xlink:href="#DejaVuSans-63" x="184.130859"/>
      <use xlink:href="#DejaVuSans-65" x="239.111328"/>
      <use xlink:href="#DejaVuSans-20" x="300.634766"/>
      <use xlink:href="#DejaVuSans-41" x="332.421875"/>
      <use xlink:href="#DejaVuSans-7a" x="400.830078"/>
      <use xlink:href="#DejaVuSans-69" x="453.320312"/>
      <use xlink:href="#DejaVuSans-6f" x="481.103516"/>
      <use xlink:href="#DejaVuSans-6e" x="542.285156"/>
      <use xlink:href="#DejaVuSans-61" x="605.664062"/>
      <use xlink:href="#DejaVuSans-72" x="666.943359"/>
      <use xlink:href="#DejaVuSans-69" x="708.056641"/>
      <use xlink:href="#DejaVuSans-6f" x="735.839844"/>
      <use xlink:href="#DejaVuSans-20" x="797.021484"/>
      <use xlink:href="#DejaVuSans-50" x="828.808594"/>
      <use xlink:href="#DejaVuSans-61" x="884.611328"/>
      <use xlink:href="#DejaVuSans-65" x="945.890625"/>
      <use xlink:href="#DejaVuSans-73" x="1007.414062"/>
      <use xlink:href="#DejaVuSans-65" x="1059.513672"/>
      <use xlink:href="#DejaVuSans-20" x="1121.037109"/>
      <use xlink:href="#DejaVuSans-31" x="1152.824219"/>
     </g>
    </g>
    <g id="line2d_45">
     <path d="M 978.240012 566.954354 
L 988.240012 566.954354 
L 998.240012 566.954354 
" style="fill: none; stroke: #ff7f0e; stroke-width: 1.5; stroke-linecap: square"/>
    </g>
    <g id="text_18">
     <!-- Indice Azionario Paese 2 -->
     <g transform="translate(1006.240012 570.454354) scale(0.1 -0.1)">
      <use xlink:href="#DejaVuSans-49"/>
      <use xlink:href="#DejaVuSans-6e" x="29.492188"/>
      <use xlink:href="#DejaVuSans-64" x="92.871094"/>
      <use xlink:href="#DejaVuSans-69" x="156.347656"/>
      <use xlink:href="#DejaVuSans-63" x="184.130859"/>
      <use xlink:href="#DejaVuSans-65" x="239.111328"/>
      <use xlink:href="#DejaVuSans-20" x="300.634766"/>
      <use xlink:href="#DejaVuSans-41" x="332.421875"/>
      <use xlink:href="#DejaVuSans-7a" x="400.830078"/>
      <use xlink:href="#DejaVuSans-69" x="453.320312"/>
      <use xlink:href="#DejaVuSans-6f" x="481.103516"/>
      <use xlink:href="#DejaVuSans-6e" x="542.285156"/>
      <use xlink:href="#DejaVuSans-61" x="605.664062"/>
      <use xlink:href="#DejaVuSans-72" x="666.943359"/>
      <use xlink:href="#DejaVuSans-69" x="708.056641"/>
      <use xlink:href="#DejaVuSans-6f" x="735.839844"/>
      <use xlink:href="#DejaVuSans-20" x="797.021484"/>
      <use xlink:href="#DejaVuSans-50" x="828.808594"/>
      <use xlink:href="#DejaVuSans-61" x="884.611328"/>
      <use xlink:href="#DejaVuSans-65" x="945.890625"/>
      <use xlink:href="#DejaVuSans-73" x="1007.414062"/>
      <use xlink:href="#DejaVuSans-65" x="1059.513672"/>
      <use xlink:href="#DejaVuSans-20" x="1121.037109"/>
      <use xlink:href="#DejaVuSans-32" x="1152.824219"/>
     </g>
    </g>
    <g id="line2d_46">
     <path d="M 978.240012 581.632479 
L 988.240012 581.632479 
L 998.240012 581.632479 
" style="fill: none; stroke: #2ca02c; stroke-width: 1.5; stroke-linecap: square"/>
    </g>
    <g id="text_19">
     <!-- Indice Azionario Paese 3 -->
     <g transform="translate(1006.240012 585.132479) scale(0.1 -0.1)">
      <use xlink:href="#DejaVuSans-49"/>
      <use xlink:href="#DejaVuSans-6e" x="29.492188"/>
      <use xlink:href="#DejaVuSans-64" x="92.871094"/>
      <use xlink:href="#DejaVuSans-69" x="156.347656"/>
      <use xlink:href="#DejaVuSans-63" x="184.130859"/>
      <use xlink:href="#DejaVuSans-65" x="239.111328"/>
      <use xlink:href="#DejaVuSans-20" x="300.634766"/>
      <use xlink:href="#DejaVuSans-41" x="332.421875"/>
      <use xlink:href="#DejaVuSans-7a" x="400.830078"/>
      <use xlink:href="#DejaVuSans-69" x="453.320312"/>
      <use xlink:href="#DejaVuSans-6f" x="481.103516"/>
      <use xlink:href="#DejaVuSans-6e" x="542.285156"/>
      <use xlink:href="#DejaVuSans-61" x="605.664062"/>
      <use xlink:href="#DejaVuSans-72" x="666.943359"/>
      <use xlink:href="#DejaVuSans-69" x="708.056641"/>
      <use xlink:href="#DejaVuSans-6f" x="735.839844"/>
      <use xlink:href="#DejaVuSans-20" x="797.021484"/>
      <use xlink:href="#DejaVuSans-50" x="828.808594"/>
      <use xlink:href="#DejaVuSans-61" x="884.611328"/>
      <use xlink:href="#DejaVuSans-65" x="945.890625"/>
      <use xlink:href="#DejaVuSans-73" x="1007.414062"/>
      <use xlink:href="#DejaVuSans-65" x="1059.513672"/>
      <use xlink:href="#DejaVuSans-20" x="1121.037109"/>
      <use xlink:href="#DejaVuSans-33" x="1152.824219"/>
     </g>
    </g>
    <g id="line2d_47">
     <path d="M 978.240012 596.310604 
L 988.240012 596.310604 
L 998.240012 596.310604 
" style="fill: none; stroke: #d62728; stroke-width: 1.5; stroke-linecap: square"/>
    </g>
    <g id="text_20">
     <!-- Indice Azionario Paese 4 -->
     <g transform="translate(1006.240012 599.810604) scale(0.1 -0.1)">
      <use xlink:href="#DejaVuSans-49"/>
      <use xlink:href="#DejaVuSans-6e" x="29.492188"/>
      <use xlink:href="#DejaVuSans-64" x="92.871094"/>
      <use xlink:href="#DejaVuSans-69" x="156.347656"/>
      <use xlink:href="#DejaVuSans-63" x="184.130859"/>
      <use xlink:href="#DejaVuSans-65" x="239.111328"/>
      <use xlink:href="#DejaVuSans-20" x="300.634766"/>
      <use xlink:href="#DejaVuSans-41" x="332.421875"/>
      <use xlink:href="#DejaVuSans-7a" x="400.830078"/>
      <use xlink:href="#DejaVuSans-69" x="453.320312"/>
      <use xlink:href="#DejaVuSans-6f" x="481.103516"/>
      <use xlink:href="#DejaVuSans-6e" x="542.285156"/>
      <use xlink:href="#DejaVuSans-61" x="605.664062"/>
      <use xlink:href="#DejaVuSans-72" x="666.943359"/>
      <use xlink:href="#DejaVuSans-69" x="708.056641"/>
      <use xlink:href="#DejaVuSans-6f" x="735.839844"/>
      <use xlink:href="#DejaVuSans-20" x="797.021484"/>
      <use xlink:href="#DejaVuSans-50" x="828.808594"/>
      <use xlink:href="#DejaVuSans-61" x="884.611328"/>
      <use xlink:href="#DejaVuSans-65" x="945.890625"/>
      <use xlink:href="#DejaVuSans-73" x="1007.414062"/>
      <use xlink:href="#DejaVuSans-65" x="1059.513672"/>
      <use xlink:href="#DejaVuSans-20" x="1121.037109"/>
      <use xlink:href="#DejaVuSans-34" x="1152.824219"/>
     </g>
    </g>
    <g id="line2d_48">
     <path d="M 978.240012 610.988729 
L 988.240012 610.988729 
L 998.240012 610.988729 
" style="fill: none; stroke: #9467bd; stroke-width: 1.5; stroke-linecap: square"/>
    </g>
    <g id="text_21">
     <!-- Indice Azionario Paese 5 -->
     <g transform="translate(1006.240012 614.488729) scale(0.1 -0.1)">
      <use xlink:href="#DejaVuSans-49"/>
      <use xlink:href="#DejaVuSans-6e" x="29.492188"/>
      <use xlink:href="#DejaVuSans-64" x="92.871094"/>
      <use xlink:href="#DejaVuSans-69" x="156.347656"/>
      <use xlink:href="#DejaVuSans-63" x="184.130859"/>
      <use xlink:href="#DejaVuSans-65" x="239.111328"/>
      <use xlink:href="#DejaVuSans-20" x="300.634766"/>
      <use xlink:href="#DejaVuSans-41" x="332.421875"/>
      <use xlink:href="#DejaVuSans-7a" x="400.830078"/>
      <use xlink:href="#DejaVuSans-69" x="453.320312"/>
      <use xlink:href="#DejaVuSans-6f" x="481.103516"/>
      <use xlink:href="#DejaVuSans-6e" x="542.285156"/>
      <use xlink:href="#DejaVuSans-61" x="605.664062"/>
      <use xlink:href="#DejaVuSans-72" x="666.943359"/>
      <use xlink:href="#DejaVuSans-69" x="708.056641"/>
      <use xlink:href="#DejaVuSans-6f" x="735.839844"/>
      <use xlink:href="#DejaVuSans-20" x="797.021484"/>
      <use xlink:href="#DejaVuSans-50" x="828.808594"/>
      <use xlink:href="#DejaVuSans-61" x="884.611328"/>
      <use xlink:href="#DejaVuSans-65" x="945.890625"/>
      <use xlink:href="#DejaVuSans-73" x="1007.414062"/>
      <use xlink:href="#DejaVuSans-65" x="1059.513672"/>
      <use xlink:href="#DejaVuSans-20" x="1121.037109"/>
      <use xlink:href="#DejaVuSans-35" x="1152.824219"/>
     </g>
    </g>
   </g>
  </g>
 </g>
 <defs>
  <clipPath id="pf82cfc7f65">
   <rect x="147.5175" y="67.2065" width="989.367825" height="558.361917"/>
  </clipPath>
 </defs>
</svg>
