<?xml version="1.0" encoding="utf-8" standalone="no"?>
<!DOCTYPE svg PUBLIC "-//W3C//DTD SVG 1.1//EN"
  "http://www.w3.org/Graphics/SVG/1.1/DTD/svg11.dtd">
<svg xmlns:xlink="http://www.w3.org/1999/xlink" width="1149.12pt" height="550.08pt" viewBox="0 0 1149.12 550.08" xmlns="http://www.w3.org/2000/svg" version="1.1">
 <metadata>
  <rdf:RDF xmlns:dc="http://purl.org/dc/elements/1.1/" xmlns:cc="http://creativecommons.org/ns#" xmlns:rdf="http://www.w3.org/1999/02/22-rdf-syntax-ns#">
   <cc:Work>
    <dc:type rdf:resource="http://purl.org/dc/dcmitype/StillImage"/>
    <dc:date>1980-01-01T00:00:00+00:00</dc:date>
    <dc:format>image/svg+xml</dc:format>
    <dc:creator>
     <cc:Agent>
      <dc:title>Matplotlib v3.8.4, https://matplotlib.org/</dc:title>
     </cc:Agent>
    </dc:creator>
   </cc:Work>
  </rdf:RDF>
 </metadata>
 <defs>
  <style type="text/css">*{stroke-linejoin: round; stroke-linecap: butt}</style>
 </defs>
 <g id="figure_1">
  <g id="patch_1">
   <path d="M 0 550.08 
L 1149.12 550.08 
L 1149.12 0 
L 0 0 
z
" style="fill: #ffffff"/>
  </g>
  <g id="axes_1">
   <g id="patch_2">
    <path d="M 100.04925 505.704333 
L 1108.268043 505.704333 
L 1108.268043 17.19 
L 100.04925 17.19 
z
" style="fill: #ffffff"/>
   </g>
   <g id="matplotlib.axis_1">
    <g id="xtick_1">
     <g id="line2d_1">
      <defs>
       <path id="m30424d43ae" d="M 0 0 
L 0 3.5 
" style="stroke: #000000; stroke-width: 0.8"/>
      </defs>
      <g>
       <use xlink:href="#m30424d43ae" x="148.388507" y="505.704333" style="stroke: #000000; stroke-width: 0.8"/>
      </g>
     </g>
     <g id="text_1">
      <!-- 2019-01 -->
      <g transform="translate(127.497101 520.302771) scale(0.1 -0.1)">
       <defs>
        <path id="DejaVuSans-32" d="M 1228 531 
L 3431 531 
L 3431 0 
L 469 0 
L 469 531 
Q 828 903 1448 1529 
Q 2069 2156 2228 2338 
Q 2531 2678 2651 2914 
Q 2772 3150 2772 3378 
Q 2772 3750 2511 3984 
Q 2250 4219 1831 4219 
Q 1534 4219 1204 4116 
Q 875 4013 500 3803 
L 500 4441 
Q 881 4594 1212 4672 
Q 1544 4750 1819 4750 
Q 2544 4750 2975 4387 
Q 3406 4025 3406 3419 
Q 3406 3131 3298 2873 
Q 3191 2616 2906 2266 
Q 2828 2175 2409 1742 
Q 1991 1309 1228 531 
z
" transform="scale(0.015625)"/>
        <path id="DejaVuSans-30" d="M 2034 4250 
Q 1547 4250 1301 3770 
Q 1056 3291 1056 2328 
Q 1056 1369 1301 889 
Q 1547 409 2034 409 
Q 2525 409 2770 889 
Q 3016 1369 3016 2328 
Q 3016 3291 2770 3770 
Q 2525 4250 2034 4250 
z
M 2034 4750 
Q 2819 4750 3233 4129 
Q 3647 3509 3647 2328 
Q 3647 1150 3233 529 
Q 2819 -91 2034 -91 
Q 1250 -91 836 529 
Q 422 1150 422 2328 
Q 422 3509 836 4129 
Q 1250 4750 2034 4750 
z
" transform="scale(0.015625)"/>
        <path id="DejaVuSans-31" d="M 794 531 
L 1825 531 
L 1825 4091 
L 703 3866 
L 703 4441 
L 1819 4666 
L 2450 4666 
L 2450 531 
L 3481 531 
L 3481 0 
L 794 0 
L 794 531 
z
" transform="scale(0.015625)"/>
        <path id="DejaVuSans-39" d="M 703 97 
L 703 672 
Q 941 559 1184 500 
Q 1428 441 1663 441 
Q 2288 441 2617 861 
Q 2947 1281 2994 2138 
Q 2813 1869 2534 1725 
Q 2256 1581 1919 1581 
Q 1219 1581 811 2004 
Q 403 2428 403 3163 
Q 403 3881 828 4315 
Q 1253 4750 1959 4750 
Q 2769 4750 3195 4129 
Q 3622 3509 3622 2328 
Q 3622 1225 3098 567 
Q 2575 -91 1691 -91 
Q 1453 -91 1209 -44 
Q 966 3 703 97 
z
M 1959 2075 
Q 2384 2075 2632 2365 
Q 2881 2656 2881 3163 
Q 2881 3666 2632 3958 
Q 2384 4250 1959 4250 
Q 1534 4250 1286 3958 
Q 1038 3666 1038 3163 
Q 1038 2656 1286 2365 
Q 1534 2075 1959 2075 
z
" transform="scale(0.015625)"/>
        <path id="DejaVuSans-2d" d="M 313 2009 
L 1997 2009 
L 1997 1497 
L 313 1497 
L 313 2009 
z
" transform="scale(0.015625)"/>
       </defs>
       <use xlink:href="#DejaVuSans-32"/>
       <use xlink:href="#DejaVuSans-30" x="63.623047"/>
       <use xlink:href="#DejaVuSans-31" x="127.246094"/>
       <use xlink:href="#DejaVuSans-39" x="190.869141"/>
       <use xlink:href="#DejaVuSans-2d" x="254.492188"/>
       <use xlink:href="#DejaVuSans-30" x="290.576172"/>
       <use xlink:href="#DejaVuSans-31" x="354.199219"/>
      </g>
     </g>
    </g>
    <g id="xtick_2">
     <g id="line2d_2">
      <g>
       <use xlink:href="#m30424d43ae" x="296.545192" y="505.704333" style="stroke: #000000; stroke-width: 0.8"/>
      </g>
     </g>
     <g id="text_2">
      <!-- 2019-03 -->
      <g transform="translate(275.653785 520.302771) scale(0.1 -0.1)">
       <defs>
        <path id="DejaVuSans-33" d="M 2597 2516 
Q 3050 2419 3304 2112 
Q 3559 1806 3559 1356 
Q 3559 666 3084 287 
Q 2609 -91 1734 -91 
Q 1441 -91 1130 -33 
Q 819 25 488 141 
L 488 750 
Q 750 597 1062 519 
Q 1375 441 1716 441 
Q 2309 441 2620 675 
Q 2931 909 2931 1356 
Q 2931 1769 2642 2001 
Q 2353 2234 1838 2234 
L 1294 2234 
L 1294 2753 
L 1863 2753 
Q 2328 2753 2575 2939 
Q 2822 3125 2822 3475 
Q 2822 3834 2567 4026 
Q 2313 4219 1838 4219 
Q 1578 4219 1281 4162 
Q 984 4106 628 3988 
L 628 4550 
Q 988 4650 1302 4700 
Q 1616 4750 1894 4750 
Q 2613 4750 3031 4423 
Q 3450 4097 3450 3541 
Q 3450 3153 3228 2886 
Q 3006 2619 2597 2516 
z
" transform="scale(0.015625)"/>
       </defs>
       <use xlink:href="#DejaVuSans-32"/>
       <use xlink:href="#DejaVuSans-30" x="63.623047"/>
       <use xlink:href="#DejaVuSans-31" x="127.246094"/>
       <use xlink:href="#DejaVuSans-39" x="190.869141"/>
       <use xlink:href="#DejaVuSans-2d" x="254.492188"/>
       <use xlink:href="#DejaVuSans-30" x="290.576172"/>
       <use xlink:href="#DejaVuSans-33" x="354.199219"/>
      </g>
     </g>
    </g>
    <g id="xtick_3">
     <g id="line2d_3">
      <g>
       <use xlink:href="#m30424d43ae" x="449.724136" y="505.704333" style="stroke: #000000; stroke-width: 0.8"/>
      </g>
     </g>
     <g id="text_3">
      <!-- 2019-05 -->
      <g transform="translate(428.83273 520.302771) scale(0.1 -0.1)">
       <defs>
        <path id="DejaVuSans-35" d="M 691 4666 
L 3169 4666 
L 3169 4134 
L 1269 4134 
L 1269 2991 
Q 1406 3038 1543 3061 
Q 1681 3084 1819 3084 
Q 2600 3084 3056 2656 
Q 3513 2228 3513 1497 
Q 3513 744 3044 326 
Q 2575 -91 1722 -91 
Q 1428 -91 1123 -41 
Q 819 9 494 109 
L 494 744 
Q 775 591 1075 516 
Q 1375 441 1709 441 
Q 2250 441 2565 725 
Q 2881 1009 2881 1497 
Q 2881 1984 2565 2268 
Q 2250 2553 1709 2553 
Q 1456 2553 1204 2497 
Q 953 2441 691 2322 
L 691 4666 
z
" transform="scale(0.015625)"/>
       </defs>
       <use xlink:href="#DejaVuSans-32"/>
       <use xlink:href="#DejaVuSans-30" x="63.623047"/>
       <use xlink:href="#DejaVuSans-31" x="127.246094"/>
       <use xlink:href="#DejaVuSans-39" x="190.869141"/>
       <use xlink:href="#DejaVuSans-2d" x="254.492188"/>
       <use xlink:href="#DejaVuSans-30" x="290.576172"/>
       <use xlink:href="#DejaVuSans-35" x="354.199219"/>
      </g>
     </g>
    </g>
    <g id="xtick_4">
     <g id="line2d_4">
      <g>
       <use xlink:href="#m30424d43ae" x="602.903081" y="505.704333" style="stroke: #000000; stroke-width: 0.8"/>
      </g>
     </g>
     <g id="text_4">
      <!-- 2019-07 -->
      <g transform="translate(582.011675 520.302771) scale(0.1 -0.1)">
       <defs>
        <path id="DejaVuSans-37" d="M 525 4666 
L 3525 4666 
L 3525 4397 
L 1831 0 
L 1172 0 
L 2766 4134 
L 525 4134 
L 525 4666 
z
" transform="scale(0.015625)"/>
       </defs>
       <use xlink:href="#DejaVuSans-32"/>
       <use xlink:href="#DejaVuSans-30" x="63.623047"/>
       <use xlink:href="#DejaVuSans-31" x="127.246094"/>
       <use xlink:href="#DejaVuSans-39" x="190.869141"/>
       <use xlink:href="#DejaVuSans-2d" x="254.492188"/>
       <use xlink:href="#DejaVuSans-30" x="290.576172"/>
       <use xlink:href="#DejaVuSans-37" x="354.199219"/>
      </g>
     </g>
    </g>
    <g id="xtick_5">
     <g id="line2d_5">
      <g>
       <use xlink:href="#m30424d43ae" x="758.593156" y="505.704333" style="stroke: #000000; stroke-width: 0.8"/>
      </g>
     </g>
     <g id="text_5">
      <!-- 2019-09 -->
      <g transform="translate(737.70175 520.302771) scale(0.1 -0.1)">
       <use xlink:href="#DejaVuSans-32"/>
       <use xlink:href="#DejaVuSans-30" x="63.623047"/>
       <use xlink:href="#DejaVuSans-31" x="127.246094"/>
       <use xlink:href="#DejaVuSans-39" x="190.869141"/>
       <use xlink:href="#DejaVuSans-2d" x="254.492188"/>
       <use xlink:href="#DejaVuSans-30" x="290.576172"/>
       <use xlink:href="#DejaVuSans-39" x="354.199219"/>
      </g>
     </g>
    </g>
    <g id="xtick_6">
     <g id="line2d_6">
      <g>
       <use xlink:href="#m30424d43ae" x="911.772101" y="505.704333" style="stroke: #000000; stroke-width: 0.8"/>
      </g>
     </g>
     <g id="text_6">
      <!-- 2019-11 -->
      <g transform="translate(890.880695 520.302771) scale(0.1 -0.1)">
       <use xlink:href="#DejaVuSans-32"/>
       <use xlink:href="#DejaVuSans-30" x="63.623047"/>
       <use xlink:href="#DejaVuSans-31" x="127.246094"/>
       <use xlink:href="#DejaVuSans-39" x="190.869141"/>
       <use xlink:href="#DejaVuSans-2d" x="254.492188"/>
       <use xlink:href="#DejaVuSans-31" x="290.576172"/>
       <use xlink:href="#DejaVuSans-31" x="354.199219"/>
      </g>
     </g>
    </g>
    <g id="xtick_7">
     <g id="line2d_7">
      <g>
       <use xlink:href="#m30424d43ae" x="1064.951046" y="505.704333" style="stroke: #000000; stroke-width: 0.8"/>
      </g>
     </g>
     <g id="text_7">
      <!-- 2020-01 -->
      <g transform="translate(1044.05964 520.302771) scale(0.1 -0.1)">
       <use xlink:href="#DejaVuSans-32"/>
       <use xlink:href="#DejaVuSans-30" x="63.623047"/>
       <use xlink:href="#DejaVuSans-32" x="127.246094"/>
       <use xlink:href="#DejaVuSans-30" x="190.869141"/>
       <use xlink:href="#DejaVuSans-2d" x="254.492188"/>
       <use xlink:href="#DejaVuSans-30" x="290.576172"/>
       <use xlink:href="#DejaVuSans-31" x="354.199219"/>
      </g>
     </g>
    </g>
   </g>
   <g id="matplotlib.axis_2">
    <g id="ytick_1">
     <g id="line2d_8">
      <defs>
       <path id="m9e68ec94ad" d="M 0 0 
L -3.5 0 
" style="stroke: #000000; stroke-width: 0.8"/>
      </defs>
      <g>
       <use xlink:href="#m9e68ec94ad" x="100.04925" y="456.778778" style="stroke: #000000; stroke-width: 0.8"/>
      </g>
     </g>
     <g id="text_8">
      <!-- 0.00 -->
      <g transform="translate(70.783625 460.577996) scale(0.1 -0.1)">
       <defs>
        <path id="DejaVuSans-2e" d="M 684 794 
L 1344 794 
L 1344 0 
L 684 0 
L 684 794 
z
" transform="scale(0.015625)"/>
       </defs>
       <use xlink:href="#DejaVuSans-30"/>
       <use xlink:href="#DejaVuSans-2e" x="63.623047"/>
       <use xlink:href="#DejaVuSans-30" x="95.410156"/>
       <use xlink:href="#DejaVuSans-30" x="159.033203"/>
      </g>
     </g>
    </g>
    <g id="ytick_2">
     <g id="line2d_9">
      <g>
       <use xlink:href="#m9e68ec94ad" x="100.04925" y="400.471163" style="stroke: #000000; stroke-width: 0.8"/>
      </g>
     </g>
     <g id="text_9">
      <!-- 0.05 -->
      <g transform="translate(70.783625 404.270381) scale(0.1 -0.1)">
       <use xlink:href="#DejaVuSans-30"/>
       <use xlink:href="#DejaVuSans-2e" x="63.623047"/>
       <use xlink:href="#DejaVuSans-30" x="95.410156"/>
       <use xlink:href="#DejaVuSans-35" x="159.033203"/>
      </g>
     </g>
    </g>
    <g id="ytick_3">
     <g id="line2d_10">
      <g>
       <use xlink:href="#m9e68ec94ad" x="100.04925" y="344.163548" style="stroke: #000000; stroke-width: 0.8"/>
      </g>
     </g>
     <g id="text_10">
      <!-- 0.10 -->
      <g transform="translate(70.783625 347.962767) scale(0.1 -0.1)">
       <use xlink:href="#DejaVuSans-30"/>
       <use xlink:href="#DejaVuSans-2e" x="63.623047"/>
       <use xlink:href="#DejaVuSans-31" x="95.410156"/>
       <use xlink:href="#DejaVuSans-30" x="159.033203"/>
      </g>
     </g>
    </g>
    <g id="ytick_4">
     <g id="line2d_11">
      <g>
       <use xlink:href="#m9e68ec94ad" x="100.04925" y="287.855933" style="stroke: #000000; stroke-width: 0.8"/>
      </g>
     </g>
     <g id="text_11">
      <!-- 0.15 -->
      <g transform="translate(70.783625 291.655152) scale(0.1 -0.1)">
       <use xlink:href="#DejaVuSans-30"/>
       <use xlink:href="#DejaVuSans-2e" x="63.623047"/>
       <use xlink:href="#DejaVuSans-31" x="95.410156"/>
       <use xlink:href="#DejaVuSans-35" x="159.033203"/>
      </g>
     </g>
    </g>
    <g id="ytick_5">
     <g id="line2d_12">
      <g>
       <use xlink:href="#m9e68ec94ad" x="100.04925" y="231.548318" style="stroke: #000000; stroke-width: 0.8"/>
      </g>
     </g>
     <g id="text_12">
      <!-- 0.20 -->
      <g transform="translate(70.783625 235.347537) scale(0.1 -0.1)">
       <use xlink:href="#DejaVuSans-30"/>
       <use xlink:href="#DejaVuSans-2e" x="63.623047"/>
       <use xlink:href="#DejaVuSans-32" x="95.410156"/>
       <use xlink:href="#DejaVuSans-30" x="159.033203"/>
      </g>
     </g>
    </g>
    <g id="ytick_6">
     <g id="line2d_13">
      <g>
       <use xlink:href="#m9e68ec94ad" x="100.04925" y="175.240703" style="stroke: #000000; stroke-width: 0.8"/>
      </g>
     </g>
     <g id="text_13">
      <!-- 0.25 -->
      <g transform="translate(70.783625 179.039922) scale(0.1 -0.1)">
       <use xlink:href="#DejaVuSans-30"/>
       <use xlink:href="#DejaVuSans-2e" x="63.623047"/>
       <use xlink:href="#DejaVuSans-32" x="95.410156"/>
       <use xlink:href="#DejaVuSans-35" x="159.033203"/>
      </g>
     </g>
    </g>
    <g id="ytick_7">
     <g id="line2d_14">
      <g>
       <use xlink:href="#m9e68ec94ad" x="100.04925" y="118.933088" style="stroke: #000000; stroke-width: 0.8"/>
      </g>
     </g>
     <g id="text_14">
      <!-- 0.30 -->
      <g transform="translate(70.783625 122.732307) scale(0.1 -0.1)">
       <use xlink:href="#DejaVuSans-30"/>
       <use xlink:href="#DejaVuSans-2e" x="63.623047"/>
       <use xlink:href="#DejaVuSans-33" x="95.410156"/>
       <use xlink:href="#DejaVuSans-30" x="159.033203"/>
      </g>
     </g>
    </g>
    <g id="ytick_8">
     <g id="line2d_15">
      <g>
       <use xlink:href="#m9e68ec94ad" x="100.04925" y="62.625474" style="stroke: #000000; stroke-width: 0.8"/>
      </g>
     </g>
     <g id="text_15">
      <!-- 0.35 -->
      <g transform="translate(70.783625 66.424692) scale(0.1 -0.1)">
       <use xlink:href="#DejaVuSans-30"/>
       <use xlink:href="#DejaVuSans-2e" x="63.623047"/>
       <use xlink:href="#DejaVuSans-33" x="95.410156"/>
       <use xlink:href="#DejaVuSans-35" x="159.033203"/>
      </g>
     </g>
    </g>
   </g>
   <g id="line2d_16">
    <path d="M 145.877377 477.136477 
L 148.388507 461.257141 
L 150.899637 460.831097 
L 153.410768 467.723099 
L 155.921898 430.175487 
L 163.455289 422.739298 
L 165.966419 419.870232 
L 168.477549 408.911831 
L 170.988679 401.469521 
L 173.49981 402.121442 
L 181.0332 409.381949 
L 183.544331 409.749229 
L 186.055461 390.632934 
L 188.566591 391.0853 
L 191.077721 376.536128 
L 198.611112 380.785554 
L 201.122242 393.112072 
L 203.633373 395.384309 
L 206.144503 385.325131 
L 208.655633 370.264216 
L 216.189024 382.653171 
L 218.700154 376.931566 
L 221.211284 372.649697 
L 223.722414 375.145363 
L 226.233545 384.57282 
L 233.766935 382.808041 
L 236.278066 368.858147 
L 238.789196 358.881607 
L 241.300326 390.599267 
L 243.811456 398.337849 
L 251.344847 383.973542 
L 253.855977 370.584974 
L 256.367108 359.283778 
L 258.878238 368.768164 
L 261.389368 345.667497 
L 268.922759 338.475549 
L 271.433889 344.697266 
L 273.945019 340.043833 
L 276.45615 345.827876 
L 278.96728 342.596427 
L 286.500671 331.91777 
L 289.011801 330.532514 
L 291.522931 328.132954 
L 294.034061 318.297816 
L 296.545192 316.151067 
L 304.078582 314.696027 
L 306.589713 314.838654 
L 309.100843 306.538746 
L 311.611973 315.96559 
L 314.123103 329.014425 
L 321.656494 319.597986 
L 324.167624 320.028316 
L 326.678754 312.804537 
L 329.189885 304.955158 
L 331.701015 294.672552 
L 339.234406 283.091 
L 341.745536 271.109113 
L 344.256666 277.23901 
L 346.767796 274.616021 
L 349.278927 292.631089 
L 356.812317 293.803935 
L 359.323448 288.919116 
L 361.834578 285.56524 
L 364.345708 292.495808 
L 366.856838 279.937292 
L 374.390229 265.606039 
L 376.901359 265.4426 
L 379.41249 251.182354 
L 381.92362 254.260158 
L 384.43475 251.015242 
L 391.968141 250.198045 
L 394.479271 256.330391 
L 396.990401 256.331615 
L 399.501532 255.530946 
L 402.012662 244.912278 
L 409.546053 242.824294 
L 412.057183 241.20153 
L 414.568313 236.185101 
L 417.079443 232.735348 
L 419.590573 228.959009 
L 427.123964 231.684692 
L 429.635094 235.36181 
L 432.146225 245.971603 
L 434.657355 246.252233 
L 437.168485 245.138943 
L 444.701876 242.026778 
L 447.213006 239.575237 
L 449.724136 233.85434 
L 452.235267 244.394132 
L 454.746397 241.120292 
L 462.279788 262.957607 
L 464.790918 274.68116 
L 467.302048 275.623237 
L 469.813178 299.464931 
L 472.324309 295.912414 
L 479.857699 313.240954 
L 482.36883 294.810036 
L 484.87996 296.630069 
L 487.39109 278.832957 
L 489.90222 281.701112 
L 497.435611 316.561035 
L 499.946741 306.774041 
L 502.457872 314.499317 
L 504.969002 341.437287 
L 507.480132 326.662465 
L 515.013523 327.457805 
L 517.524653 333.755785 
L 520.035783 349.850008 
L 522.546913 353.057261 
L 525.058044 362.047066 
L 532.591434 357.599946 
L 535.102565 335.701593 
L 537.613695 340.244894 
L 540.124825 338.883568 
L 542.635955 327.614407 
L 550.169346 319.944619 
L 552.680476 312.255719 
L 555.191607 321.284983 
L 557.702737 310.957898 
L 560.213867 312.08617 
L 567.747258 311.224861 
L 570.258388 279.943966 
L 572.769518 274.543055 
L 575.280649 265.907762 
L 577.791779 264.231384 
L 585.32517 270.676101 
L 587.8363 280.275049 
L 590.34743 284.669147 
L 592.85856 281.356465 
L 595.369691 273.716272 
L 602.903081 272.529428 
L 605.414212 263.96997 
L 607.925342 232.374022 
L 610.436472 219.096165 
L 612.947602 227.413939 
L 620.480993 228.017534 
L 622.992123 233.555934 
L 625.503253 223.765857 
L 628.014384 216.092371 
L 630.525514 215.273603 
L 638.058905 215.560295 
L 640.570035 213.955435 
L 643.081165 221.643718 
L 645.592295 220.939011 
L 648.103426 248.643343 
L 655.636816 242.833047 
L 658.147947 229.333235 
L 660.659077 221.585763 
L 663.170207 232.500413 
L 665.681337 236.541849 
L 673.214728 244.460719 
L 675.725858 271.037395 
L 678.236989 263.641969 
L 680.748119 253.239666 
L 683.259249 285.302953 
L 690.79264 302.169086 
L 693.30377 310.89686 
L 695.8149 316.623922 
L 698.326031 297.985846 
L 700.837161 329.856155 
L 708.370551 333.580071 
L 710.881682 316.588163 
L 713.392812 306.399082 
L 715.903942 338.664416 
L 718.415072 319.875755 
L 725.948463 295.456898 
L 728.459593 309.755198 
L 730.970724 287.279159 
L 733.481854 289.148641 
L 735.992984 310.474278 
L 743.526375 297.859629 
L 746.037505 278.31522 
L 748.548635 278.351889 
L 751.059766 253.028122 
L 753.570896 257.706176 
L 761.104287 249.683814 
L 763.615417 252.962243 
L 766.126547 231.920012 
L 768.637677 218.416613 
L 771.148808 218.897657 
L 778.682198 216.262483 
L 781.193329 223.765269 
L 783.704459 222.363158 
L 786.215589 210.455158 
L 788.726719 204.349511 
L 796.26011 217.535943 
L 798.77124 227.934312 
L 801.282371 218.874661 
L 803.793501 207.654044 
L 806.304631 207.964174 
L 813.838022 221.846689 
L 816.349152 221.776459 
L 818.860282 228.786393 
L 821.371412 218.876525 
L 823.882543 214.542784 
L 831.415933 208.930611 
L 833.927064 220.125747 
L 836.438194 259.238803 
L 838.949324 258.414068 
L 841.460454 248.536519 
L 848.993845 237.243186 
L 851.504975 252.558266 
L 854.016106 244.608619 
L 856.527236 230.764637 
L 859.038366 205.348267 
L 866.571757 209.537198 
L 869.082887 192.918204 
L 871.594017 189.018272 
L 876.616278 195.626094 
L 884.149669 185.904542 
L 886.660799 185.352025 
L 889.171929 193.805089 
L 891.683059 182.844882 
L 894.19419 177.775281 
L 901.72758 172.389956 
L 904.23871 173.315996 
L 906.749841 175.470126 
L 909.260971 172.506177 
L 911.772101 157.55592 
L 919.305492 134.118415 
L 921.816622 130.80021 
L 924.327752 130.278147 
L 926.838883 122.210415 
L 929.350013 120.255167 
L 936.883404 123.024585 
L 939.394534 104.86302 
L 941.905664 117.524282 
L 944.416794 123.557834 
L 946.927925 116.892835 
L 954.461315 124.637385 
L 956.972446 133.013383 
L 959.483576 131.61065 
L 961.994706 136.085473 
L 964.505836 137.327236 
L 972.039227 124.434154 
L 974.550357 119.503769 
L 977.061488 123.329121 
L 979.572618 132.192377 
L 982.083748 137.356447 
L 989.617139 170.342103 
L 992.128269 169.849251 
L 994.639399 151.348346 
L 997.150529 155.375687 
L 999.66166 142.117782 
L 1007.19505 156.152566 
L 1009.706181 145.840586 
L 1012.217311 143.800812 
L 1014.728441 129.176222 
L 1017.239571 133.005925 
L 1024.772962 120.859889 
L 1027.284092 114.271334 
L 1029.795223 114.38942 
L 1032.306353 109.413045 
L 1034.817483 91.097347 
L 1042.350874 77.063457 
L 1047.373134 39.395197 
L 1049.884265 46.161289 
L 1052.395395 55.216613 
L 1059.928786 63.450558 
L 1062.439916 72.404005 
L 1062.439916 72.404005 
" clip-path="url(#pd189d7ff17)" style="fill: none; stroke: #1f77b4; stroke-opacity: 0.5; stroke-width: 1.5; stroke-linecap: square"/>
   </g>
   <g id="line2d_17">
    <path d="M 145.877377 483.499136 
L 148.388507 464.706668 
L 150.899637 462.45835 
L 153.410768 479.77665 
L 155.921898 442.601557 
L 163.455289 444.706907 
L 165.966419 438.758341 
L 168.477549 429.296977 
L 170.988679 426.303102 
L 173.49981 429.917568 
L 181.0332 433.258804 
L 183.544331 429.459008 
L 186.055461 425.281139 
L 188.566591 426.617634 
L 191.077721 396.231976 
L 198.611112 403.575282 
L 201.122242 408.456347 
L 203.633373 410.422963 
L 206.144503 404.212818 
L 208.655633 388.15688 
L 216.189024 395.726819 
L 218.700154 394.824526 
L 221.211284 398.760937 
L 223.722414 399.667466 
L 226.233545 398.86684 
L 233.766935 399.298924 
L 236.278066 379.02911 
L 238.789196 383.610469 
L 241.300326 415.667275 
L 243.811456 427.871524 
L 251.344847 416.454133 
L 253.855977 404.64702 
L 256.367108 400.290175 
L 258.878238 408.490236 
L 261.389368 386.249569 
L 268.922759 386.313111 
L 271.433889 385.253023 
L 273.945019 375.429471 
L 276.45615 373.17268 
L 278.96728 369.527502 
L 286.500671 364.476993 
L 289.011801 360.728031 
L 291.522931 366.3896 
L 294.034061 363.391489 
L 296.545192 354.279604 
L 304.078582 355.234848 
L 306.589713 352.261095 
L 309.100843 355.76754 
L 311.611973 363.162739 
L 314.123103 369.512676 
L 321.656494 360.443152 
L 324.167624 362.488137 
L 326.678754 357.379382 
L 329.189885 355.784484 
L 331.701015 345.382702 
L 339.234406 348.414702 
L 341.745536 334.504357 
L 344.256666 354.045559 
L 346.767796 359.756902 
L 349.278927 379.4326 
L 356.812317 381.288019 
L 359.323448 373.575111 
L 361.834578 373.621708 
L 364.345708 372.655874 
L 366.856838 362.290099 
L 374.390229 345.774543 
L 376.901359 338.064812 
L 379.41249 316.925536 
L 381.92362 313.366139 
L 384.43475 311.063811 
L 391.968141 315.97241 
L 394.479271 327.921433 
L 396.990401 322.060767 
L 399.501532 318.958871 
L 402.012662 312.103777 
L 409.546053 309.948653 
L 412.057183 301.366283 
L 419.590573 284.925027 
L 427.123964 277.521319 
L 429.635094 276.12004 
L 432.146225 267.826649 
L 434.657355 271.090603 
L 437.168485 267.610903 
L 444.701876 266.23953 
L 447.213006 264.160517 
L 449.724136 262.442523 
L 452.235267 262.299179 
L 454.746397 255.096658 
L 462.279788 268.561404 
L 464.790918 289.329225 
L 467.302048 280.002212 
L 469.813178 302.039808 
L 472.324309 292.84972 
L 479.857699 312.445113 
L 482.36883 300.146378 
L 484.87996 288.598596 
L 487.39109 266.048598 
L 489.90222 273.68971 
L 497.435611 294.833008 
L 499.946741 283.902463 
L 502.457872 281.199244 
L 504.969002 304.340806 
L 507.480132 298.068954 
L 515.013523 291.635572 
L 517.524653 296.356309 
L 520.035783 316.599961 
L 522.546913 309.724779 
L 525.058044 328.470802 
L 532.591434 321.413765 
L 535.102565 302.333984 
L 537.613695 301.302761 
L 540.124825 304.262715 
L 542.635955 299.958759 
L 550.169346 290.058318 
L 552.680476 278.20548 
L 555.191607 282.512773 
L 557.702737 276.784384 
L 560.213867 284.582163 
L 567.747258 285.717751 
L 570.258388 259.321224 
L 572.769518 261.813508 
L 575.280649 256.78386 
L 577.791779 258.444309 
L 585.32517 265.458553 
L 587.8363 270.409848 
L 590.34743 268.598058 
L 592.85856 265.838514 
L 595.369691 252.124513 
L 602.903081 238.967573 
L 605.414212 238.394412 
L 607.925342 228.785918 
L 610.436472 227.319742 
L 612.947602 233.906799 
L 620.480993 236.592283 
L 622.992123 248.072674 
L 625.503253 254.849711 
L 628.014384 259.281511 
L 630.525514 260.226045 
L 638.058905 253.354555 
L 640.570035 248.671595 
L 643.081165 258.325169 
L 645.592295 270.473174 
L 648.103426 267.014889 
L 655.636816 263.866798 
L 658.147947 242.256271 
L 660.659077 238.805499 
L 663.170207 256.063652 
L 665.681337 249.859776 
L 673.214728 250.120597 
L 675.725858 279.125328 
L 678.236989 274.638787 
L 680.748119 267.757637 
L 683.259249 308.620573 
L 690.79264 331.582428 
L 693.30377 341.301476 
L 695.8149 332.479736 
L 698.326031 311.521797 
L 700.837161 327.794628 
L 708.370551 329.310177 
L 710.881682 321.748533 
L 713.392812 349.383688 
L 715.903942 357.969294 
L 718.415072 341.861757 
L 725.948463 325.479445 
L 728.459593 332.369182 
L 730.970724 316.089911 
L 733.481854 322.080193 
L 735.992984 336.627102 
L 743.526375 331.632874 
L 746.037505 323.907009 
L 748.548635 327.019681 
L 751.059766 312.222685 
L 753.570896 301.446402 
L 761.104287 299.890066 
L 763.615417 304.49682 
L 766.126547 292.241481 
L 768.637677 281.321371 
L 771.148808 274.35006 
L 778.682198 270.661008 
L 781.193329 266.087528 
L 783.704459 256.388873 
L 786.215589 250.895545 
L 788.726719 244.640148 
L 796.26011 254.109109 
L 798.77124 254.935577 
L 801.282371 253.109835 
L 803.793501 245.80257 
L 806.304631 244.695962 
L 813.838022 258.185636 
L 816.349152 261.961628 
L 818.860282 269.793753 
L 821.371412 263.959104 
L 823.882543 254.041489 
L 831.415933 248.981788 
L 833.927064 266.611315 
L 836.438194 276.580937 
L 838.949324 312.646671 
L 841.460454 303.31973 
L 848.993845 294.305959 
L 851.504975 307.858571 
L 854.016106 294.64363 
L 856.527236 287.193581 
L 859.038366 250.18301 
L 866.571757 252.855611 
L 869.082887 237.59867 
L 871.594017 233.303761 
L 874.105148 234.918612 
L 876.616278 237.192827 
L 884.149669 225.011134 
L 886.660799 224.294251 
L 889.171929 219.660606 
L 891.683059 211.787671 
L 894.19419 209.400545 
L 901.72758 204.372774 
L 904.23871 204.595402 
L 906.749841 207.726042 
L 909.260971 212.353295 
L 911.772101 202.312667 
L 919.305492 183.647067 
L 921.816622 182.345386 
L 924.327752 179.001705 
L 926.838883 167.330247 
L 929.350013 173.817349 
L 936.883404 177.033205 
L 939.394534 167.964044 
L 941.905664 173.656503 
L 944.416794 178.965488 
L 946.927925 172.412343 
L 954.461315 176.112868 
L 956.972446 174.609862 
L 959.483576 181.318528 
L 961.994706 183.495808 
L 964.505836 180.7071 
L 972.039227 171.911696 
L 974.550357 172.980098 
L 977.061488 167.584831 
L 979.572618 172.004369 
L 982.083748 172.984359 
L 989.617139 201.925997 
L 992.128269 199.304526 
L 994.639399 183.190094 
L 997.150529 192.326363 
L 999.66166 180.419494 
L 1007.19505 186.914053 
L 1009.706181 190.630556 
L 1014.728441 174.554472 
L 1017.239571 168.048195 
L 1024.772962 154.739516 
L 1027.284092 167.503875 
L 1029.795223 174.499081 
L 1032.306353 175.585591 
L 1034.817483 164.194281 
L 1042.350874 156.915777 
L 1047.373134 133.737498 
L 1049.884265 135.687324 
L 1052.395395 131.756117 
L 1059.928786 129.781682 
L 1062.439916 125.834433 
L 1062.439916 125.834433 
" clip-path="url(#pd189d7ff17)" style="fill: none; stroke: #ff7f0e; stroke-opacity: 0.5; stroke-width: 1.5; stroke-linecap: square"/>
   </g>
   <g id="line2d_18">
    <path d="M 145.877377 446.01922 
L 148.388507 433.395614 
L 150.899637 443.43132 
L 153.410768 462.360654 
L 155.921898 431.833154 
L 163.455289 436.19492 
L 165.966419 423.048874 
L 168.477549 413.253733 
L 170.988679 415.178256 
L 173.49981 421.087902 
L 181.0332 425.605184 
L 183.544331 419.914234 
L 186.055461 413.94384 
L 188.566591 417.921673 
L 191.077721 398.102976 
L 198.611112 400.083387 
L 201.122242 405.004042 
L 203.633373 406.741459 
L 206.144503 399.067667 
L 208.655633 385.97994 
L 216.189024 395.029085 
L 218.700154 385.406471 
L 221.211284 374.08775 
L 223.722414 369.723554 
L 226.233545 363.274458 
L 233.766935 367.908379 
L 236.278066 347.703319 
L 238.789196 348.745769 
L 241.300326 371.4634 
L 243.811456 377.275848 
L 251.344847 364.438406 
L 253.855977 354.261763 
L 256.367108 349.907287 
L 258.878238 352.762482 
L 261.389368 330.730097 
L 268.922759 327.000119 
L 271.433889 328.948942 
L 273.945019 320.339618 
L 276.45615 320.300739 
L 278.96728 315.504011 
L 286.500671 311.616087 
L 289.011801 309.946709 
L 291.522931 313.195556 
L 294.034061 309.506887 
L 296.545192 303.514623 
L 304.078582 298.319383 
L 306.589713 295.658585 
L 309.100843 297.775074 
L 311.611973 302.851246 
L 314.123103 311.769174 
L 321.656494 303.327517 
L 324.167624 302.285067 
L 326.678754 293.505646 
L 329.189885 282.95965 
L 331.701015 269.463691 
L 339.234406 267.638796 
L 341.745536 264.462848 
L 344.256666 274.969965 
L 346.767796 275.895777 
L 349.278927 302.365255 
L 356.812317 304.620252 
L 359.323448 293.262651 
L 361.834578 294.754642 
L 364.345708 295.89672 
L 366.856838 282.777404 
L 376.901359 265.053326 
L 379.41249 254.011619 
L 381.92362 255.253325 
L 384.43475 252.240184 
L 391.968141 253.314223 
L 394.479271 261.906537 
L 396.990401 258.63582 
L 399.501532 249.926868 
L 402.012662 245.800808 
L 409.546053 244.335546 
L 412.057183 239.49022 
L 414.568313 231.126322 
L 417.079443 225.327771 
L 419.590573 218.979024 
L 427.123964 214.739881 
L 429.635094 211.966909 
L 432.146225 215.799054 
L 434.657355 220.307893 
L 437.168485 217.441752 
L 444.701876 214.592774 
L 447.213006 211.730105 
L 449.724136 210.395999 
L 452.235267 222.078643 
L 454.746397 219.626639 
L 462.279788 235.675227 
L 464.790918 257.239596 
L 467.302048 251.873687 
L 469.813178 277.531281 
L 472.324309 274.022802 
L 479.857699 289.960828 
L 482.36883 270.605229 
L 484.87996 262.519512 
L 487.39109 244.375173 
L 489.90222 246.802608 
L 497.435611 266.369503 
L 499.946741 259.767764 
L 502.457872 261.359847 
L 504.969002 285.341823 
L 507.480132 276.708213 
L 515.013523 271.872999 
L 517.524653 277.646756 
L 520.035783 299.899061 
L 522.546913 293.316978 
L 525.058044 303.459135 
L 532.591434 295.147382 
L 535.102565 288.562842 
L 537.613695 282.730119 
L 540.124825 286.064156 
L 542.635955 265.028025 
L 550.169346 260.495012 
L 552.680476 254.11931 
L 555.191607 262.357356 
L 557.702737 262.182914 
L 560.213867 264.150906 
L 567.747258 258.418916 
L 570.258388 229.235645 
L 572.769518 227.093213 
L 575.280649 222.886969 
L 577.791779 224.665778 
L 585.32517 226.292258 
L 587.8363 228.046497 
L 590.34743 231.449328 
L 592.85856 233.196197 
L 595.369691 222.051617 
L 602.903081 214.941297 
L 605.414212 212.752183 
L 607.925342 202.435585 
L 610.436472 201.963857 
L 612.947602 208.599992 
L 620.480993 209.712976 
L 622.992123 213.911848 
L 625.503253 215.019918 
L 628.014384 218.862538 
L 630.525514 213.725123 
L 638.058905 212.410671 
L 640.570035 203.523999 
L 643.081165 214.007668 
L 645.592295 219.206506 
L 648.103426 218.766718 
L 655.636816 215.159963 
L 658.147947 202.595284 
L 660.659077 205.614837 
L 663.170207 212.449982 
L 665.681337 204.587845 
L 673.214728 206.786786 
L 675.725858 228.906418 
L 678.236989 226.982652 
L 680.748119 217.521061 
L 683.259249 266.268769 
L 690.79264 295.12527 
L 693.30377 296.820543 
L 695.8149 288.992803 
L 698.326031 259.153535 
L 700.837161 273.90487 
L 708.370551 278.231502 
L 710.881682 265.268803 
L 713.392812 292.729775 
L 715.903942 296.260366 
L 718.415072 280.570488 
L 725.948463 263.18288 
L 728.459593 269.796903 
L 730.970724 247.478261 
L 733.481854 259.082284 
L 735.992984 274.162846 
L 743.526375 268.229389 
L 746.037505 259.367286 
L 748.548635 263.860989 
L 751.059766 243.918187 
L 753.570896 236.42213 
L 761.104287 233.336241 
L 763.615417 239.962549 
L 766.126547 223.746891 
L 768.637677 208.685984 
L 771.148808 206.076737 
L 778.682198 209.771942 
L 781.193329 208.725295 
L 786.215589 196.526697 
L 788.726719 193.430981 
L 796.26011 206.509155 
L 798.77124 203.246368 
L 801.282371 201.983512 
L 803.793501 192.541576 
L 806.304631 184.753147 
L 813.838022 199.499568 
L 816.349152 200.096599 
L 818.860282 211.037254 
L 821.371412 202.003167 
L 823.882543 197.086874 
L 831.415933 187.944683 
L 833.927064 207.639337 
L 836.438194 250.601003 
L 838.949324 246.669935 
L 841.460454 234.495907 
L 848.993845 226.316827 
L 851.504975 242.284336 
L 854.016106 231.837521 
L 856.527236 214.661208 
L 859.038366 190.969149 
L 866.571757 196.472645 
L 869.082887 181.9842 
L 871.594017 183.249513 
L 874.105148 189.104348 
L 876.616278 198.15072 
L 884.149669 195.177849 
L 886.660799 192.883088 
L 889.171929 193.927278 
L 891.683059 186.337859 
L 894.19419 177.045795 
L 901.72758 174.97707 
L 904.23871 172.6258 
L 906.749841 166.30415 
L 909.260971 175.151511 
L 911.772101 167.282003 
L 919.305492 151.948379 
L 921.816622 146.398201 
L 924.327752 141.521219 
L 926.838883 135.563193 
L 929.350013 135.880136 
L 936.883404 134.867885 
L 939.394534 128.497097 
L 941.905664 131.607555 
L 944.416794 133.084163 
L 946.927925 123.701194 
L 954.461315 126.030352 
L 956.972446 131.125999 
L 959.483576 134.81629 
L 961.994706 137.966059 
L 964.505836 135.037413 
L 972.039227 127.241612 
L 974.550357 126.072119 
L 977.061488 126.755143 
L 979.572618 130.224311 
L 982.083748 132.079284 
L 989.617139 161.176562 
L 992.128269 175.800138 
L 994.639399 157.997311 
L 997.150529 157.537867 
L 999.66166 140.250993 
L 1007.19505 148.76667 
L 1009.706181 146.118113 
L 1012.217311 142.960973 
L 1014.728441 137.216699 
L 1017.239571 128.676452 
L 1024.772962 110.829401 
L 1027.284092 116.578589 
L 1029.795223 118.706279 
L 1032.306353 115.590908 
L 1034.817483 103.490587 
L 1042.350874 101.564363 
L 1044.862004 96.214443 
L 1047.373134 94.278745 
L 1049.884265 94.234303 
L 1052.395395 92.298606 
L 1059.928786 105.920087 
L 1062.439916 114.295866 
L 1062.439916 114.295866 
" clip-path="url(#pd189d7ff17)" style="fill: none; stroke: #2ca02c; stroke-opacity: 0.5; stroke-width: 1.5; stroke-linecap: square"/>
   </g>
   <g id="line2d_19">
    <path d="M 145.877377 445.623898 
L 148.388507 446.610222 
L 150.899637 445.579986 
L 153.410768 452.600787 
L 155.921898 428.15212 
L 163.455289 432.634488 
L 165.966419 424.068335 
L 168.477549 416.463172 
L 170.988679 410.34256 
L 173.49981 414.51248 
L 181.0332 425.179638 
L 183.544331 418.423997 
L 186.055461 423.885933 
L 188.566591 428.574348 
L 191.077721 406.042595 
L 198.611112 405.660901 
L 201.122242 417.348161 
L 203.633373 427.229975 
L 206.144503 431.271538 
L 208.655633 432.914848 
L 216.189024 443.406359 
L 218.700154 428.74155 
L 221.211284 410.551985 
L 223.722414 405.954771 
L 226.233545 397.278839 
L 233.766935 394.929564 
L 236.278066 370.737612 
L 238.789196 371.460466 
L 241.300326 384.888992 
L 243.811456 388.672152 
L 251.344847 378.888294 
L 253.855977 378.207663 
L 256.367108 368.46265 
L 258.878238 367.420592 
L 261.389368 360.720685 
L 268.922759 363.6273 
L 271.433889 370.433608 
L 273.945019 362.081947 
L 276.45615 372.423145 
L 278.96728 370.529876 
L 286.500671 369.661776 
L 289.011801 375.171002 
L 291.522931 382.588696 
L 294.034061 388.072588 
L 296.545192 382.668075 
L 304.078582 377.996549 
L 306.589713 369.714133 
L 309.100843 367.591172 
L 311.611973 374.085033 
L 314.123103 383.076791 
L 321.656494 378.633268 
L 324.167624 375.165935 
L 326.678754 373.808051 
L 329.189885 369.376351 
L 331.701015 362.13937 
L 341.745536 345.97312 
L 344.256666 351.544835 
L 346.767796 340.685141 
L 349.278927 365.633725 
L 356.812317 370.702145 
L 359.323448 367.542194 
L 361.834578 367.896865 
L 364.345708 361.117579 
L 366.856838 353.541127 
L 374.390229 347.091178 
L 376.901359 334.637153 
L 379.41249 330.050073 
L 381.92362 332.809752 
L 384.43475 325.221478 
L 391.968141 324.373645 
L 394.479271 328.818857 
L 399.501532 330.105807 
L 402.012662 326.878299 
L 409.546053 326.910388 
L 412.057183 321.328539 
L 414.568313 321.092092 
L 417.079443 319.582193 
L 419.590573 318.325577 
L 427.123964 320.261927 
L 429.635094 309.566304 
L 432.146225 318.252795 
L 434.657355 324.620406 
L 437.168485 325.625818 
L 444.701876 323.515129 
L 447.213006 327.313353 
L 452.235267 338.638628 
L 454.746397 342.368712 
L 462.279788 337.41916 
L 464.790918 357.698318 
L 467.302048 355.921339 
L 469.813178 366.652401 
L 472.324309 367.347667 
L 479.857699 374.03201 
L 482.36883 360.882705 
L 487.39109 341.997454 
L 489.90222 342.82266 
L 497.435611 349.191433 
L 499.946741 346.147113 
L 502.457872 345.257779 
L 504.969002 362.664746 
L 507.480132 370.035689 
L 515.013523 362.204162 
L 517.524653 363.676871 
L 520.035783 377.707868 
L 522.546913 372.19611 
L 525.058044 381.664726 
L 532.591434 377.791735 
L 535.102565 372.845243 
L 537.613695 371.850577 
L 540.124825 365.203256 
L 542.635955 353.111271 
L 550.169346 345.798043 
L 552.680476 341.955244 
L 555.191607 347.126501 
L 557.702737 346.967153 
L 560.213867 350.789824 
L 567.747258 348.855845 
L 570.258388 334.47596 
L 572.769518 341.101475 
L 575.280649 337.595823 
L 577.791779 340.437246 
L 585.32517 338.895766 
L 587.8363 337.932969 
L 590.34743 338.946086 
L 592.85856 341.304434 
L 595.369691 337.396219 
L 602.903081 325.341135 
L 605.414212 314.99359 
L 607.925342 306.585056 
L 610.436472 307.547852 
L 612.947602 316.008384 
L 620.480993 316.657516 
L 622.992123 318.804519 
L 625.503253 319.774025 
L 628.014384 323.274645 
L 630.525514 323.920423 
L 638.058905 319.601258 
L 640.570035 311.97269 
L 645.592295 326.080845 
L 648.103426 323.462508 
L 655.636816 322.417522 
L 658.147947 315.384411 
L 660.659077 324.676906 
L 663.170207 326.758492 
L 665.681337 316.692741 
L 673.214728 293.620851 
L 675.725858 300.303396 
L 678.236989 310.365793 
L 680.748119 310.686166 
L 683.259249 340.51105 
L 690.79264 371.2417 
L 693.30377 379.990735 
L 695.8149 375.460225 
L 698.326031 360.83377 
L 700.837161 366.209663 
L 708.370551 370.760302 
L 710.881682 366.70448 
L 713.392812 383.984496 
L 715.903942 397.54919 
L 718.415072 389.138979 
L 725.948463 376.978223 
L 728.459593 387.822263 
L 730.970724 374.576264 
L 733.481854 387.288867 
L 735.992984 389.445709 
L 743.526375 395.004451 
L 746.037505 395.908584 
L 748.548635 391.701018 
L 751.059766 380.046077 
L 753.570896 376.218582 
L 761.104287 363.701366 
L 763.615417 366.003556 
L 766.126547 358.79226 
L 768.637677 365.504609 
L 771.148808 363.634393 
L 778.682198 371.425004 
L 781.193329 366.04374 
L 783.704459 354.310106 
L 786.215589 353.198357 
L 788.726719 349.382582 
L 796.26011 357.092825 
L 798.77124 357.261932 
L 801.282371 358.325125 
L 803.793501 351.231031 
L 806.304631 353.156499 
L 813.838022 356.310918 
L 816.349152 362.112436 
L 818.860282 362.353539 
L 821.371412 352.125118 
L 823.882543 339.545953 
L 831.415933 342.559729 
L 833.927064 350.578047 
L 836.438194 390.390025 
L 838.949324 397.907722 
L 841.460454 384.891559 
L 848.993845 377.775699 
L 851.504975 386.939252 
L 854.016106 383.029715 
L 856.527236 379.704516 
L 859.038366 369.538045 
L 866.571757 375.168783 
L 869.082887 375.471835 
L 871.594017 382.786939 
L 874.105148 380.380941 
L 876.616278 385.696907 
L 884.149669 383.50857 
L 889.171929 367.250924 
L 891.683059 355.947591 
L 894.19419 356.580483 
L 901.72758 355.440272 
L 904.23871 359.62942 
L 906.749841 355.523988 
L 909.260971 369.320384 
L 911.772101 360.272359 
L 919.305492 349.009209 
L 921.816622 345.930135 
L 924.327752 344.495242 
L 926.838883 342.861106 
L 929.350013 350.735433 
L 936.883404 355.899035 
L 939.394534 349.720795 
L 941.905664 352.103352 
L 944.416794 361.889752 
L 946.927925 360.185294 
L 954.461315 359.388318 
L 956.972446 356.692663 
L 959.483576 366.957918 
L 961.994706 370.96624 
L 964.505836 356.188693 
L 972.039227 344.555518 
L 974.550357 343.408609 
L 977.061488 338.948221 
L 979.572618 341.183438 
L 982.083748 352.886934 
L 989.617139 363.031638 
L 992.128269 384.325639 
L 994.639399 379.346211 
L 997.150529 387.826642 
L 999.66166 370.780391 
L 1007.19505 371.744799 
L 1009.706181 375.116879 
L 1012.217311 374.699973 
L 1014.728441 365.119515 
L 1017.239571 351.729979 
L 1024.772962 324.001567 
L 1027.284092 322.958465 
L 1029.795223 320.368293 
L 1032.306353 314.831317 
L 1034.817483 313.381356 
L 1042.350874 306.498226 
L 1044.862004 301.400687 
L 1047.373134 294.452602 
L 1049.884265 292.990648 
L 1052.395395 290.850955 
L 1059.928786 300.628302 
L 1062.439916 306.400357 
L 1062.439916 306.400357 
" clip-path="url(#pd189d7ff17)" style="fill: none; stroke: #d62728; stroke-opacity: 0.5; stroke-width: 1.5; stroke-linecap: square"/>
   </g>
   <g id="line2d_20">
    <path d="M 145.877377 450.400501 
L 148.388507 444.240299 
L 150.899637 442.893588 
L 153.410768 446.453705 
L 155.921898 417.852764 
L 163.455289 412.719262 
L 165.966419 403.252284 
L 168.477549 406.412388 
L 170.988679 401.985576 
L 173.49981 399.27882 
L 181.0332 407.079077 
L 183.544331 402.878938 
L 186.055461 394.531997 
L 188.566591 395.078682 
L 191.077721 373.677978 
L 198.611112 375.718045 
L 201.122242 377.89145 
L 203.633373 365.717717 
L 206.144503 362.890957 
L 208.655633 358.197469 
L 216.189024 374.571341 
L 218.700154 367.011092 
L 221.211284 373.357968 
L 223.722414 375.331366 
L 226.233545 380.304863 
L 233.766935 386.19839 
L 236.278066 370.624545 
L 238.789196 369.437839 
L 241.300326 391.118552 
L 243.811456 401.985576 
L 251.344847 391.371893 
L 253.855977 385.145022 
L 256.367108 385.238358 
L 258.878238 389.225156 
L 261.389368 366.464408 
L 268.922759 362.157599 
L 271.433889 364.70435 
L 273.945019 358.744154 
L 276.45615 357.397443 
L 278.96728 355.610718 
L 286.500671 355.650719 
L 289.011801 352.597285 
L 291.522931 354.66402 
L 294.034061 345.86373 
L 296.545192 347.197108 
L 304.078582 348.250476 
L 306.589713 348.463816 
L 309.100843 343.330314 
L 311.611973 349.570519 
L 314.123103 365.651048 
L 321.656494 359.970861 
L 324.167624 361.330906 
L 326.678754 357.197436 
L 329.189885 354.917361 
L 331.701015 337.263448 
L 339.234406 328.343154 
L 341.745536 317.249456 
L 344.256666 328.809836 
L 346.767796 335.476722 
L 349.278927 356.304074 
L 356.812317 358.904159 
L 359.323448 358.477478 
L 361.834578 352.237273 
L 364.345708 359.597515 
L 366.856838 350.850561 
L 374.390229 337.330116 
L 376.901359 334.423354 
L 379.41249 317.849476 
L 381.92362 311.67594 
L 391.968141 324.529696 
L 394.479271 328.516493 
L 396.990401 328.689832 
L 399.501532 323.502995 
L 402.012662 320.422894 
L 409.546053 316.609435 
L 412.057183 316.582768 
L 414.568313 309.582537 
L 417.079443 305.098083 
L 419.590573 300.08555 
L 427.123964 295.773487 
L 429.635094 303.121458 
L 432.146225 312.632177 
L 434.657355 306.614095 
L 437.168485 305.9693 
L 444.701876 304.46478 
L 447.213006 303.245355 
L 449.724136 296.065174 
L 452.235267 316.556926 
L 454.746397 317.713285 
L 462.279788 328.281866 
L 464.790918 341.17661 
L 467.302048 342.265739 
L 469.813178 359.987609 
L 472.324309 356.989144 
L 479.857699 366.495488 
L 482.36883 355.631094 
L 484.87996 348.975309 
L 487.39109 331.871956 
L 489.90222 335.125896 
L 497.435611 345.936506 
L 499.946741 340.638769 
L 502.457872 341.566545 
L 504.969002 357.459755 
L 507.480132 349.311459 
L 515.013523 343.691018 
L 517.524653 346.998742 
L 520.035783 361.964175 
L 522.546913 351.570393 
L 525.058044 372.223497 
L 532.591434 369.722535 
L 535.102565 356.975697 
L 537.613695 352.551953 
L 540.124825 350.037545 
L 542.635955 341.04215 
L 550.169346 333.243452 
L 552.680476 334.856975 
L 555.191607 340.719445 
L 557.702737 339.563087 
L 560.213867 346.676037 
L 567.747258 355.079807 
L 570.258388 340.423633 
L 572.769518 341.701006 
L 575.280649 344.753255 
L 577.791779 342.238847 
L 585.32517 346.90462 
L 587.8363 351.301472 
L 590.34743 351.624177 
L 592.85856 352.914996 
L 595.369691 346.05752 
L 602.903081 337.210031 
L 605.414212 334.937652 
L 607.925342 319.757082 
L 610.436472 318.869644 
L 612.947602 327.744025 
L 620.480993 334.507379 
L 622.992123 335.95955 
L 625.503253 338.783217 
L 628.014384 335.099004 
L 630.525514 333.364466 
L 638.058905 329.276872 
L 640.570035 322.083245 
L 643.081165 334.574609 
L 645.592295 342.440537 
L 648.103426 349.862747 
L 655.636816 350.803969 
L 658.147947 334.924206 
L 660.659077 328.456664 
L 663.170207 333.808185 
L 665.681337 342.467429 
L 673.214728 343.825479 
L 675.725858 374.589999 
L 678.236989 376.68758 
L 680.748119 367.651847 
L 683.259249 386.556967 
L 690.79264 402.745989 
L 693.30377 413.207002 
L 695.8149 406.927705 
L 698.326031 390.402532 
L 700.837161 405.354519 
L 708.370551 416.299589 
L 710.881682 413.785181 
L 713.392812 436.966139 
L 715.903942 437.463643 
L 718.415072 417.106351 
L 725.948463 408.648797 
L 728.459593 424.111733 
L 730.970724 412.924635 
L 733.481854 410.921176 
L 735.992984 419.916571 
L 743.526375 415.9231 
L 746.037505 409.240422 
L 748.548635 406.793245 
L 751.059766 400.446718 
L 753.570896 397.945756 
L 761.104287 397.596159 
L 763.615417 398.443259 
L 766.126547 392.06984 
L 768.637677 373.769791 
L 771.148808 374.119388 
L 778.682198 371.362951 
L 781.193329 362.273434 
L 783.704459 364.787842 
L 786.215589 361.722147 
L 788.726719 354.246153 
L 796.26011 365.796294 
L 798.77124 372.223497 
L 801.282371 368.525839 
L 803.793501 354.501628 
L 806.304631 348.719834 
L 813.838022 360.202745 
L 816.349152 356.895021 
L 818.860282 361.318766 
L 821.371412 355.348728 
L 823.882543 348.034086 
L 831.415933 339.899237 
L 833.927064 350.481264 
L 836.438194 384.593846 
L 838.949324 385.93845 
L 841.460454 377.924615 
L 848.993845 366.858531 
L 851.504975 380.842404 
L 854.016106 373.877359 
L 856.527236 358.750574 
L 859.038366 335.972996 
L 866.571757 339.643763 
L 869.082887 324.906912 
L 871.594017 320.792426 
L 874.105148 327.071723 
L 876.616278 328.443218 
L 884.149669 318.694846 
L 886.660799 321.666418 
L 889.171929 321.021009 
L 891.683059 320.106679 
L 894.19419 314.943403 
L 901.72758 314.566914 
L 904.23871 318.990658 
L 906.749841 334.534271 
L 909.260971 338.164699 
L 911.772101 328.685247 
L 919.305492 316.798955 
L 921.816622 317.941868 
L 924.327752 319.219241 
L 926.838883 312.644131 
L 929.350013 319.851204 
L 936.883404 320.550398 
L 939.394534 331.549252 
L 941.905664 346.635699 
L 944.416794 349.486258 
L 946.927925 337.640304 
L 954.461315 338.097469 
L 956.972446 337.936117 
L 959.483576 342.480875 
L 961.994706 344.013723 
L 964.505836 338.541188 
L 972.039227 329.774376 
L 974.550357 329.11552 
L 977.061488 324.019474 
L 979.572618 324.516977 
L 982.083748 325.458199 
L 989.617139 351.772083 
L 992.128269 354.541966 
L 994.639399 336.376377 
L 997.150529 340.06059 
L 999.66166 321.330268 
L 1007.19505 325.108603 
L 1009.706181 329.613023 
L 1012.217311 320.012557 
L 1014.728441 309.793573 
L 1017.239571 296.992951 
L 1024.772962 281.27454 
L 1027.284092 289.974122 
L 1029.795223 289.180806 
L 1032.306353 289.799324 
L 1034.817483 281.960287 
L 1042.350874 284.098206 
L 1044.862004 282.905157 
L 1047.373134 285.041523 
L 1049.884265 284.745925 
L 1052.395395 279.54609 
L 1059.928786 291.356568 
L 1062.439916 297.458969 
L 1062.439916 297.458969 
" clip-path="url(#pd189d7ff17)" style="fill: none; stroke: #9467bd; stroke-opacity: 0.5; stroke-width: 1.5; stroke-linecap: square"/>
   </g>
   <g id="line2d_21">
    <path d="M 145.877377 459.180267 
L 148.388507 449.349731 
L 150.899637 450.309942 
L 153.410768 460.99401 
L 155.921898 429.72995 
L 163.455289 429.971555 
L 165.966419 421.969033 
L 168.477549 415.160404 
L 170.988679 411.494267 
L 173.49981 413.964918 
L 181.0332 420.601411 
L 183.544331 416.417864 
L 186.055461 411.276225 
L 188.566591 413.61697 
L 191.077721 392.386618 
L 198.611112 395.053184 
L 201.122242 402.030796 
L 203.633373 403.429603 
L 206.144503 399.719213 
L 208.655633 391.463638 
L 216.189024 401.851509 
L 218.700154 393.997913 
L 221.211284 388.518047 
L 226.233545 386.340112 
L 233.766935 387.451172 
L 236.278066 369.241503 
L 238.789196 368.701802 
L 241.300326 390.490612 
L 243.811456 397.900132 
L 251.344847 386.843024 
L 253.855977 379.372568 
L 256.367108 373.731012 
L 258.878238 377.69939 
L 261.389368 360.361166 
L 268.922759 358.563444 
L 271.433889 361.666454 
L 273.945019 354.619775 
L 276.45615 357.243796 
L 278.96728 354.486001 
L 286.500671 351.069505 
L 289.011801 350.663031 
L 291.522931 354.010396 
L 294.034061 351.16369 
L 296.545192 347.065302 
L 304.078582 345.182128 
L 306.589713 342.266208 
L 309.100843 340.680965 
L 311.611973 346.856425 
L 314.123103 356.328163 
L 321.656494 349.75451 
L 324.167624 349.416301 
L 329.189885 340.161615 
L 331.701015 329.759084 
L 339.234406 324.032288 
L 341.745536 316.445538 
L 344.256666 325.779652 
L 346.767796 325.188833 
L 349.278927 345.06838 
L 356.812317 347.603507 
L 359.323448 342.666559 
L 361.834578 341.469844 
L 364.345708 342.146515 
L 366.856838 332.887784 
L 374.390229 321.740338 
L 376.901359 316.229237 
L 379.41249 304.735362 
L 381.92362 304.354264 
L 384.43475 301.78187 
L 391.968141 304.114617 
L 394.479271 310.189179 
L 396.990401 308.760841 
L 399.501532 305.918929 
L 402.012662 301.282917 
L 409.546053 299.745852 
L 412.057183 295.934265 
L 414.568313 291.687136 
L 419.590573 284.612219 
L 427.123964 282.752711 
L 429.635094 281.33939 
L 432.146225 285.494177 
L 434.657355 287.273025 
L 437.168485 286.178268 
L 444.701876 284.323418 
L 447.213006 283.826127 
L 449.724136 282.623571 
L 452.235267 290.576239 
L 454.746397 289.544618 
L 462.279788 298.068818 
L 464.790918 313.603907 
L 467.302048 310.99662 
L 469.813178 327.939513 
L 472.324309 324.874928 
L 479.857699 336.670787 
L 482.36883 323.49922 
L 484.87996 317.075376 
L 487.39109 302.446396 
L 489.90222 305.283853 
L 497.435611 320.418215 
L 499.946741 314.37126 
L 502.457872 315.257705 
L 504.969002 333.909103 
L 507.480132 329.443408 
L 515.013523 324.829384 
L 517.524653 328.463171 
L 520.035783 343.982634 
L 522.546913 339.033518 
L 525.058044 351.15834 
L 532.591434 346.426456 
L 535.102565 335.22355 
L 537.613695 333.727626 
L 540.124825 332.620269 
L 542.635955 322.199678 
L 550.169346 315.568791 
L 552.680476 310.69781 
L 555.191607 316.310648 
L 557.702737 313.541844 
L 560.213867 317.444209 
L 567.747258 317.515441 
L 570.258388 297.666973 
L 572.769518 298.68707 
L 575.280649 295.626811 
L 577.791779 296.18618 
L 585.32517 298.97545 
L 587.8363 301.984863 
L 590.34743 303.150401 
L 592.85856 303.25532 
L 595.369691 295.937587 
L 602.903081 288.146274 
L 605.414212 283.75439 
L 607.925342 271.585839 
L 610.436472 269.503532 
L 612.947602 276.151805 
L 620.480993 278.134124 
L 622.992123 282.205914 
L 625.503253 282.865671 
L 628.014384 283.357609 
L 630.525514 282.421116 
L 638.058905 279.429201 
L 640.570035 274.063664 
L 643.081165 282.05685 
L 645.592295 287.766121 
L 648.103426 291.56994 
L 655.636816 289.555456 
L 658.147947 277.691562 
L 660.659077 277.527722 
L 663.170207 284.357468 
L 665.681337 281.778004 
L 673.214728 278.366561 
L 675.725858 297.206148 
L 678.236989 297.641331 
L 680.748119 291.930306 
L 683.259249 321.238126 
L 693.30377 349.607749 
L 695.8149 345.336075 
L 698.326031 327.318344 
L 700.837161 341.201193 
L 708.370551 345.777461 
L 710.881682 338.260908 
L 713.392812 354.425233 
L 715.903942 364.640007 
L 718.415072 350.427298 
L 725.948463 336.468541 
L 728.459593 346.21325 
L 730.970724 331.036853 
L 733.481854 336.901364 
L 735.992984 347.240674 
L 743.526375 344.042096 
L 746.037505 337.28725 
L 748.548635 337.16157 
L 751.059766 323.603905 
L 753.570896 319.81351 
L 761.104287 314.899156 
L 763.615417 317.93733 
L 766.126547 307.317547 
L 768.637677 299.381798 
L 771.148808 297.47628 
L 778.682198 298.415394 
L 781.193329 295.68527 
L 783.704459 290.587444 
L 788.726719 281.70408 
L 796.26011 290.923465 
L 798.77124 293.123954 
L 801.282371 290.950968 
L 803.793501 282.587054 
L 806.304631 280.645684 
L 813.838022 289.820594 
L 816.349152 291.299615 
L 818.860282 296.166942 
L 823.882543 281.742284 
L 831.415933 277.945931 
L 833.927064 289.175886 
L 836.438194 318.222505 
L 838.949324 325.52663 
L 841.460454 315.949267 
L 848.993845 307.825147 
L 851.504975 319.502347 
L 854.016106 312.19916 
L 856.527236 302.694031 
L 859.038366 282.656959 
L 866.571757 286.488756 
L 869.082887 276.904016 
L 871.594017 276.890907 
L 874.105148 279.01683 
L 876.616278 282.774649 
L 886.660799 274.833571 
L 889.171929 273.408389 
L 891.683059 266.641935 
L 894.19419 263.365804 
L 901.72758 261.18064 
L 906.749841 264.091856 
L 909.260971 269.613134 
L 911.772101 261.032568 
L 919.305492 247.924968 
L 921.816622 245.907062 
L 924.327752 244.444175 
L 926.838883 239.170597 
L 929.350013 242.957005 
L 936.883404 244.953604 
L 939.394534 240.629092 
L 941.905664 246.720185 
L 944.416794 251.277306 
L 946.927925 245.50572 
L 954.461315 247.3396 
L 956.972446 248.338951 
L 959.483576 252.888032 
L 961.994706 255.488992 
L 964.505836 250.407637 
L 972.039227 241.976029 
L 974.550357 240.946981 
L 977.061488 238.840715 
L 979.572618 241.803391 
L 982.083748 245.715974 
L 989.617139 265.820638 
L 992.128269 272.983121 
L 994.639399 260.792722 
L 997.150529 265.292446 
L 999.66166 251.745034 
L 1007.19505 256.795501 
L 1009.706181 257.135602 
L 1012.217311 253.371483 
L 1014.728441 245.357633 
L 1017.239571 238.312204 
L 1024.772962 223.011782 
L 1027.284092 226.179934 
L 1029.795223 226.904704 
L 1032.306353 224.827973 
L 1034.817483 217.225167 
L 1042.350874 212.843435 
L 1044.862004 206.567801 
L 1047.373134 200.953503 
L 1049.884265 201.715296 
L 1052.395395 200.633406 
L 1059.928786 207.444702 
L 1062.439916 211.500029 
L 1062.439916 211.500029 
" clip-path="url(#pd189d7ff17)" style="fill: none; stroke: #0000ff; stroke-width: 2; stroke-linecap: square"/>
   </g>
   <g id="patch_3">
    <path d="M 100.04925 505.704333 
L 100.04925 17.19 
" style="fill: none; stroke: #000000; stroke-width: 0.8; stroke-linejoin: miter; stroke-linecap: square"/>
   </g>
   <g id="patch_4">
    <path d="M 1108.268043 505.704333 
L 1108.268043 17.19 
" style="fill: none; stroke: #000000; stroke-width: 0.8; stroke-linejoin: miter; stroke-linecap: square"/>
   </g>
   <g id="patch_5">
    <path d="M 100.04925 505.704333 
L 1108.268043 505.704333 
" style="fill: none; stroke: #000000; stroke-width: 0.8; stroke-linejoin: miter; stroke-linecap: square"/>
   </g>
   <g id="patch_6">
    <path d="M 100.04925 17.19 
L 1108.268043 17.19 
" style="fill: none; stroke: #000000; stroke-width: 0.8; stroke-linejoin: miter; stroke-linecap: square"/>
   </g>
   <g id="legend_1">
    <g id="patch_7">
     <path d="M 107.04925 113.25875 
L 260.694563 113.25875 
Q 262.694563 113.25875 262.694563 111.25875 
L 262.694563 24.19 
Q 262.694563 22.19 260.694563 22.19 
L 107.04925 22.19 
Q 105.04925 22.19 105.04925 24.19 
L 105.04925 111.25875 
Q 105.04925 113.25875 107.04925 113.25875 
z
" style="fill: #ffffff; opacity: 0.8; stroke: #cccccc; stroke-linejoin: miter"/>
    </g>
    <g id="line2d_22">
     <path d="M 109.04925 30.288438 
L 119.04925 30.288438 
L 129.04925 30.288438 
" style="fill: none; stroke: #1f77b4; stroke-opacity: 0.5; stroke-width: 1.5; stroke-linecap: square"/>
    </g>
    <g id="text_16">
     <!-- Indice Azionario Paese 1 -->
     <g transform="translate(137.04925 33.788438) scale(0.1 -0.1)">
      <defs>
       <path id="DejaVuSans-49" d="M 628 4666 
L 1259 4666 
L 1259 0 
L 628 0 
L 628 4666 
z
" transform="scale(0.015625)"/>
       <path id="DejaVuSans-6e" d="M 3513 2113 
L 3513 0 
L 2938 0 
L 2938 2094 
Q 2938 2591 2744 2837 
Q 2550 3084 2163 3084 
Q 1697 3084 1428 2787 
Q 1159 2491 1159 1978 
L 1159 0 
L 581 0 
L 581 3500 
L 1159 3500 
L 1159 2956 
Q 1366 3272 1645 3428 
Q 1925 3584 2291 3584 
Q 2894 3584 3203 3211 
Q 3513 2838 3513 2113 
z
" transform="scale(0.015625)"/>
       <path id="DejaVuSans-64" d="M 2906 2969 
L 2906 4863 
L 3481 4863 
L 3481 0 
L 2906 0 
L 2906 525 
Q 2725 213 2448 61 
Q 2172 -91 1784 -91 
Q 1150 -91 751 415 
Q 353 922 353 1747 
Q 353 2572 751 3078 
Q 1150 3584 1784 3584 
Q 2172 3584 2448 3432 
Q 2725 3281 2906 2969 
z
M 947 1747 
Q 947 1113 1208 752 
Q 1469 391 1925 391 
Q 2381 391 2643 752 
Q 2906 1113 2906 1747 
Q 2906 2381 2643 2742 
Q 2381 3103 1925 3103 
Q 1469 3103 1208 2742 
Q 947 2381 947 1747 
z
" transform="scale(0.015625)"/>
       <path id="DejaVuSans-69" d="M 603 3500 
L 1178 3500 
L 1178 0 
L 603 0 
L 603 3500 
z
M 603 4863 
L 1178 4863 
L 1178 4134 
L 603 4134 
L 603 4863 
z
" transform="scale(0.015625)"/>
       <path id="DejaVuSans-63" d="M 3122 3366 
L 3122 2828 
Q 2878 2963 2633 3030 
Q 2388 3097 2138 3097 
Q 1578 3097 1268 2742 
Q 959 2388 959 1747 
Q 959 1106 1268 751 
Q 1578 397 2138 397 
Q 2388 397 2633 464 
Q 2878 531 3122 666 
L 3122 134 
Q 2881 22 2623 -34 
Q 2366 -91 2075 -91 
Q 1284 -91 818 406 
Q 353 903 353 1747 
Q 353 2603 823 3093 
Q 1294 3584 2113 3584 
Q 2378 3584 2631 3529 
Q 2884 3475 3122 3366 
z
" transform="scale(0.015625)"/>
       <path id="DejaVuSans-65" d="M 3597 1894 
L 3597 1613 
L 953 1613 
Q 991 1019 1311 708 
Q 1631 397 2203 397 
Q 2534 397 2845 478 
Q 3156 559 3463 722 
L 3463 178 
Q 3153 47 2828 -22 
Q 2503 -91 2169 -91 
Q 1331 -91 842 396 
Q 353 884 353 1716 
Q 353 2575 817 3079 
Q 1281 3584 2069 3584 
Q 2775 3584 3186 3129 
Q 3597 2675 3597 1894 
z
M 3022 2063 
Q 3016 2534 2758 2815 
Q 2500 3097 2075 3097 
Q 1594 3097 1305 2825 
Q 1016 2553 972 2059 
L 3022 2063 
z
" transform="scale(0.015625)"/>
       <path id="DejaVuSans-20" transform="scale(0.015625)"/>
       <path id="DejaVuSans-41" d="M 2188 4044 
L 1331 1722 
L 3047 1722 
L 2188 4044 
z
M 1831 4666 
L 2547 4666 
L 4325 0 
L 3669 0 
L 3244 1197 
L 1141 1197 
L 716 0 
L 50 0 
L 1831 4666 
z
" transform="scale(0.015625)"/>
       <path id="DejaVuSans-7a" d="M 353 3500 
L 3084 3500 
L 3084 2975 
L 922 459 
L 3084 459 
L 3084 0 
L 275 0 
L 275 525 
L 2438 3041 
L 353 3041 
L 353 3500 
z
" transform="scale(0.015625)"/>
       <path id="DejaVuSans-6f" d="M 1959 3097 
Q 1497 3097 1228 2736 
Q 959 2375 959 1747 
Q 959 1119 1226 758 
Q 1494 397 1959 397 
Q 2419 397 2687 759 
Q 2956 1122 2956 1747 
Q 2956 2369 2687 2733 
Q 2419 3097 1959 3097 
z
M 1959 3584 
Q 2709 3584 3137 3096 
Q 3566 2609 3566 1747 
Q 3566 888 3137 398 
Q 2709 -91 1959 -91 
Q 1206 -91 779 398 
Q 353 888 353 1747 
Q 353 2609 779 3096 
Q 1206 3584 1959 3584 
z
" transform="scale(0.015625)"/>
       <path id="DejaVuSans-61" d="M 2194 1759 
Q 1497 1759 1228 1600 
Q 959 1441 959 1056 
Q 959 750 1161 570 
Q 1363 391 1709 391 
Q 2188 391 2477 730 
Q 2766 1069 2766 1631 
L 2766 1759 
L 2194 1759 
z
M 3341 1997 
L 3341 0 
L 2766 0 
L 2766 531 
Q 2569 213 2275 61 
Q 1981 -91 1556 -91 
Q 1019 -91 701 211 
Q 384 513 384 1019 
Q 384 1609 779 1909 
Q 1175 2209 1959 2209 
L 2766 2209 
L 2766 2266 
Q 2766 2663 2505 2880 
Q 2244 3097 1772 3097 
Q 1472 3097 1187 3025 
Q 903 2953 641 2809 
L 641 3341 
Q 956 3463 1253 3523 
Q 1550 3584 1831 3584 
Q 2591 3584 2966 3190 
Q 3341 2797 3341 1997 
z
" transform="scale(0.015625)"/>
       <path id="DejaVuSans-72" d="M 2631 2963 
Q 2534 3019 2420 3045 
Q 2306 3072 2169 3072 
Q 1681 3072 1420 2755 
Q 1159 2438 1159 1844 
L 1159 0 
L 581 0 
L 581 3500 
L 1159 3500 
L 1159 2956 
Q 1341 3275 1631 3429 
Q 1922 3584 2338 3584 
Q 2397 3584 2469 3576 
Q 2541 3569 2628 3553 
L 2631 2963 
z
" transform="scale(0.015625)"/>
       <path id="DejaVuSans-50" d="M 1259 4147 
L 1259 2394 
L 2053 2394 
Q 2494 2394 2734 2622 
Q 2975 2850 2975 3272 
Q 2975 3691 2734 3919 
Q 2494 4147 2053 4147 
L 1259 4147 
z
M 628 4666 
L 2053 4666 
Q 2838 4666 3239 4311 
Q 3641 3956 3641 3272 
Q 3641 2581 3239 2228 
Q 2838 1875 2053 1875 
L 1259 1875 
L 1259 0 
L 628 0 
L 628 4666 
z
" transform="scale(0.015625)"/>
       <path id="DejaVuSans-73" d="M 2834 3397 
L 2834 2853 
Q 2591 2978 2328 3040 
Q 2066 3103 1784 3103 
Q 1356 3103 1142 2972 
Q 928 2841 928 2578 
Q 928 2378 1081 2264 
Q 1234 2150 1697 2047 
L 1894 2003 
Q 2506 1872 2764 1633 
Q 3022 1394 3022 966 
Q 3022 478 2636 193 
Q 2250 -91 1575 -91 
Q 1294 -91 989 -36 
Q 684 19 347 128 
L 347 722 
Q 666 556 975 473 
Q 1284 391 1588 391 
Q 1994 391 2212 530 
Q 2431 669 2431 922 
Q 2431 1156 2273 1281 
Q 2116 1406 1581 1522 
L 1381 1569 
Q 847 1681 609 1914 
Q 372 2147 372 2553 
Q 372 3047 722 3315 
Q 1072 3584 1716 3584 
Q 2034 3584 2315 3537 
Q 2597 3491 2834 3397 
z
" transform="scale(0.015625)"/>
      </defs>
      <use xlink:href="#DejaVuSans-49"/>
      <use xlink:href="#DejaVuSans-6e" x="29.492188"/>
      <use xlink:href="#DejaVuSans-64" x="92.871094"/>
      <use xlink:href="#DejaVuSans-69" x="156.347656"/>
      <use xlink:href="#DejaVuSans-63" x="184.130859"/>
      <use xlink:href="#DejaVuSans-65" x="239.111328"/>
      <use xlink:href="#DejaVuSans-20" x="300.634766"/>
      <use xlink:href="#DejaVuSans-41" x="332.421875"/>
      <use xlink:href="#DejaVuSans-7a" x="400.830078"/>
      <use xlink:href="#DejaVuSans-69" x="453.320312"/>
      <use xlink:href="#DejaVuSans-6f" x="481.103516"/>
      <use xlink:href="#DejaVuSans-6e" x="542.285156"/>
      <use xlink:href="#DejaVuSans-61" x="605.664062"/>
      <use xlink:href="#DejaVuSans-72" x="666.943359"/>
      <use xlink:href="#DejaVuSans-69" x="708.056641"/>
      <use xlink:href="#DejaVuSans-6f" x="735.839844"/>
      <use xlink:href="#DejaVuSans-20" x="797.021484"/>
      <use xlink:href="#DejaVuSans-50" x="828.808594"/>
      <use xlink:href="#DejaVuSans-61" x="884.611328"/>
      <use xlink:href="#DejaVuSans-65" x="945.890625"/>
      <use xlink:href="#DejaVuSans-73" x="1007.414062"/>
      <use xlink:href="#DejaVuSans-65" x="1059.513672"/>
      <use xlink:href="#DejaVuSans-20" x="1121.037109"/>
      <use xlink:href="#DejaVuSans-31" x="1152.824219"/>
     </g>
    </g>
    <g id="line2d_23">
     <path d="M 109.04925 44.966563 
L 119.04925 44.966563 
L 129.04925 44.966563 
" style="fill: none; stroke: #ff7f0e; stroke-opacity: 0.5; stroke-width: 1.5; stroke-linecap: square"/>
    </g>
    <g id="text_17">
     <!-- Indice Azionario Paese 2 -->
     <g transform="translate(137.04925 48.466563) scale(0.1 -0.1)">
      <use xlink:href="#DejaVuSans-49"/>
      <use xlink:href="#DejaVuSans-6e" x="29.492188"/>
      <use xlink:href="#DejaVuSans-64" x="92.871094"/>
      <use xlink:href="#DejaVuSans-69" x="156.347656"/>
      <use xlink:href="#DejaVuSans-63" x="184.130859"/>
      <use xlink:href="#DejaVuSans-65" x="239.111328"/>
      <use xlink:href="#DejaVuSans-20" x="300.634766"/>
      <use xlink:href="#DejaVuSans-41" x="332.421875"/>
      <use xlink:href="#DejaVuSans-7a" x="400.830078"/>
      <use xlink:href="#DejaVuSans-69" x="453.320312"/>
      <use xlink:href="#DejaVuSans-6f" x="481.103516"/>
      <use xlink:href="#DejaVuSans-6e" x="542.285156"/>
      <use xlink:href="#DejaVuSans-61" x="605.664062"/>
      <use xlink:href="#DejaVuSans-72" x="666.943359"/>
      <use xlink:href="#DejaVuSans-69" x="708.056641"/>
      <use xlink:href="#DejaVuSans-6f" x="735.839844"/>
      <use xlink:href="#DejaVuSans-20" x="797.021484"/>
      <use xlink:href="#DejaVuSans-50" x="828.808594"/>
      <use xlink:href="#DejaVuSans-61" x="884.611328"/>
      <use xlink:href="#DejaVuSans-65" x="945.890625"/>
      <use xlink:href="#DejaVuSans-73" x="1007.414062"/>
      <use xlink:href="#DejaVuSans-65" x="1059.513672"/>
      <use xlink:href="#DejaVuSans-20" x="1121.037109"/>
      <use xlink:href="#DejaVuSans-32" x="1152.824219"/>
     </g>
    </g>
    <g id="line2d_24">
     <path d="M 109.04925 59.644688 
L 119.04925 59.644688 
L 129.04925 59.644688 
" style="fill: none; stroke: #2ca02c; stroke-opacity: 0.5; stroke-width: 1.5; stroke-linecap: square"/>
    </g>
    <g id="text_18">
     <!-- Indice Azionario Paese 3 -->
     <g transform="translate(137.04925 63.144688) scale(0.1 -0.1)">
      <use xlink:href="#DejaVuSans-49"/>
      <use xlink:href="#DejaVuSans-6e" x="29.492188"/>
      <use xlink:href="#DejaVuSans-64" x="92.871094"/>
      <use xlink:href="#DejaVuSans-69" x="156.347656"/>
      <use xlink:href="#DejaVuSans-63" x="184.130859"/>
      <use xlink:href="#DejaVuSans-65" x="239.111328"/>
      <use xlink:href="#DejaVuSans-20" x="300.634766"/>
      <use xlink:href="#DejaVuSans-41" x="332.421875"/>
      <use xlink:href="#DejaVuSans-7a" x="400.830078"/>
      <use xlink:href="#DejaVuSans-69" x="453.320312"/>
      <use xlink:href="#DejaVuSans-6f" x="481.103516"/>
      <use xlink:href="#DejaVuSans-6e" x="542.285156"/>
      <use xlink:href="#DejaVuSans-61" x="605.664062"/>
      <use xlink:href="#DejaVuSans-72" x="666.943359"/>
      <use xlink:href="#DejaVuSans-69" x="708.056641"/>
      <use xlink:href="#DejaVuSans-6f" x="735.839844"/>
      <use xlink:href="#DejaVuSans-20" x="797.021484"/>
      <use xlink:href="#DejaVuSans-50" x="828.808594"/>
      <use xlink:href="#DejaVuSans-61" x="884.611328"/>
      <use xlink:href="#DejaVuSans-65" x="945.890625"/>
      <use xlink:href="#DejaVuSans-73" x="1007.414062"/>
      <use xlink:href="#DejaVuSans-65" x="1059.513672"/>
      <use xlink:href="#DejaVuSans-20" x="1121.037109"/>
      <use xlink:href="#DejaVuSans-33" x="1152.824219"/>
     </g>
    </g>
    <g id="line2d_25">
     <path d="M 109.04925 74.322813 
L 119.04925 74.322813 
L 129.04925 74.322813 
" style="fill: none; stroke: #d62728; stroke-opacity: 0.5; stroke-width: 1.5; stroke-linecap: square"/>
    </g>
    <g id="text_19">
     <!-- Indice Azionario Paese 4 -->
     <g transform="translate(137.04925 77.822813) scale(0.1 -0.1)">
      <defs>
       <path id="DejaVuSans-34" d="M 2419 4116 
L 825 1625 
L 2419 1625 
L 2419 4116 
z
M 2253 4666 
L 3047 4666 
L 3047 1625 
L 3713 1625 
L 3713 1100 
L 3047 1100 
L 3047 0 
L 2419 0 
L 2419 1100 
L 313 1100 
L 313 1709 
L 2253 4666 
z
" transform="scale(0.015625)"/>
      </defs>
      <use xlink:href="#DejaVuSans-49"/>
      <use xlink:href="#DejaVuSans-6e" x="29.492188"/>
      <use xlink:href="#DejaVuSans-64" x="92.871094"/>
      <use xlink:href="#DejaVuSans-69" x="156.347656"/>
      <use xlink:href="#DejaVuSans-63" x="184.130859"/>
      <use xlink:href="#DejaVuSans-65" x="239.111328"/>
      <use xlink:href="#DejaVuSans-20" x="300.634766"/>
      <use xlink:href="#DejaVuSans-41" x="332.421875"/>
      <use xlink:href="#DejaVuSans-7a" x="400.830078"/>
      <use xlink:href="#DejaVuSans-69" x="453.320312"/>
      <use xlink:href="#DejaVuSans-6f" x="481.103516"/>
      <use xlink:href="#DejaVuSans-6e" x="542.285156"/>
      <use xlink:href="#DejaVuSans-61" x="605.664062"/>
      <use xlink:href="#DejaVuSans-72" x="666.943359"/>
      <use xlink:href="#DejaVuSans-69" x="708.056641"/>
      <use xlink:href="#DejaVuSans-6f" x="735.839844"/>
      <use xlink:href="#DejaVuSans-20" x="797.021484"/>
      <use xlink:href="#DejaVuSans-50" x="828.808594"/>
      <use xlink:href="#DejaVuSans-61" x="884.611328"/>
      <use xlink:href="#DejaVuSans-65" x="945.890625"/>
      <use xlink:href="#DejaVuSans-73" x="1007.414062"/>
      <use xlink:href="#DejaVuSans-65" x="1059.513672"/>
      <use xlink:href="#DejaVuSans-20" x="1121.037109"/>
      <use xlink:href="#DejaVuSans-34" x="1152.824219"/>
     </g>
    </g>
    <g id="line2d_26">
     <path d="M 109.04925 89.000938 
L 119.04925 89.000938 
L 129.04925 89.000938 
" style="fill: none; stroke: #9467bd; stroke-opacity: 0.5; stroke-width: 1.5; stroke-linecap: square"/>
    </g>
    <g id="text_20">
     <!-- Indice Azionario Paese 5 -->
     <g transform="translate(137.04925 92.500938) scale(0.1 -0.1)">
      <use xlink:href="#DejaVuSans-49"/>
      <use xlink:href="#DejaVuSans-6e" x="29.492188"/>
      <use xlink:href="#DejaVuSans-64" x="92.871094"/>
      <use xlink:href="#DejaVuSans-69" x="156.347656"/>
      <use xlink:href="#DejaVuSans-63" x="184.130859"/>
      <use xlink:href="#DejaVuSans-65" x="239.111328"/>
      <use xlink:href="#DejaVuSans-20" x="300.634766"/>
      <use xlink:href="#DejaVuSans-41" x="332.421875"/>
      <use xlink:href="#DejaVuSans-7a" x="400.830078"/>
      <use xlink:href="#DejaVuSans-69" x="453.320312"/>
      <use xlink:href="#DejaVuSans-6f" x="481.103516"/>
      <use xlink:href="#DejaVuSans-6e" x="542.285156"/>
      <use xlink:href="#DejaVuSans-61" x="605.664062"/>
      <use xlink:href="#DejaVuSans-72" x="666.943359"/>
      <use xlink:href="#DejaVuSans-69" x="708.056641"/>
      <use xlink:href="#DejaVuSans-6f" x="735.839844"/>
      <use xlink:href="#DejaVuSans-20" x="797.021484"/>
      <use xlink:href="#DejaVuSans-50" x="828.808594"/>
      <use xlink:href="#DejaVuSans-61" x="884.611328"/>
      <use xlink:href="#DejaVuSans-65" x="945.890625"/>
      <use xlink:href="#DejaVuSans-73" x="1007.414062"/>
      <use xlink:href="#DejaVuSans-65" x="1059.513672"/>
      <use xlink:href="#DejaVuSans-20" x="1121.037109"/>
      <use xlink:href="#DejaVuSans-35" x="1152.824219"/>
     </g>
    </g>
    <g id="line2d_27">
     <path d="M 109.04925 103.679063 
L 119.04925 103.679063 
L 129.04925 103.679063 
" style="fill: none; stroke: #0000ff; stroke-width: 2; stroke-linecap: square"/>
    </g>
    <g id="text_21">
     <!-- Portfolio Returns -->
     <g transform="translate(137.04925 107.179063) scale(0.1 -0.1)">
      <defs>
       <path id="DejaVuSans-74" d="M 1172 4494 
L 1172 3500 
L 2356 3500 
L 2356 3053 
L 1172 3053 
L 1172 1153 
Q 1172 725 1289 603 
Q 1406 481 1766 481 
L 2356 481 
L 2356 0 
L 1766 0 
Q 1100 0 847 248 
Q 594 497 594 1153 
L 594 3053 
L 172 3053 
L 172 3500 
L 594 3500 
L 594 4494 
L 1172 4494 
z
" transform="scale(0.015625)"/>
       <path id="DejaVuSans-66" d="M 2375 4863 
L 2375 4384 
L 1825 4384 
Q 1516 4384 1395 4259 
Q 1275 4134 1275 3809 
L 1275 3500 
L 2222 3500 
L 2222 3053 
L 1275 3053 
L 1275 0 
L 697 0 
L 697 3053 
L 147 3053 
L 147 3500 
L 697 3500 
L 697 3744 
Q 697 4328 969 4595 
Q 1241 4863 1831 4863 
L 2375 4863 
z
" transform="scale(0.015625)"/>
       <path id="DejaVuSans-6c" d="M 603 4863 
L 1178 4863 
L 1178 0 
L 603 0 
L 603 4863 
z
" transform="scale(0.015625)"/>
       <path id="DejaVuSans-52" d="M 2841 2188 
Q 3044 2119 3236 1894 
Q 3428 1669 3622 1275 
L 4263 0 
L 3584 0 
L 2988 1197 
Q 2756 1666 2539 1819 
Q 2322 1972 1947 1972 
L 1259 1972 
L 1259 0 
L 628 0 
L 628 4666 
L 2053 4666 
Q 2853 4666 3247 4331 
Q 3641 3997 3641 3322 
Q 3641 2881 3436 2590 
Q 3231 2300 2841 2188 
z
M 1259 4147 
L 1259 2491 
L 2053 2491 
Q 2509 2491 2742 2702 
Q 2975 2913 2975 3322 
Q 2975 3731 2742 3939 
Q 2509 4147 2053 4147 
L 1259 4147 
z
" transform="scale(0.015625)"/>
       <path id="DejaVuSans-75" d="M 544 1381 
L 544 3500 
L 1119 3500 
L 1119 1403 
Q 1119 906 1312 657 
Q 1506 409 1894 409 
Q 2359 409 2629 706 
Q 2900 1003 2900 1516 
L 2900 3500 
L 3475 3500 
L 3475 0 
L 2900 0 
L 2900 538 
Q 2691 219 2414 64 
Q 2138 -91 1772 -91 
Q 1169 -91 856 284 
Q 544 659 544 1381 
z
M 1991 3584 
L 1991 3584 
z
" transform="scale(0.015625)"/>
      </defs>
      <use xlink:href="#DejaVuSans-50"/>
      <use xlink:href="#DejaVuSans-6f" x="56.677734"/>
      <use xlink:href="#DejaVuSans-72" x="117.859375"/>
      <use xlink:href="#DejaVuSans-74" x="158.972656"/>
      <use xlink:href="#DejaVuSans-66" x="198.181641"/>
      <use xlink:href="#DejaVuSans-6f" x="233.386719"/>
      <use xlink:href="#DejaVuSans-6c" x="294.568359"/>
      <use xlink:href="#DejaVuSans-69" x="322.351562"/>
      <use xlink:href="#DejaVuSans-6f" x="350.134766"/>
      <use xlink:href="#DejaVuSans-20" x="411.316406"/>
      <use xlink:href="#DejaVuSans-52" x="443.103516"/>
      <use xlink:href="#DejaVuSans-65" x="508.085938"/>
      <use xlink:href="#DejaVuSans-74" x="569.609375"/>
      <use xlink:href="#DejaVuSans-75" x="608.818359"/>
      <use xlink:href="#DejaVuSans-72" x="672.197266"/>
      <use xlink:href="#DejaVuSans-6e" x="711.560547"/>
      <use xlink:href="#DejaVuSans-73" x="774.939453"/>
     </g>
    </g>
   </g>
  </g>
 </g>
 <defs>
  <clipPath id="pd189d7ff17">
   <rect x="100.04925" y="17.19" width="1008.218793" height="488.514333"/>
  </clipPath>
 </defs>
</svg>
